<?xml version="1.0" encoding="UTF-8" standalone="no"?>
<!-- Created with Inkscape (http://www.inkscape.org/) -->

<svg
   width="160.02003mm"
   height="156.07072mm"
   viewBox="0 0 160.02003 156.07072"
   version="1.1"
   id="svg1"
   xml:space="preserve"
   xmlns="http://www.w3.org/2000/svg"
   xmlns:svg="http://www.w3.org/2000/svg"><defs
     id="defs1" /><g
     id="layer1"
     transform="translate(-25.501054,-71.499299)"><g
       id="g15"
       transform="translate(0.73605946,1.104089)"><path
         style="fill:#fefefe"
         d="m 24.764997,203.88792 c 0,-12.41778 0.05036,-22.57778 0.111912,-22.57778 0.127075,0 76.336381,43.78989 77.640311,44.61214 0.83292,0.52524 0.20857,0.53399 -38.452777,0.53866 l -39.299446,0.005 z m 81.585743,22.4604 c 0.16541,-0.1651 78.21283,-45.03818 78.33459,-45.03818 0.0548,0 0.0997,10.16 0.0997,22.57778 V 226.4657 H 145.5091 c -21.60176,0 -39.22301,-0.0528 -39.15833,-0.11738 z M 24.764997,107.96692 V 70.396805 h 39.573829 c 38.554694,0 39.559494,0.01348 39.017224,0.523526 -0.30613,0.287939 -17.895566,17.020189 -39.087628,37.182779 -21.192063,20.16259 -38.749813,36.83355 -39.017224,37.04659 -0.459624,0.36616 -0.486201,-1.66629 -0.486201,-37.18278 z m 120.485083,0.0914 -39.3938,-37.520414 39.3693,-0.07154 c 21.65311,-0.03935 39.41254,-0.0283 39.4654,0.02456 0.0529,0.05285 0.0639,16.969235 0.0245,37.591964 l -0.0716,37.49586 z"
         id="path22" /><path
         style="fill:#f1f8f8"
         d="m 81.967932,188.93642 c -12.233443,-4.78299 -22.30845,-8.76217 -22.388905,-8.84262 -0.08046,-0.0805 10.046253,-24.4221 22.503797,-54.09254 13.380117,-31.867749 22.733356,-53.794679 22.853546,-53.575907 0.70875,1.290044 45.15699,107.546057 45.03776,107.665287 -0.30477,0.30478 -44.8962,17.58742 -45.32059,17.56525 -0.24364,-0.0127 -10.452165,-3.93648 -22.685608,-8.71947 z M 24.764997,145.64359 c 0,-0.0586 0.22225,-0.28086 0.493889,-0.49389 0.447621,-0.35105 0.457603,-0.34107 0.106555,0.10655 -0.368687,0.47011 -0.600444,0.61961 -0.600444,0.38734 z m 159.419563,-0.38734 c -0.35105,-0.44762 -0.34107,-0.4576 0.10655,-0.10655 0.27164,0.21303 0.49389,0.43528 0.49389,0.49389 0,0.23227 -0.23176,0.0828 -0.60044,-0.38734 z m -153.916229,-3.175 c 0.280948,-0.31044 0.574315,-0.56444 0.651926,-0.56444 0.07761,0 -0.08875,0.254 -0.369704,0.56444 -0.280948,0.31045 -0.574315,0.56445 -0.651926,0.56445 -0.07761,0 0.08876,-0.254 0.369704,-0.56445 z m 148.554009,-0.21167 c -0.35105,-0.44762 -0.34107,-0.4576 0.10655,-0.10655 0.27164,0.21303 0.49389,0.43528 0.49389,0.49389 0,0.23228 -0.23176,0.0828 -0.60044,-0.38734 z M 30.409442,140.24681 c 0.526566,-0.54328 1.020892,-0.98778 1.098503,-0.98778 0.07761,0 -0.289715,0.4445 -0.816281,0.98778 -0.526565,0.54327 -1.020892,0.98777 -1.098503,0.98777 -0.07761,0 0.289716,-0.4445 0.816281,-0.98777 z m 148.433698,-0.0706 -0.97258,-1.05833 1.05833,0.97258 c 0.98507,0.90526 1.1881,1.14408 0.97259,1.14408 -0.0472,0 -0.52342,-0.47625 -1.05834,-1.05833 z m -142.648142,-3.7394 c 0.280948,-0.31045 0.574315,-0.56445 0.651926,-0.56445 0.07761,0 -0.08876,0.254 -0.369704,0.56445 -0.280948,0.31044 -0.574315,0.56444 -0.651926,0.56444 -0.07761,0 0.08875,-0.254 0.369704,-0.56444 z m 136.700672,-0.21167 c -0.35105,-0.44762 -0.34107,-0.4576 0.10655,-0.10655 0.47011,0.36868 0.61962,0.60044 0.38734,0.60044 -0.0586,0 -0.28086,-0.22225 -0.49389,-0.49389 z M 36.336109,134.60236 c 0.526565,-0.54328 1.020892,-0.98778 1.098503,-0.98778 0.07761,0 -0.289715,0.4445 -0.816281,0.98778 -0.526565,0.54328 -1.020892,0.98778 -1.098503,0.98778 -0.07761,0 0.289715,-0.4445 0.816281,-0.98778 z m 136.580371,-0.0705 -0.97259,-1.05834 1.05833,0.97259 c 0.98508,0.90526 1.1881,1.14408 0.97259,1.14408 -0.0472,0 -0.52341,-0.47625 -1.05833,-1.05833 z m -130.794815,-3.7395 c 0.280948,-0.31044 0.574315,-0.56444 0.651926,-0.56444 0.07761,0 -0.08876,0.254 -0.369704,0.56444 -0.280949,0.31045 -0.574315,0.56445 -0.651926,0.56445 -0.07761,0 0.08875,-0.254 0.369704,-0.56445 z M 166.969,130.5807 c -0.35105,-0.44762 -0.34106,-0.45761 0.10656,-0.10656 0.27164,0.21303 0.49389,0.43528 0.49389,0.49389 0,0.23228 -0.23176,0.0828 -0.60045,-0.38733 z M 42.262776,128.95792 c 0.526565,-0.54328 1.020892,-0.98778 1.098503,-0.98778 0.07761,0 -0.289715,0.4445 -0.816281,0.98778 -0.526566,0.54328 -1.020892,0.98778 -1.098503,0.98778 -0.07761,0 0.289715,-0.4445 0.816281,-0.98778 z m 124.727034,-0.0706 -0.97259,-1.05833 1.05834,0.97258 c 0.58208,0.53493 1.05833,1.01118 1.05833,1.05834 0,0.21551 -0.23882,0.0125 -1.14408,-0.97259 z m -118.941479,-3.7394 c 0.280949,-0.31045 0.574316,-0.56445 0.651927,-0.56445 0.07761,0 -0.08876,0.254 -0.369704,0.56445 -0.280949,0.31044 -0.574316,0.56444 -0.651927,0.56444 -0.07761,0 0.08876,-0.254 0.369704,-0.56444 z m 112.994009,-0.21167 c -0.35105,-0.44762 -0.34107,-0.4576 0.10655,-0.10655 0.47011,0.36868 0.61961,0.60044 0.38733,0.60044 -0.0586,0 -0.28085,-0.22225 -0.49388,-0.49389 z M 48.189443,123.31347 c 0.526565,-0.54327 1.020891,-0.98777 1.098503,-0.98777 0.07761,0 -0.289716,0.4445 -0.816281,0.98777 -0.526566,0.54328 -1.020892,0.98778 -1.098503,0.98778 -0.07761,0 0.289715,-0.4445 0.816281,-0.98778 z m 112.873697,-0.0705 -0.97258,-1.05834 1.05833,0.97259 c 0.58208,0.53492 1.05833,1.01117 1.05833,1.05833 0,0.21551 -0.23882,0.0125 -1.14408,-0.97258 z m -107.088142,-3.7395 c 0.280949,-0.31044 0.574315,-0.56444 0.651927,-0.56444 0.07761,0 -0.08876,0.254 -0.369705,0.56444 -0.280948,0.31045 -0.574315,0.56445 -0.651926,0.56445 -0.07761,0 0.08876,-0.254 0.369704,-0.56445 z m 101.140672,-0.21166 c -0.35105,-0.44762 -0.34107,-0.45761 0.10655,-0.10656 0.47011,0.36869 0.61962,0.60045 0.38734,0.60045 -0.0586,0 -0.28086,-0.22225 -0.49389,-0.49389 z M 54.116109,117.66903 c 0.526566,-0.54328 1.020892,-0.98778 1.098503,-0.98778 0.07761,0 -0.289715,0.4445 -0.81628,0.98778 -0.526566,0.54328 -1.020892,0.98778 -1.098503,0.98778 -0.07761,0 0.289715,-0.4445 0.81628,-0.98778 z m 101.020361,-0.0706 -0.97258,-1.05833 1.05833,0.97258 c 0.58209,0.53493 1.05834,1.01118 1.05834,1.05834 0,0.21551 -0.23882,0.0125 -1.14409,-0.97259 z m -95.234805,-3.73944 c 0.280948,-0.31045 0.574315,-0.56445 0.651926,-0.56445 0.07761,0 -0.08875,0.254 -0.369704,0.56445 -0.280948,0.31044 -0.574315,0.56444 -0.651926,0.56444 -0.07761,0 0.08876,-0.254 0.369704,-0.56444 z M 149.189,113.64736 c -0.35105,-0.44762 -0.34106,-0.4576 0.10656,-0.10655 0.27164,0.21303 0.49389,0.43528 0.49389,0.49389 0,0.23227 -0.23176,0.0828 -0.60045,-0.38734 z m -89.146224,-1.62278 c 0.526566,-0.54327 1.020892,-0.98777 1.098503,-0.98777 0.07761,0 -0.289715,0.4445 -0.816281,0.98777 -0.526565,0.54328 -1.020892,0.98778 -1.098503,0.98778 -0.07761,0 0.289716,-0.4445 0.816281,-0.98778 z m 89.167034,-0.0705 -0.97259,-1.05834 1.05834,0.97259 c 0.58208,0.53492 1.05833,1.01117 1.05833,1.05833 0,0.21551 -0.23882,0.0125 -1.14408,-0.97258 z m -83.381478,-3.73945 c 0.280948,-0.31044 0.574315,-0.56444 0.651926,-0.56444 0.07761,0 -0.08876,0.254 -0.369704,0.56444 -0.280948,0.31045 -0.574315,0.56445 -0.651926,0.56445 -0.07761,0 0.08876,-0.254 0.369704,-0.56445 z m 77.434008,-0.21166 c -0.35105,-0.44762 -0.34107,-0.45761 0.10655,-0.10656 0.27164,0.21304 0.49389,0.43529 0.49389,0.49389 0,0.23228 -0.23176,0.0828 -0.60044,-0.38733 z m -77.292897,-1.62278 c 0.526566,-0.54328 1.020892,-0.98778 1.098503,-0.98778 0.07761,0 -0.289715,0.4445 -0.816281,0.98778 -0.526565,0.54328 -1.020892,0.98778 -1.098503,0.98778 -0.07761,0 0.289715,-0.4445 0.816281,-0.98778 z m 77.313697,-0.0706 -0.97258,-1.05833 1.05833,0.97259 c 0.58208,0.53492 1.05833,1.01117 1.05833,1.05833 0,0.21551 -0.23882,0.0125 -1.14408,-0.97259 z m -71.528141,-3.73944 c 0.280948,-0.31045 0.574315,-0.56445 0.651926,-0.56445 0.07761,0 -0.08876,0.254 -0.369704,0.56445 -0.280948,0.31044 -0.574315,0.56444 -0.651926,0.56444 -0.07761,0 0.08876,-0.254 0.369704,-0.56444 z m 65.580671,-0.21167 c -0.35105,-0.44762 -0.34107,-0.4576 0.10655,-0.10655 0.27164,0.21303 0.49389,0.43528 0.49389,0.49389 0,0.23228 -0.23176,0.0828 -0.60044,-0.38734 z M 71.89611,100.7357 c 0.526565,-0.54327 1.020892,-0.987773 1.098503,-0.987773 0.07761,0 -0.289715,0.444503 -0.816281,0.987773 -0.526565,0.54328 -1.020892,0.98778 -1.098503,0.98778 -0.07761,0 0.289715,-0.4445 0.816281,-0.98778 z m 65.46036,-0.0706 -0.97258,-1.058334 1.05833,0.972584 c 0.58209,0.53492 1.05834,1.01117 1.05834,1.05833 0,0.21551 -0.23882,0.0125 -1.14409,-0.97258 z M 77.681666,96.925694 c 0.280948,-0.310444 0.574315,-0.564444 0.651926,-0.564444 0.07761,0 -0.08876,0.254 -0.369704,0.564444 -0.280949,0.310445 -0.574315,0.564445 -0.651927,0.564445 -0.07761,0 0.08876,-0.254 0.369705,-0.564445 z M 131.409,96.714028 c -0.35105,-0.44762 -0.34106,-0.457603 0.10656,-0.106555 0.47011,0.368687 0.61961,0.600444 0.38733,0.600444 -0.0586,0 -0.28085,-0.22225 -0.49389,-0.493889 z M 77.822777,95.09125 c 0.526565,-0.543278 1.020892,-0.987778 1.098503,-0.987778 0.07761,0 -0.289716,0.4445 -0.816281,0.987778 -0.526566,0.543278 -1.020892,0.987778 -1.098503,0.987778 -0.07761,0 0.289715,-0.4445 0.816281,-0.987778 z m 53.607033,-0.07056 -0.97259,-1.058333 1.05834,0.972585 c 0.58208,0.534922 1.05833,1.011172 1.05833,1.058333 0,0.215511 -0.23882,0.01249 -1.14408,-0.972585 z M 83.608332,91.28125 c 0.280949,-0.310445 0.574316,-0.564445 0.651927,-0.564445 0.07761,0 -0.08876,0.254 -0.369704,0.564445 -0.280949,0.310444 -0.574316,0.564444 -0.651927,0.564444 -0.07761,0 0.08876,-0.254 0.369704,-0.564444 z m 41.873998,-0.211667 c -0.35104,-0.44762 -0.34106,-0.457602 0.10656,-0.106554 0.47011,0.368686 0.61961,0.600443 0.38733,0.600443 -0.0586,0 -0.28085,-0.22225 -0.49389,-0.493889 z M 83.749444,89.446805 c 0.526565,-0.543277 1.020891,-0.987777 1.098503,-0.987777 0.07761,0 -0.289716,0.4445 -0.816281,0.987777 -0.526566,0.543278 -1.020892,0.987778 -1.098503,0.987778 -0.07761,0 0.289715,-0.4445 0.816281,-0.987778 z m 41.753696,-0.07055 -0.97258,-1.058334 1.05833,0.972585 c 0.58208,0.534922 1.05833,1.011172 1.05833,1.058334 0,0.21551 -0.23882,0.01249 -1.14408,-0.972585 z m -36.391474,-3.28156 c 0,-0.05861 0.22225,-0.280855 0.493889,-0.493889 0.44762,-0.351048 0.457602,-0.341065 0.106554,0.106555 -0.368686,0.470111 -0.600443,0.619613 -0.600443,0.387334 z m 30.444004,-0.669556 c -0.35105,-0.447621 -0.34107,-0.457603 0.10655,-0.106555 0.47011,0.368687 0.61962,0.600443 0.38734,0.600443 -0.0586,0 -0.28086,-0.22225 -0.49389,-0.493888 z M 89.67611,83.802361 c 0.526566,-0.543278 1.020892,-0.987778 1.098503,-0.987778 0.07761,0 -0.289715,0.4445 -0.81628,0.987778 -0.526566,0.543278 -1.020892,0.987778 -1.098504,0.987778 -0.07761,0 0.289716,-0.4445 0.816281,-0.987778 z m 29.90036,-0.07056 -0.97258,-1.058333 1.05833,0.972585 c 0.58209,0.534921 1.05834,1.011171 1.05834,1.058333 0,0.215511 -0.23883,0.01249 -1.14409,-0.972585 z m -24.538137,-3.28155 c 0,-0.05861 0.22225,-0.280855 0.493889,-0.493889 0.44762,-0.351048 0.457602,-0.341066 0.106554,0.106554 -0.368686,0.470111 -0.600443,0.619613 -0.600443,0.387335 z M 113.629,79.780694 c -0.35105,-0.44762 -0.34106,-0.457602 0.10656,-0.106555 0.27163,0.213034 0.49388,0.435284 0.49388,0.493889 0,0.232279 -0.23175,0.08278 -0.60044,-0.387334 z M 95.602777,78.157916 c 0.526566,-0.543278 1.020892,-0.987778 1.098503,-0.987778 0.07761,0 -0.289715,0.4445 -0.816281,0.987778 -0.526565,0.543278 -1.020892,0.987778 -1.098503,0.987778 -0.07761,0 0.289716,-0.4445 0.816281,-0.987778 z m 18.047033,-0.07055 -0.97259,-1.058334 1.05834,0.972585 c 0.98507,0.905261 1.18809,1.144082 0.97258,1.144082 -0.0472,0 -0.52341,-0.47625 -1.05833,-1.058333 z M 100.965,74.805806 c 0,-0.05861 0.22225,-0.280855 0.49389,-0.493889 0.44762,-0.351048 0.4576,-0.341066 0.10655,0.106555 -0.36868,0.470111 -0.60044,0.619613 -0.60044,0.387334 z m 6.73733,-0.669557 c -0.35104,-0.44762 -0.34106,-0.457602 0.10656,-0.106554 0.47011,0.368686 0.61961,0.600443 0.38733,0.600443 -0.0586,0 -0.28085,-0.22225 -0.49389,-0.493889 z m -6.17289,-1.622777 c 0.52657,-0.543278 1.0209,-0.987778 1.09851,-0.987778 0.0776,0 -0.28972,0.4445 -0.81628,0.987778 -0.52657,0.543277 -1.0209,0.987777 -1.09851,0.987777 -0.0776,0 0.28972,-0.4445 0.81628,-0.987777 z m 6.1937,-0.07056 -0.97258,-1.058333 1.05833,0.972584 c 0.98507,0.905261 1.18809,1.144082 0.97258,1.144082 -0.0472,0 -0.52341,-0.47625 -1.05833,-1.058333 z"
         id="path21" /><path
         style="fill:#a9d4d2"
         d="m 25.329442,163.26392 c 0,-16.44401 0.0066,-16.63976 0.57787,-17.03986 0.513463,-0.35965 7.838445,-7.24495 10.862607,-10.21059 0.633142,-0.62089 3.299804,-3.16089 5.925916,-5.64444 2.626113,-2.48356 5.293113,-5.02356 5.926667,-5.64445 0.633555,-0.62088 3.300555,-3.16088 5.926667,-5.64444 2.626113,-2.48356 5.293113,-5.02356 5.926667,-5.64445 0.633554,-0.62088 3.300554,-3.16088 5.926667,-5.64444 2.626112,-2.48356 5.293112,-5.02356 5.926667,-5.64444 0.633554,-0.62089 3.300554,-3.160893 5.926666,-5.644449 2.626113,-2.483556 5.29215,-5.023556 5.924529,-5.644444 0.632378,-0.620889 3.295001,-3.160889 5.91694,-5.644445 2.621939,-2.483556 5.29016,-5.023556 5.929379,-5.644445 5.034736,-4.890358 6.851676,-6.568555 6.789986,-6.27151 -0.0394,0.189664 -0.21812,0.702361 -0.39719,1.139327 -0.17908,0.436966 -0.32559,0.8511 -0.32559,0.920298 0,0.0692 -0.24417,0.66418 -0.54259,1.322183 -0.29842,0.658003 -0.94089,2.148869 -1.4277,3.313036 -0.486809,1.164166 -0.997181,2.370666 -1.134156,2.681111 -0.136976,0.310444 -0.647347,1.516944 -1.134159,2.681111 -0.486812,1.164167 -1.129276,2.655033 -1.427699,3.313035 -0.298423,0.658003 -0.542587,1.27381 -0.542587,1.36846 0,0.09465 -0.180817,0.572283 -0.401817,1.061409 -0.220999,0.489125 -0.802181,1.841818 -1.291516,3.005985 -0.489335,1.164167 -1.070517,2.51686 -1.291516,3.005986 -0.221,0.489125 -0.401817,0.961611 -0.401817,1.049969 0,0.148471 -0.647921,1.647218 -1.996963,4.619303 -0.298671,0.658 -0.543037,1.27381 -0.543037,1.36846 0,0.0947 -0.180818,0.57228 -0.401818,1.06141 -0.220999,0.48912 -0.802181,1.84182 -1.291516,3.00598 -0.489334,1.16417 -1.070517,2.51686 -1.291516,3.00599 -0.220999,0.48912 -0.401817,0.96676 -0.401817,1.06141 0,0.0947 -0.244164,0.71045 -0.542587,1.36846 -0.298423,0.658 -0.940887,2.14887 -1.427699,3.31303 -0.486812,1.16417 -0.997183,2.37067 -1.134159,2.68111 -0.136975,0.31045 -0.647193,1.51695 -1.133817,2.68112 -0.486624,1.16416 -1.065588,2.51686 -1.286588,3.00598 -0.220999,0.48913 -0.401817,0.96676 -0.401817,1.06141 0,0.0947 -0.244164,0.71046 -0.542587,1.36846 -0.298422,0.658 -0.940887,2.14887 -1.427699,3.31303 -0.486812,1.16417 -0.997183,2.37067 -1.134159,2.68112 -0.136975,0.31044 -0.647347,1.51694 -1.134158,2.68111 -0.486812,1.16416 -1.129277,2.65503 -1.427699,3.31303 -0.298423,0.658 -0.542587,1.27381 -0.542587,1.36846 0,0.0947 -0.180818,0.57229 -0.401817,1.06141 -0.221,0.48913 -0.799964,1.84182 -1.286588,3.00599 -0.486624,1.16416 -0.996842,2.37066 -1.133817,2.68111 -0.136976,0.31044 -0.647347,1.51694 -1.134159,2.68111 -0.486812,1.16416 -1.129276,2.65503 -1.427699,3.31303 -0.298423,0.65801 -0.542587,1.27381 -0.542587,1.36846 0,0.0947 -0.180818,0.57229 -0.401817,1.06141 -0.220999,0.48913 -0.802182,1.84182 -1.291516,3.00599 -0.489335,1.16416 -1.070517,2.51686 -1.291517,3.00598 -0.220999,0.48913 -0.401817,0.96676 -0.401817,1.06141 0,0.0947 -0.244164,0.71046 -0.542586,1.36846 -0.298423,0.658 -0.940888,2.14887 -1.427699,3.31304 -0.486812,1.16416 -0.997184,2.37066 -1.134159,2.68111 -0.136976,0.31044 -0.647194,1.51694 -1.133817,2.68111 -0.486624,1.16417 -1.046538,2.49767 -1.244253,2.96333 -0.197715,0.46567 -0.526818,1.29117 -0.731339,1.83445 -0.204522,0.54327 -0.493123,1.14652 -0.641337,1.34055 -0.210108,0.27506 -3.868215,0.35278 -16.603811,0.35278 H 25.329442 Z m 125.952968,16.28233 c -0.14821,-0.19403 -0.43681,-0.79728 -0.64133,-1.34055 -0.20453,-0.54328 -0.53363,-1.36878 -0.73134,-1.83445 -0.19772,-0.46566 -0.76,-1.79916 -1.24953,-2.96333 -0.48952,-1.16417 -1.1342,-2.65503 -1.43262,-3.31304 -0.29843,-0.658 -0.54259,-1.27381 -0.54259,-1.36846 0,-0.0947 -0.18102,-0.57228 -0.40227,-1.0614 -1.25751,-2.78003 -1.85551,-4.16981 -1.85551,-4.31226 0,-0.0884 -0.18081,-0.56084 -0.40181,-1.04997 -0.221,-0.48912 -0.80234,-1.84182 -1.29186,-3.00598 -0.48952,-1.16417 -1.13421,-2.65504 -1.43263,-3.31304 -0.29842,-0.658 -0.54259,-1.27381 -0.54259,-1.36846 0,-0.0947 -0.18102,-0.57228 -0.40227,-1.06141 -1.2575,-2.78002 -1.8555,-4.1698 -1.8555,-4.31225 0,-0.0884 -0.18082,-0.56084 -0.40182,-1.04997 -0.221,-0.48912 -0.80234,-1.84182 -1.29186,-3.00598 -0.48952,-1.16417 -1.1342,-2.65504 -1.43263,-3.31304 -0.29842,-0.658 -0.54258,-1.27381 -0.54258,-1.36846 0,-0.0947 -0.18082,-0.57228 -0.40182,-1.06141 -0.221,-0.48912 -0.80234,-1.84182 -1.29186,-3.00598 -0.48952,-1.16417 -1.1342,-2.65504 -1.43263,-3.31304 -0.29842,-0.658 -0.54258,-1.27381 -0.54258,-1.36846 0,-0.0947 -0.18102,-0.57228 -0.40227,-1.06141 -1.25751,-2.78002 -1.85551,-4.1698 -1.85551,-4.31225 0,-0.0884 -0.18082,-0.56084 -0.40182,-1.04997 -0.221,-0.48912 -0.80233,-1.84182 -1.29185,-3.00598 -0.48953,-1.16417 -1.13421,-2.65504 -1.43263,-3.31304 -0.29842,-0.658 -0.54259,-1.27381 -0.54259,-1.36846 0,-0.0947 -0.18102,-0.57228 -0.40227,-1.06141 -1.2575,-2.78003 -1.85551,-4.1698 -1.85551,-4.31225 0,-0.0884 -0.18081,-0.56085 -0.40181,-1.04997 -0.221,-0.48913 -0.80234,-1.84182 -1.29186,-3.00599 -0.48952,-1.16416 -1.13421,-2.65503 -1.43263,-3.31303 -0.29842,-0.658 -0.54259,-1.27381 -0.54259,-1.36846 0,-0.0947 -0.18102,-0.57228 -0.40227,-1.06141 -1.2575,-2.780028 -1.8555,-4.169801 -1.8555,-4.312253 0,-0.08836 -0.18082,-0.560844 -0.40182,-1.049969 -0.221,-0.489126 -0.80234,-1.841819 -1.29186,-3.005986 -0.48952,-1.164167 -1.1342,-2.655032 -1.43263,-3.313035 -0.29842,-0.658003 -0.54258,-1.27381 -0.54258,-1.368459 0,-0.09465 -0.18082,-0.572284 -0.40182,-1.06141 -0.221,-0.489125 -0.80233,-1.841818 -1.29186,-3.005985 -0.48952,-1.164167 -1.1342,-2.655033 -1.43262,-3.313035 -0.29843,-0.658003 -0.54259,-1.27381 -0.54259,-1.36846 0,-0.09465 -0.18102,-0.572283 -0.40227,-1.061409 -1.15668,-2.557119 -1.85551,-4.163794 -1.85551,-4.265976 0,-0.06291 -0.14651,-0.471893 -0.32559,-0.908859 -0.17907,-0.436966 -0.35724,-0.945766 -0.39592,-1.130666 -0.0607,-0.290282 2.2469,1.829891 6.50942,5.980627 0.63761,0.620889 3.30793,3.160889 5.93404,5.644445 2.62611,2.483555 5.29311,5.023555 5.92667,5.644444 0.63355,0.620889 3.30055,3.160889 5.92666,5.644445 2.62612,2.483556 5.29312,5.023551 5.92667,5.644441 0.63355,0.62089 3.30055,3.16089 5.92667,5.64445 2.62611,2.48355 5.29311,5.02355 5.92666,5.64444 0.63356,0.62089 3.30056,3.16089 5.92667,5.64445 2.62611,2.48355 5.29311,5.02355 5.92667,5.64444 0.63355,0.62089 3.30055,3.16089 5.92666,5.64445 2.62612,2.48355 5.29312,5.02355 5.92667,5.64444 3.12938,3.06682 10.66956,10.17407 11.15322,10.51283 0.53366,0.37379 0.54928,0.85775 0.54928,17.01984 v 16.63511 h -16.33434 c -12.73559,0 -16.3937,-0.0777 -16.60381,-0.35278 z M 28.85722,141.79903 c 0.280948,-0.31045 0.574315,-0.56445 0.651926,-0.56445 0.07761,0 -0.08876,0.254 -0.369704,0.56445 -0.280948,0.31044 -0.574315,0.56444 -0.651926,0.56444 -0.07761,0 0.08875,-0.254 0.369704,-0.56444 z m 151.37623,-0.21167 c -0.35105,-0.44762 -0.34107,-0.4576 0.10655,-0.10655 0.47011,0.36868 0.61961,0.60044 0.38734,0.60044 -0.0586,0 -0.28086,-0.22225 -0.49389,-0.49389 z M 34.783887,136.15458 c 0.280948,-0.31044 0.574315,-0.56444 0.651926,-0.56444 0.07761,0 -0.08876,0.254 -0.369704,0.56444 -0.280949,0.31045 -0.574315,0.56445 -0.651926,0.56445 -0.07761,0 0.08875,-0.254 0.369704,-0.56445 z m 139.522893,-0.21166 c -0.35105,-0.44762 -0.34107,-0.4576 0.10655,-0.10656 0.47012,0.36869 0.61962,0.60045 0.38734,0.60045 -0.0586,0 -0.28086,-0.22225 -0.49389,-0.49389 z M 40.710553,130.51014 c 0.280949,-0.31044 0.574316,-0.56444 0.651927,-0.56444 0.07761,0 -0.08876,0.254 -0.369704,0.56444 -0.280949,0.31044 -0.574316,0.56444 -0.651927,0.56444 -0.07761,0 0.08876,-0.254 0.369704,-0.56444 z m 127.669557,-0.21167 c -0.35104,-0.44762 -0.34106,-0.4576 0.10656,-0.10655 0.47011,0.36869 0.61961,0.60044 0.38733,0.60044 -0.0586,0 -0.28085,-0.22225 -0.49389,-0.49389 z M 46.63722,124.8657 c 0.280949,-0.31045 0.574316,-0.56445 0.651927,-0.56445 0.07761,0 -0.08876,0.254 -0.369704,0.56445 -0.280949,0.31044 -0.574316,0.56444 -0.651927,0.56444 -0.07761,0 0.08876,-0.254 0.369704,-0.56444 z m 115.81623,-0.21167 c -0.35105,-0.44762 -0.34107,-0.4576 0.10655,-0.10656 0.27164,0.21304 0.49389,0.43529 0.49389,0.49389 0,0.23228 -0.23176,0.0828 -0.60044,-0.38733 z M 52.563887,119.22125 c 0.280948,-0.31044 0.574315,-0.56444 0.651926,-0.56444 0.07761,0 -0.08875,0.254 -0.369704,0.56444 -0.280948,0.31045 -0.574315,0.56445 -0.651926,0.56445 -0.07761,0 0.08876,-0.254 0.369704,-0.56445 z m 103.962893,-0.21167 c -0.35105,-0.44762 -0.34107,-0.4576 0.10655,-0.10655 0.27164,0.21303 0.49389,0.43528 0.49389,0.49389 0,0.23228 -0.23175,0.0828 -0.60044,-0.38734 z m -98.036226,-5.43277 c 0.280948,-0.31045 0.574315,-0.56445 0.651926,-0.56445 0.07761,0 -0.08875,0.254 -0.369704,0.56445 -0.280948,0.31044 -0.574315,0.56444 -0.651926,0.56444 -0.07761,0 0.08876,-0.254 0.369704,-0.56444 z m 92.109556,-0.21167 c -0.35104,-0.44762 -0.34106,-0.4576 0.10656,-0.10656 0.27164,0.21304 0.49389,0.43529 0.49389,0.49389 0,0.23228 -0.23176,0.0828 -0.60045,-0.38733 z m -86.182889,-5.43278 c 0.280948,-0.31044 0.574315,-0.56444 0.651926,-0.56444 0.07761,0 -0.08876,0.254 -0.369704,0.56444 -0.280948,0.31045 -0.574315,0.56445 -0.651926,0.56445 -0.07761,0 0.08876,-0.254 0.369704,-0.56445 z m 80.406519,-0.0705 -0.53763,-0.635 0.635,0.53763 c 0.34925,0.29569 0.635,0.58144 0.635,0.635 0,0.22584 -0.22713,0.0591 -0.73237,-0.53763 z m -74.479852,-5.57389 c 0.280948,-0.31045 0.574315,-0.56445 0.651926,-0.56445 0.07761,0 -0.08876,0.254 -0.369704,0.56445 -0.280949,0.31044 -0.574315,0.56444 -0.651927,0.56444 -0.07761,0 0.08876,-0.254 0.369705,-0.56444 z m 68.553182,-0.0706 -0.53763,-0.635 0.635,0.53763 c 0.59675,0.50524 0.76348,0.73237 0.53763,0.73237 -0.0536,0 -0.3393,-0.28575 -0.635,-0.635 z M 76.270554,96.643472 c 0.280949,-0.310444 0.574316,-0.564444 0.651927,-0.564444 0.07761,0 -0.08876,0.254 -0.369704,0.564444 -0.280949,0.310445 -0.574316,0.564445 -0.651927,0.564445 -0.07761,0 0.08876,-0.254 0.369704,-0.564445 z m 56.699856,-0.07055 -0.53763,-0.635 0.635,0.53763 c 0.34925,0.295696 0.635,0.581446 0.635,0.635 0,0.225849 -0.22713,0.05911 -0.73237,-0.53763 z M 82.197221,90.999028 c 0.280949,-0.310445 0.574315,-0.564445 0.651927,-0.564445 0.07761,0 -0.08876,0.254 -0.369705,0.564445 -0.280948,0.310444 -0.574315,0.564444 -0.651926,0.564444 -0.07761,0 0.08876,-0.254 0.369704,-0.564444 z m 44.846519,-0.07056 -0.53763,-0.635 0.635,0.53763 c 0.59674,0.505239 0.76348,0.73237 0.53763,0.73237 -0.0536,0 -0.3393,-0.28575 -0.635,-0.635 z M 88.123888,85.354583 c 0.280948,-0.310444 0.574315,-0.564444 0.651926,-0.564444 0.07761,0 -0.08875,0.254 -0.369704,0.564444 -0.280948,0.310444 -0.574315,0.564444 -0.651926,0.564444 -0.07761,0 0.08876,-0.254 0.369704,-0.564444 z m 32.993182,-0.07056 -0.53763,-0.635 0.635,0.53763 c 0.34925,0.295697 0.635,0.581447 0.635,0.635 0,0.22585 -0.22713,0.05911 -0.73237,-0.53763 z M 94.050555,79.710138 c 0.280948,-0.310444 0.574315,-0.564444 0.651926,-0.564444 0.07761,0 -0.08876,0.254 -0.369704,0.564444 -0.280948,0.310445 -0.574315,0.564445 -0.651926,0.564445 -0.07761,0 0.08876,-0.254 0.369704,-0.564445 z m 21.139855,-0.07055 -0.53763,-0.635 0.635,0.53763 c 0.34925,0.295696 0.635,0.581446 0.635,0.635 0,0.225849 -0.22713,0.05911 -0.73237,-0.53763 z M 99.977222,74.065694 c 0.280948,-0.310445 0.574318,-0.564445 0.651928,-0.564445 0.0776,0 -0.0888,0.254 -0.36971,0.564445 -0.280944,0.310444 -0.574311,0.564444 -0.651922,0.564444 -0.07761,0 0.08876,-0.254 0.369704,-0.564444 z m 9.286518,-0.07056 -0.53763,-0.635 0.635,0.53763 c 0.34925,0.295696 0.635,0.581446 0.635,0.635 0,0.225849 -0.22713,0.05911 -0.73237,-0.53763 z"
         id="path20" /><path
         style="fill:#a4a4a4"
         d="m 104.06933,212.15689 c -0.0775,-7.48179 -0.0445,-13.50668 0.0735,-13.38865 0.11795,0.11803 0.1814,6.2395 0.14099,13.60326 l -0.0735,13.38864 z m 1.19244,0.1438 c -0.0349,-7.4027 0.0318,-13.51842 0.14823,-13.59048 0.19237,-0.11909 0.18876,9.96532 -0.008,22.25215 -0.0422,2.63878 -0.10537,-1.25897 -0.14026,-8.66167 z M 26.740553,145.32681 c 0.364559,-0.38806 0.726335,-0.70556 0.803946,-0.70556 0.07761,0 -0.157164,0.3175 -0.521724,0.70556 -0.364559,0.38805 -0.726335,0.70555 -0.803946,0.70555 -0.07761,0 0.157165,-0.3175 0.521724,-0.70555 z m 155.627807,-0.21167 -0.82891,-0.91722 0.91722,0.82891 c 0.50447,0.4559 0.91722,0.86865 0.91722,0.91722 0,0.21804 -0.23287,0.0261 -1.00553,-0.82891 z M 26.740553,143.9685 c 0,-0.0486 0.41275,-0.46132 0.917222,-0.91723 l 0.917223,-0.82891 -0.828913,0.91722 c -0.772662,0.85498 -1.005532,1.04695 -1.005532,0.82892 z m 154.781137,-1.11114 -0.82891,-0.91722 0.91722,0.82891 c 0.50447,0.4559 0.91722,0.86865 0.91722,0.91722 0,0.21804 -0.23287,0.0261 -1.00553,-0.82891 z M 31.820553,140.58183 c 0,-0.0486 0.41275,-0.46132 0.917222,-0.91722 l 0.917223,-0.82891 -0.828913,0.91722 c -0.772662,0.85498 -1.005532,1.04694 -1.005532,0.82891 z m 144.621137,-1.11113 -0.82891,-0.91723 0.91722,0.82892 c 0.50447,0.4559 0.91722,0.86865 0.91722,0.91722 0,0.21803 -0.23287,0.0261 -1.00553,-0.82891 z M 32.66722,138.32405 c 0,-0.0486 0.41275,-0.46132 0.917222,-0.91722 l 0.917222,-0.82891 -0.828912,0.91722 c -0.772663,0.85498 -1.005532,1.04695 -1.005532,0.82891 z m 142.92781,-1.11113 -0.82892,-0.91722 0.91722,0.82891 c 0.50448,0.4559 0.91723,0.86865 0.91723,0.91722 0,0.21803 -0.23287,0.0261 -1.00553,-0.82891 z M 37.74722,134.93739 c 0,-0.0486 0.41275,-0.46132 0.917222,-0.91723 l 0.917223,-0.82891 -0.828913,0.91722 c -0.772662,0.85498 -1.005532,1.04695 -1.005532,0.82892 z m 132.7678,-1.11114 -0.82891,-0.91722 0.91722,0.82891 c 0.50448,0.4559 0.91723,0.86865 0.91723,0.91722 0,0.21804 -0.23287,0.0261 -1.00554,-0.82891 z M 38.593887,132.67961 c 0,-0.0486 0.41275,-0.46132 0.917222,-0.91722 l 0.917222,-0.82892 -0.828912,0.91723 c -0.772663,0.85498 -1.005532,1.04694 -1.005532,0.82891 z m 131.074473,-1.11114 -0.82891,-0.91722 0.91722,0.82891 c 0.50447,0.45591 0.91722,0.86866 0.91722,0.91723 0,0.21803 -0.23287,0.0261 -1.00553,-0.82892 z M 44.238331,128.6757 c 0.36456,-0.38806 0.726335,-0.70556 0.803946,-0.70556 0.07761,0 -0.157164,0.3175 -0.521723,0.70556 -0.36456,0.38805 -0.726335,0.70555 -0.803947,0.70555 -0.07761,0 0.157165,-0.3175 0.521724,-0.70555 z m 120.487529,-0.35278 -0.68419,-0.77611 0.77611,0.68419 c 0.72539,0.63949 0.90553,0.86803 0.68419,0.86803 -0.0505,0 -0.3998,-0.34925 -0.77611,-0.77611 z M 44.520554,127.03516 c 0,-0.0486 0.41275,-0.46132 0.917222,-0.91722 l 0.917222,-0.82891 -0.828912,0.91722 c -0.772663,0.85498 -1.005532,1.04695 -1.005532,0.82891 z m 119.221136,-1.11113 -0.82891,-0.91722 0.91722,0.82891 c 0.85498,0.77266 1.04695,1.00553 0.82891,1.00553 -0.0486,0 -0.46132,-0.41275 -0.91722,-0.91722 z M 50.164998,123.03125 c 0.364559,-0.38805 0.726335,-0.70555 0.803946,-0.70555 0.07761,0 -0.157164,0.3175 -0.521724,0.70555 -0.364559,0.38806 -0.726335,0.70556 -0.803946,0.70556 -0.07761,0 0.157165,-0.3175 0.521724,-0.70556 z m 108.634202,-0.35278 -0.6842,-0.77611 0.77611,0.6842 c 0.72539,0.63948 0.90554,0.86802 0.6842,0.86802 -0.0506,0 -0.39981,-0.34925 -0.77611,-0.77611 z M 50.44722,121.39072 c 0,-0.0486 0.41275,-0.46132 0.917223,-0.91722 l 0.917222,-0.82892 -0.828913,0.91723 c -0.772662,0.85498 -1.005532,1.04694 -1.005532,0.82891 z m 107.3678,-1.11114 -0.82891,-0.91722 0.91722,0.82891 c 0.85498,0.77267 1.04695,1.00554 0.82892,1.00554 -0.0486,0 -0.46132,-0.41275 -0.91723,-0.91723 z M 56.091665,117.38681 c 0.364559,-0.38806 0.726335,-0.70556 0.803946,-0.70556 0.07761,0 -0.157165,0.3175 -0.521724,0.70556 -0.364559,0.38805 -0.726335,0.70555 -0.803946,0.70555 -0.07761,0 0.157165,-0.3175 0.521724,-0.70555 z m 96.780865,-0.35278 -0.6842,-0.77611 0.77612,0.68419 c 0.42686,0.37631 0.77611,0.72556 0.77611,0.77611 0,0.22134 -0.22855,0.0412 -0.86803,-0.68419 z m -96.498643,-1.28776 c 0,-0.0486 0.41275,-0.46132 0.917222,-0.91722 l 0.917223,-0.82891 -0.828913,0.91722 c -0.772662,0.85498 -1.005532,1.04695 -1.005532,0.82891 z m 95.514473,-1.11113 -0.82891,-0.91722 0.91722,0.82891 c 0.50447,0.4559 0.91722,0.86865 0.91722,0.91722 0,0.21804 -0.23287,0.0261 -1.00553,-0.82891 z m -89.870028,-2.89278 c 0.364559,-0.38805 0.726335,-0.70555 0.803946,-0.70555 0.07761,0 -0.157165,0.3175 -0.521724,0.70555 -0.364559,0.38806 -0.726335,0.70556 -0.803946,0.70556 -0.07761,0 0.157165,-0.3175 0.521724,-0.70556 z m 84.927528,-0.35278 -0.68419,-0.77611 0.77611,0.6842 c 0.42686,0.37631 0.77611,0.72556 0.77611,0.77611 0,0.22134 -0.22854,0.0412 -0.86803,-0.6842 z m -84.645306,-1.28775 c 0,-0.0486 0.41275,-0.46132 0.917222,-0.91722 l 0.917223,-0.82892 -0.828913,0.91723 c -0.772662,0.85498 -1.005532,1.04694 -1.005532,0.82891 z m 83.798646,-0.97002 -0.6842,-0.77612 0.77611,0.6842 c 0.72539,0.63948 0.90554,0.86803 0.6842,0.86803 -0.0506,0 -0.39981,-0.34925 -0.77611,-0.77611 z m -78.154201,-3.03389 c 0.364559,-0.38806 0.726335,-0.70556 0.803946,-0.70556 0.07761,0 -0.157165,0.3175 -0.521724,0.70556 -0.364559,0.38805 -0.726335,0.70555 -0.803946,0.70555 -0.07761,0 0.157164,-0.3175 0.521724,-0.70555 z m 73.074201,-0.35278 -0.6842,-0.77611 0.77611,0.68419 c 0.72539,0.63949 0.90554,0.86803 0.6842,0.86803 -0.0506,0 -0.39981,-0.34925 -0.77611,-0.77611 z m -72.791979,-1.28776 c 0,-0.0486 0.41275,-0.46132 0.917222,-0.91722 l 0.917222,-0.82891 -0.828912,0.91722 c -0.772663,0.85498 -1.005532,1.04695 -1.005532,0.82891 z m 71.945309,-0.97002 -0.6842,-0.77611 0.77612,0.6842 c 0.72539,0.63948 0.90553,0.86802 0.68419,0.86802 -0.0506,0 -0.3998,-0.34925 -0.77611,-0.77611 z m -66.300865,-3.03389 c 0.36456,-0.38805 0.726336,-0.705553 0.803947,-0.705553 0.07761,0 -0.157165,0.317503 -0.521724,0.705553 -0.36456,0.38806 -0.726335,0.70556 -0.803946,0.70556 -0.07761,0 0.157164,-0.3175 0.521723,-0.70556 z m 61.220865,-0.35278 -0.6842,-0.776107 0.77611,0.684197 c 0.7254,0.63948 0.90554,0.86803 0.6842,0.86803 -0.0505,0 -0.3998,-0.34925 -0.77611,-0.77612 z M 74.153888,98.81294 c 0,-0.04857 0.41275,-0.46132 0.917222,-0.917222 l 0.917222,-0.828912 -0.828912,0.917222 c -0.772663,0.85498 -1.005532,1.046946 -1.005532,0.828912 z m 60.091972,-0.970023 -0.68419,-0.776111 0.77611,0.684195 c 0.72539,0.639483 0.90553,0.868027 0.68419,0.868027 -0.0506,0 -0.3998,-0.34925 -0.77611,-0.776111 z M 79.798332,94.809028 c 0.36456,-0.388056 0.726335,-0.705556 0.803946,-0.705556 0.07761,0 -0.157164,0.3175 -0.521723,0.705556 -0.36456,0.388055 -0.726336,0.705555 -0.803947,0.705555 -0.07761,0 0.157165,-0.3175 0.521724,-0.705555 z m 49.367528,-0.352778 -0.68419,-0.776111 0.77611,0.684195 c 0.72539,0.639484 0.90553,0.868027 0.68419,0.868027 -0.0505,0 -0.3998,-0.34925 -0.77611,-0.776111 z M 80.080555,93.168496 c 0,-0.04857 0.41275,-0.461321 0.917222,-0.917223 l 0.917222,-0.828912 -0.828912,0.917222 c -0.772663,0.85498 -1.005532,1.046946 -1.005532,0.828913 z m 48.238645,-0.970024 -0.6842,-0.776111 0.77611,0.684195 c 0.72539,0.639484 0.90554,0.868027 0.6842,0.868027 -0.0506,0 -0.39981,-0.34925 -0.77611,-0.776111 z M 85.724999,89.164583 c 0.364559,-0.388055 0.726335,-0.705555 0.803946,-0.705555 0.07761,0 -0.157164,0.3175 -0.521724,0.705555 -0.364559,0.388056 -0.726335,0.705556 -0.803946,0.705556 -0.07761,0 0.157165,-0.3175 0.521724,-0.705556 z m 37.514201,-0.352778 -0.6842,-0.776111 0.77611,0.684196 c 0.72539,0.639483 0.90554,0.868026 0.6842,0.868026 -0.0506,0 -0.39981,-0.34925 -0.77611,-0.776111 z M 86.007221,87.524051 c 0,-0.04857 0.41275,-0.46132 0.917223,-0.917222 l 0.917222,-0.828913 -0.828913,0.917223 c -0.772662,0.854979 -1.005532,1.046946 -1.005532,0.828912 z m 36.385309,-0.970023 -0.6842,-0.776112 0.77611,0.684196 c 0.42687,0.376307 0.77612,0.725557 0.77612,0.776111 0,0.221339 -0.22855,0.0412 -0.86803,-0.684195 z M 91.651666,83.520139 c 0.364559,-0.388056 0.726335,-0.705556 0.803946,-0.705556 0.07761,0 -0.157165,0.3175 -0.521724,0.705556 -0.364559,0.388055 -0.726335,0.705555 -0.803946,0.705555 -0.07761,0 0.157165,-0.3175 0.521724,-0.705555 z m 25.660864,-0.352778 -0.6842,-0.776111 0.77611,0.684195 c 0.42687,0.376307 0.77612,0.725557 0.77612,0.776111 0,0.22134 -0.22855,0.0412 -0.86803,-0.684195 z M 91.933888,81.879606 c 0,-0.04857 0.41275,-0.46132 0.917222,-0.917222 l 0.917223,-0.828912 -0.828913,0.917222 c -0.772662,0.85498 -1.005532,1.046946 -1.005532,0.828912 z m 24.531972,-0.970023 -0.68419,-0.776111 0.77611,0.684195 c 0.42686,0.376307 0.77611,0.725558 0.77611,0.776111 0,0.22134 -0.22854,0.0412 -0.86803,-0.684195 z M 97.578333,77.875694 c 0.364559,-0.388056 0.726335,-0.705556 0.803946,-0.705556 0.07761,0 -0.157165,0.3175 -0.521724,0.705556 -0.364559,0.388055 -0.726335,0.705555 -0.803946,0.705555 -0.07761,0 0.157164,-0.3175 0.521724,-0.705555 z m 13.807527,-0.352778 -0.68419,-0.776111 0.77611,0.684195 c 0.42686,0.376308 0.77611,0.725558 0.77611,0.776111 0,0.22134 -0.22854,0.0412 -0.86803,-0.684195 z M 97.860555,76.235162 c 0,-0.04857 0.41275,-0.461321 0.917222,-0.917222 l 0.917222,-0.828913 -0.828912,0.917222 c -0.772663,0.85498 -1.005532,1.046947 -1.005532,0.828913 z m 12.678645,-0.970024 -0.6842,-0.776111 0.77611,0.684195 c 0.42686,0.376308 0.77611,0.725558 0.77611,0.776112 0,0.221339 -0.22854,0.0412 -0.86802,-0.684196 z"
         id="path19" /><path
         style="fill:#45706e"
         d="m 102.80857,224.63186 c -0.61587,-0.31078 -1.2915,-0.72361 -1.5014,-0.9174 -0.2099,-0.1938 -0.69026,-0.42982 -1.06746,-0.52449 -0.377202,-0.0947 -0.685822,-0.27714 -0.685822,-0.40549 0,-0.12835 -0.4445,-0.39409 -0.987777,-0.59054 -0.543278,-0.19645 -0.987778,-0.45045 -0.987778,-0.56445 0,-0.11399 -0.4445,-0.36799 -0.987778,-0.56444 -0.543278,-0.19645 -0.987778,-0.45045 -0.987778,-0.56445 0,-0.11399 -0.4445,-0.36799 -0.987778,-0.56444 -0.543277,-0.19645 -0.987777,-0.43138 -0.987777,-0.52206 0,-0.0907 -0.72585,-0.54141 -1.613,-1.00163 -0.887149,-0.46023 -1.78503,-0.99533 -1.99529,-1.18913 -0.210261,-0.19379 -0.690911,-0.42981 -1.068112,-0.52448 -0.377202,-0.0947 -0.685821,-0.27714 -0.685821,-0.40549 0,-0.12835 -0.4445,-0.39409 -0.987778,-0.59054 -0.543277,-0.19646 -0.987777,-0.45046 -0.987777,-0.56445 0,-0.11399 -0.4445,-0.36799 -0.987778,-0.56444 -0.543278,-0.19645 -0.987778,-0.45045 -0.987778,-0.56445 0,-0.11399 -0.4445,-0.36799 -0.987778,-0.56444 -0.543278,-0.19645 -0.987778,-0.43138 -0.987778,-0.52206 0,-0.0907 -0.725849,-0.54141 -1.612999,-1.00164 -0.88715,-0.46022 -1.78503,-0.99532 -1.995291,-1.18912 -0.21026,-0.19379 -0.69091,-0.42981 -1.068111,-0.52448 -0.377202,-0.0947 -0.685821,-0.27714 -0.685821,-0.40549 0,-0.12835 -0.4445,-0.39409 -0.987778,-0.59055 -0.543278,-0.19645 -0.987778,-0.45045 -0.987778,-0.56444 0,-0.11399 -0.4445,-0.36799 -0.987777,-0.56444 -0.543278,-0.19646 -0.987778,-0.45046 -0.987778,-0.56445 0,-0.11399 -0.4445,-0.36799 -0.987778,-0.56444 -0.543278,-0.19645 -0.987778,-0.43138 -0.987778,-0.52206 0,-0.0907 -0.72585,-0.54141 -1.612999,-1.00164 -0.88715,-0.46022 -1.785031,-0.99532 -1.995291,-1.18912 -0.21026,-0.19379 -0.69091,-0.42981 -1.068112,-0.52448 -0.377201,-0.0947 -0.68582,-0.27714 -0.68582,-0.40549 0,-0.12835 -0.4445,-0.39409 -0.987778,-0.59055 -0.543278,-0.19645 -0.987778,-0.45045 -0.987778,-0.56444 0,-0.11399 -0.4445,-0.36799 -0.987778,-0.56445 -0.543277,-0.19645 -0.987777,-0.45045 -0.987777,-0.56444 0,-0.11399 -0.4445,-0.36799 -0.987778,-0.56444 -0.543278,-0.19646 -0.987778,-0.43138 -0.987778,-0.52206 0,-0.0907 -0.72585,-0.54142 -1.612999,-1.00164 -0.88715,-0.46022 -1.785031,-0.99533 -1.995291,-1.18912 -0.21026,-0.19379 -0.69091,-0.42981 -1.068112,-0.52448 -0.377201,-0.0947 -0.68582,-0.27715 -0.68582,-0.40549 0,-0.12835 -0.4445,-0.3941 -0.987778,-0.59055 -0.543278,-0.19645 -0.987778,-0.45045 -0.987778,-0.56444 0,-0.114 -0.4445,-0.368 -0.987778,-0.56445 -0.543278,-0.19645 -0.987778,-0.45045 -0.987778,-0.56444 0,-0.11399 -0.4445,-0.36799 -0.987777,-0.56445 -0.543278,-0.19645 -0.987778,-0.43137 -0.987778,-0.52205 0,-0.0907 -0.72585,-0.54142 -1.613,-1.00164 -0.887149,-0.46022 -1.78503,-0.99533 -1.99529,-1.18912 -0.21026,-0.1938 -0.690911,-0.42981 -1.068112,-0.52449 -0.377201,-0.0947 -0.685821,-0.27714 -0.685821,-0.40548 0,-0.12835 -0.4445,-0.3941 -0.987777,-0.59055 -0.543278,-0.19645 -0.987778,-0.45045 -0.987778,-0.56444 0,-0.114 -0.4445,-0.368 -0.987778,-0.56445 -0.543278,-0.19645 -0.987778,-0.45045 -0.987778,-0.56444 0,-0.114 -0.4445,-0.368 -0.987778,-0.56445 -0.543277,-0.19645 -0.987777,-0.43137 -0.987777,-0.52205 0,-0.0907 -0.72585,-0.54142 -1.613,-1.00164 -0.887149,-0.46022 -1.78503,-0.99533 -1.99529,-1.18912 -0.210261,-0.1938 -0.690911,-0.42982 -1.068112,-0.52449 -0.377202,-0.0947 -0.685821,-0.27714 -0.685821,-0.40549 0,-0.12834 -0.4445,-0.39409 -0.987778,-0.59054 -0.543277,-0.19645 -0.987777,-0.44327 -0.987777,-0.54847 0,-0.10521 -0.41275,-0.36009 -0.917223,-0.56639 -2.677884,-1.09512 -2.367735,-1.11752 14.227439,-1.02737 8.744881,0.0475 16.090284,0.15095 16.323118,0.22987 0.232833,0.0789 0.677333,0.28361 0.987778,0.45486 0.310444,0.17126 0.65806,0.32771 0.772479,0.34768 0.114419,0.02 0.800406,0.29022 1.524415,0.60057 0.724009,0.31035 1.519394,0.59849 1.767521,0.64033 0.248127,0.0418 0.73689,0.23307 1.08614,0.42497 0.34925,0.19189 0.635,0.27801 0.635,0.19136 0,-0.0866 0.3175,0.0505 0.705556,0.30475 0.388055,0.25426 0.705555,0.38126 0.705555,0.28222 0,-0.099 0.290025,0.01 0.6445,0.24222 0.354475,0.23226 0.894225,0.46364 1.199445,0.51419 0.305219,0.0505 0.840694,0.24891 1.189944,0.44081 0.34925,0.1919 0.635,0.27801 0.635,0.19136 0,-0.0866 0.3175,0.0505 0.705556,0.30475 0.388056,0.25427 0.705556,0.38127 0.705556,0.28222 0,-0.099 0.28575,-8e-4 0.635,0.21832 0.520607,0.32661 2.477448,1.07791 3.033889,1.16481 0.07761,0.0121 0.395111,0.16376 0.705555,0.33698 0.310445,0.17322 0.65806,0.33128 0.772479,0.35125 0.11442,0.02 0.800406,0.29022 1.524416,0.60057 0.724009,0.31035 1.519393,0.59849 1.76752,0.64033 0.248128,0.0418 0.736891,0.23307 1.086141,0.42497 0.34925,0.1919 0.635,0.27801 0.635,0.19136 0,-0.0867 0.3175,0.0505 0.705555,0.30475 0.388056,0.25426 0.705556,0.38126 0.705556,0.28222 0,-0.099 0.290025,0.01 0.6445,0.24222 0.354475,0.23226 0.894225,0.46365 1.199444,0.51419 0.30522,0.0505 0.840695,0.24891 1.189945,0.44081 0.34925,0.1919 0.635,0.27801 0.635,0.19136 0,-0.0867 0.3175,0.0505 0.705556,0.30475 0.388055,0.25427 0.705555,0.38127 0.705555,0.28223 0,-0.099 0.28575,-8.1e-4 0.635,0.21831 0.520608,0.32661 2.477449,1.07791 3.033889,1.16481 0.07761,0.0121 0.426861,0.18075 0.776111,0.37474 0.34925,0.19399 0.635,0.28181 0.635,0.19516 0,-0.0866 0.28575,0.0217 0.635,0.24084 0.520608,0.32662 2.477449,1.07792 3.033889,1.16482 0.07761,0.0121 0.395111,0.16376 0.705556,0.33698 0.310444,0.17322 0.65806,0.33128 0.772479,0.35125 0.114419,0.02 0.800408,0.29022 1.524418,0.60057 0.72401,0.31034 1.55286,0.60035 1.8419,0.64447 0.28904,0.0441 0.65208,0.20674 0.80675,0.36141 0.18087,0.18088 0.25503,4.95796 0.20783,13.38822 l -0.0734,13.107 z m 2.67199,-12.59477 c 0,-12.36168 0.033,-13.25851 0.49388,-13.42081 0.27164,-0.0956 0.90895,-0.34015 1.41624,-0.54332 0.50729,-0.20318 0.95179,-0.35347 0.98778,-0.33398 0.036,0.0195 0.38293,-0.14028 0.77098,-0.35504 0.38806,-0.21475 0.76906,-0.40038 0.84667,-0.4125 0.55644,-0.0869 2.51328,-0.8382 3.03389,-1.16481 0.34925,-0.21912 0.635,-0.32749 0.635,-0.24084 0,0.0867 0.28575,-0.001 0.635,-0.19516 0.34925,-0.19399 0.6985,-0.36263 0.77611,-0.37475 0.55644,-0.0869 2.51328,-0.83819 3.03389,-1.16481 0.34925,-0.21911 0.635,-0.31735 0.635,-0.21831 0,0.099 0.3175,-0.028 0.70556,-0.28222 0.38805,-0.25427 0.70555,-0.40235 0.70555,-0.32908 0,0.0733 0.47625,-0.0659 1.05833,-0.30926 1.5979,-0.66806 2.46,-0.98422 2.55488,-0.93697 0.047,0.0234 0.39624,-0.16109 0.77612,-0.41 0.37987,-0.2489 0.69067,-0.38165 0.69067,-0.295 0,0.0866 0.28575,4.4e-4 0.635,-0.19159 0.34925,-0.19202 0.762,-0.37438 0.91722,-0.40524 0.15523,-0.0308 0.66323,-0.20464 1.12889,-0.38619 0.46567,-0.18154 0.88511,-0.31093 0.9321,-0.28753 0.047,0.0234 0.39624,-0.1611 0.77612,-0.41 0.37987,-0.2489 0.69067,-0.38165 0.69067,-0.295 0,0.0866 0.28575,-0.001 0.635,-0.19516 0.34925,-0.19399 0.6985,-0.36263 0.77611,-0.37475 0.55644,-0.0869 2.51328,-0.83819 3.03389,-1.16481 0.34925,-0.21911 0.635,-0.32749 0.635,-0.24084 0,0.0866 0.28575,-0.001 0.635,-0.19516 0.34925,-0.19399 0.6985,-0.36262 0.77611,-0.37474 0.55644,-0.0869 2.51328,-0.8382 3.03389,-1.16482 0.34925,-0.21911 0.635,-0.31735 0.635,-0.21831 0,0.0991 0.3175,-0.0279 0.70556,-0.28222 0.38805,-0.25426 0.70555,-0.3914 0.70555,-0.30475 0,0.0866 0.28575,4.4e-4 0.635,-0.19159 0.34925,-0.19202 0.762,-0.37438 0.91723,-0.40524 0.15522,-0.0308 0.66322,-0.20464 1.12888,-0.38619 0.46567,-0.18154 0.88512,-0.31094 0.93211,-0.28753 0.047,0.0234 0.39624,-0.1611 0.77611,-0.41 0.37987,-0.24891 0.69067,-0.38166 0.69067,-0.29501 0,0.0867 0.28575,4.4e-4 0.635,-0.19158 0.34925,-0.19203 0.762,-0.37601 0.91723,-0.40886 0.15522,-0.0329 0.83793,-0.26121 1.51714,-0.50747 1.07132,-0.38841 3.2894,-0.44773 16.74183,-0.44773 16.86705,0 16.24288,-0.0733 13.12847,1.54232 -0.88715,0.46022 -1.613,0.93647 -1.613,1.05834 0,0.12186 -0.0952,0.1994 -0.21167,0.17231 -0.29748,-0.0692 -1.76389,0.66613 -1.76389,0.88452 0,0.0991 -0.4445,0.34096 -0.98777,0.53742 -0.54328,0.19645 -0.98778,0.45045 -0.98778,0.56444 0,0.11399 -0.4445,0.36799 -0.98778,0.56444 -0.54328,0.19646 -0.98778,0.4622 -0.98778,0.59055 0,0.12835 -0.30862,0.31082 -0.68582,0.40549 -0.3772,0.0947 -0.85785,0.33069 -1.06811,0.52448 -0.21026,0.1938 -1.10814,0.7289 -1.99529,1.18912 -0.88715,0.46023 -1.613,0.93648 -1.613,1.05834 0,0.12186 -0.0952,0.1994 -0.21167,0.17231 -0.29748,-0.0692 -1.76388,0.66613 -1.76388,0.88453 0,0.0991 -0.4445,0.34095 -0.98778,0.53741 -0.54328,0.19645 -0.98778,0.45045 -0.98778,0.56444 0,0.11399 -0.4445,0.36799 -0.98778,0.56445 -0.54328,0.19645 -0.98778,0.46219 -0.98778,0.59054 0,0.12835 -0.30861,0.31082 -0.68582,0.40549 -0.3772,0.0947 -0.85785,0.33069 -1.06811,0.52448 -0.21026,0.1938 -1.10814,0.7289 -1.99529,1.18913 -0.88715,0.46022 -1.613,0.93647 -1.613,1.05833 0,0.12186 -0.0952,0.1994 -0.21166,0.17231 -0.29749,-0.0692 -1.76389,0.66613 -1.76389,0.88453 0,0.0991 -0.4445,0.34096 -0.98778,0.53741 -0.54328,0.19645 -0.98778,0.45045 -0.98778,0.56444 0,0.11399 -0.4445,0.36799 -0.98778,0.56445 -0.54327,0.19645 -0.98777,0.46219 -0.98777,0.59054 0,0.12835 -0.30862,0.31082 -0.68583,0.40549 -0.3772,0.0947 -0.85785,0.33069 -1.06811,0.52448 -0.21026,0.1938 -1.10814,0.7289 -1.99529,1.18913 -0.88715,0.46022 -1.613,0.93647 -1.613,1.05833 0,0.12186 -0.0952,0.1994 -0.21166,0.17231 -0.29749,-0.0692 -1.76389,0.66613 -1.76389,0.88453 0,0.0991 -0.4445,0.34096 -0.98778,0.53741 -0.54328,0.19645 -0.98778,0.45045 -0.98778,0.56444 0,0.114 -0.4445,0.368 -0.98778,0.56445 -0.54327,0.19645 -0.98777,0.46219 -0.98777,0.59054 0,0.12835 -0.30862,0.31082 -0.68582,0.40549 -0.37721,0.0947 -0.85786,0.33069 -1.06812,0.52449 -0.21026,0.19379 -1.10814,0.7289 -1.99529,1.18912 -0.88715,0.46022 -1.613,0.93647 -1.613,1.05833 0,0.12186 -0.0952,0.1994 -0.21166,0.17232 -0.29749,-0.0692 -1.76389,0.66612 -1.76389,0.88452 0,0.0991 -0.4445,0.34096 -0.98778,0.53741 -0.54328,0.19645 -0.98778,0.45045 -0.98778,0.56444 0,0.114 -0.4445,0.368 -0.98778,0.56445 -0.54327,0.19645 -0.98777,0.4622 -0.98777,0.59054 0,0.12835 -0.30862,0.31082 -0.68582,0.40549 -0.37721,0.0947 -0.85786,0.33069 -1.06812,0.52449 -0.21026,0.19379 -1.10814,0.7289 -1.99529,1.18912 -0.88715,0.46022 -1.613,0.93647 -1.613,1.05833 0,0.12186 -0.0953,0.1994 -0.21166,0.17232 -0.29748,-0.0692 -1.76389,0.66612 -1.76389,0.88452 0,0.0991 -0.4445,0.34096 -0.98778,0.53741 -0.54328,0.19645 -0.98778,0.45045 -0.98778,0.56445 0,0.11399 -0.4445,0.36799 -0.98777,0.56444 -0.54328,0.19645 -0.98778,0.4622 -0.98778,0.59054 0,0.12835 -0.30862,0.31082 -0.68582,0.40549 -0.3772,0.0947 -0.85785,0.33069 -1.06811,0.52449 -0.21027,0.19379 -1.10815,0.7289 -1.9953,1.18912 -0.88714,0.46022 -1.61299,0.93647 -1.61299,1.05833 0,0.12186 -0.0952,0.19941 -0.21167,0.17232 -0.29748,-0.0692 -1.76389,0.66613 -1.76389,0.88452 0,0.0991 -0.4445,0.34096 -0.98778,0.53741 -0.54328,0.19645 -0.98778,0.46116 -0.98778,0.58823 0,0.12707 -0.254,0.29746 -0.56444,0.37864 -0.55852,0.14606 -0.56444,0.009 -0.56444,-13.09927 z m 77.29289,-67.90973 c -0.35105,-0.44762 -0.34107,-0.4576 0.10655,-0.10655 0.47011,0.36868 0.61961,0.60044 0.38734,0.60044 -0.0586,0 -0.28086,-0.22225 -0.49389,-0.49389 z m -5.92667,-5.64444 c -0.35105,-0.44762 -0.34107,-0.4576 0.10655,-0.10656 0.47012,0.36869 0.61962,0.60045 0.38734,0.60045 -0.0586,0 -0.28086,-0.22225 -0.49389,-0.49389 z m -5.92667,-5.64445 c -0.35104,-0.44762 -0.34106,-0.4576 0.10656,-0.10655 0.47011,0.36869 0.61961,0.60044 0.38733,0.60044 -0.0586,0 -0.28085,-0.22225 -0.49389,-0.49389 z M 45.084998,127.86359 c 0,-0.0586 0.22225,-0.28086 0.493889,-0.49389 0.44762,-0.35105 0.457602,-0.34107 0.106554,0.10655 -0.368686,0.47011 -0.600443,0.61961 -0.600443,0.38734 z m 119.908452,-0.66956 c -0.35105,-0.44762 -0.34107,-0.4576 0.10655,-0.10656 0.27164,0.21304 0.49389,0.43529 0.49389,0.49389 0,0.23228 -0.23176,0.0828 -0.60044,-0.38733 z M 51.011665,122.21914 c 0,-0.0586 0.22225,-0.28085 0.493889,-0.49389 0.44762,-0.35105 0.457602,-0.34106 0.106554,0.10656 -0.368686,0.47011 -0.600443,0.61961 -0.600443,0.38733 z m 108.055115,-0.66956 c -0.35105,-0.44762 -0.34107,-0.4576 0.10655,-0.10655 0.47012,0.36869 0.61962,0.60044 0.38734,0.60044 -0.0586,0 -0.28086,-0.22225 -0.49389,-0.49389 z M 56.938332,116.5747 c 0,-0.0586 0.22225,-0.28086 0.493889,-0.49389 0.44762,-0.35105 0.457602,-0.34107 0.106554,0.10655 -0.368687,0.47011 -0.600443,0.61961 -0.600443,0.38734 z m 96.201778,-0.66956 c -0.35104,-0.44762 -0.34106,-0.4576 0.10656,-0.10656 0.47011,0.36869 0.61961,0.60045 0.38733,0.60045 -0.0586,0 -0.28085,-0.22225 -0.49389,-0.49389 z m -90.275112,-4.97489 c 0,-0.0586 0.222251,-0.28085 0.493889,-0.49389 0.447621,-0.35105 0.457603,-0.34106 0.106555,0.10656 -0.368687,0.47011 -0.600444,0.61961 -0.600444,0.38733 z m 84.348452,-0.66956 c -0.35105,-0.44762 -0.34107,-0.4576 0.10655,-0.10655 0.47011,0.36869 0.61961,0.60044 0.38734,0.60044 -0.0586,0 -0.28086,-0.22225 -0.49389,-0.49389 z m -78.421785,-4.97488 c 0,-0.0586 0.22225,-0.28086 0.493889,-0.49389 0.44762,-0.35105 0.457603,-0.34107 0.106555,0.10655 -0.368687,0.47011 -0.600444,0.61962 -0.600444,0.38734 z m 72.495115,-0.66956 c -0.35105,-0.44762 -0.34107,-0.4576 0.10655,-0.10655 0.47012,0.36868 0.61962,0.60044 0.38734,0.60044 -0.0586,0 -0.28086,-0.22225 -0.49389,-0.49389 z M 74.718332,99.641362 c 0,-0.05861 0.22225,-0.280855 0.493889,-0.493889 0.44762,-0.351048 0.457602,-0.341065 0.106555,0.106555 -0.368687,0.470111 -0.600444,0.619613 -0.600444,0.387334 z m 60.641778,-0.669556 c -0.35105,-0.447621 -0.34106,-0.457603 0.10656,-0.106555 0.27164,0.213034 0.49389,0.435284 0.49389,0.493889 0,0.232279 -0.23176,0.08278 -0.60045,-0.387334 z M 80.644999,93.996918 c 0,-0.05861 0.22225,-0.280855 0.493889,-0.493889 0.44762,-0.351048 0.457602,-0.341066 0.106554,0.106554 -0.368686,0.470111 -0.600443,0.619613 -0.600443,0.387335 z m 48.788451,-0.669557 c -0.35105,-0.44762 -0.34107,-0.457602 0.10655,-0.106554 0.47011,0.368686 0.61961,0.600443 0.38733,0.600443 -0.0586,0 -0.28085,-0.22225 -0.49388,-0.493889 z M 86.571666,88.352473 c 0,-0.05861 0.22225,-0.280855 0.493889,-0.493889 0.44762,-0.351048 0.457602,-0.341066 0.106554,0.106555 -0.368686,0.470111 -0.600443,0.619613 -0.600443,0.387334 z m 36.935114,-0.669557 c -0.35105,-0.44762 -0.34107,-0.457602 0.10655,-0.106554 0.47011,0.368687 0.61962,0.600443 0.38734,0.600443 -0.0586,0 -0.28086,-0.22225 -0.49389,-0.493889 z M 92.498333,82.708028 c 0,-0.05861 0.22225,-0.280855 0.493889,-0.493888 0.44762,-0.351048 0.457602,-0.341066 0.106554,0.106554 -0.368687,0.470111 -0.600443,0.619613 -0.600443,0.387334 z m 25.081777,-0.669556 c -0.35105,-0.44762 -0.34106,-0.457603 0.10656,-0.106555 0.47011,0.368687 0.61961,0.600444 0.38733,0.600444 -0.0586,0 -0.28085,-0.22225 -0.49389,-0.493889 z M 98.424999,77.063584 c 0,-0.05861 0.22225,-0.280855 0.493889,-0.493889 0.447621,-0.351048 0.457603,-0.341066 0.106555,0.106554 -0.368687,0.470112 -0.600444,0.619613 -0.600444,0.387335 z m 13.228451,-0.669557 c -0.35105,-0.44762 -0.34107,-0.457602 0.10655,-0.106554 0.47011,0.368686 0.61961,0.600443 0.38733,0.600443 -0.0586,0 -0.28085,-0.22225 -0.49388,-0.493889 z m -5.92667,-5.644444 c -0.35105,-0.447621 -0.34107,-0.457603 0.10655,-0.106555 0.47011,0.368687 0.61962,0.600444 0.38734,0.600444 -0.0586,0 -0.28086,-0.222251 -0.49389,-0.493889 z"
         id="path18" /><path
         style="fill:#505050"
         d="m 34.57222,180.81643 c 4.385028,-0.0437 11.560528,-0.0437 15.945556,0 4.385028,0.0437 0.797278,0.0795 -7.972778,0.0795 -8.770056,0 -12.357806,-0.0358 -7.972778,-0.0795 z m 124.46,0 c 4.38503,-0.0437 11.56053,-0.0437 15.94556,0 4.38503,0.0437 0.79728,0.0795 -7.97278,0.0795 -8.77005,0 -12.3578,-0.0358 -7.97278,-0.0795 z M 25.470553,145.1857 c 0.280948,-0.31045 0.574315,-0.56445 0.651926,-0.56445 0.07761,0 -0.08875,0.254 -0.369704,0.56445 -0.280948,0.31044 -0.574315,0.56444 -0.651926,0.56444 -0.07761,0 0.08876,-0.254 0.369704,-0.56444 z m 158.149557,-0.21167 c -0.35104,-0.44762 -0.34106,-0.4576 0.10656,-0.10656 0.47011,0.36869 0.61961,0.60045 0.38733,0.60045 -0.0586,0 -0.28085,-0.22225 -0.49389,-0.49389 z M 28.151664,143.95025 c 0,-0.0586 0.22225,-0.28085 0.493889,-0.49389 0.44762,-0.35104 0.457603,-0.34106 0.106555,0.10656 -0.368687,0.47011 -0.600444,0.61961 -0.600444,0.38733 z m 152.378646,-0.66955 -0.6842,-0.77612 0.77611,0.6842 c 0.42686,0.37631 0.77611,0.72556 0.77611,0.77611 0,0.22134 -0.22854,0.0412 -0.86802,-0.68419 z M 31.39722,139.54125 c 0.280948,-0.31044 0.574315,-0.56444 0.651926,-0.56444 0.07761,0 -0.08876,0.254 -0.369704,0.56444 -0.280948,0.31045 -0.574315,0.56445 -0.651926,0.56445 -0.07761,0 0.08876,-0.254 0.369704,-0.56445 z m 146.29623,-0.21167 c -0.35105,-0.44762 -0.34107,-0.4576 0.10655,-0.10655 0.47011,0.36869 0.61961,0.60044 0.38734,0.60044 -0.0586,0 -0.28086,-0.22225 -0.49389,-0.49389 z M 34.078331,138.30581 c 0,-0.0586 0.22225,-0.28086 0.493889,-0.49389 0.44762,-0.35105 0.457602,-0.34107 0.106554,0.10655 -0.368686,0.47011 -0.600443,0.61962 -0.600443,0.38734 z m 140.525309,-0.66956 -0.68419,-0.77611 0.77611,0.6842 c 0.42686,0.3763 0.77611,0.72555 0.77611,0.77611 0,0.22134 -0.22855,0.0412 -0.86803,-0.6842 z M 37.323887,133.89681 c 0.280948,-0.31045 0.574315,-0.56445 0.651926,-0.56445 0.07761,0 -0.08876,0.254 -0.369704,0.56445 -0.280948,0.31044 -0.574315,0.56444 -0.651926,0.56444 -0.07761,0 0.08875,-0.254 0.369704,-0.56444 z m 134.442893,-0.21167 c -0.35105,-0.44762 -0.34107,-0.4576 0.10655,-0.10655 0.47012,0.36868 0.61962,0.60044 0.38734,0.60044 -0.0586,0 -0.28086,-0.22225 -0.49389,-0.49389 z M 40.004998,132.66136 c 0,-0.0586 0.22225,-0.28085 0.493889,-0.49389 0.44762,-0.35104 0.457602,-0.34106 0.106554,0.10656 -0.368686,0.47011 -0.600443,0.61961 -0.600443,0.38733 z m 128.671972,-0.66955 -0.68419,-0.77611 0.77611,0.68419 c 0.42686,0.37631 0.77611,0.72556 0.77611,0.77611 0,0.22134 -0.22854,0.0412 -0.86803,-0.68419 z M 43.250554,128.25236 c 0.280948,-0.31044 0.574315,-0.56444 0.651926,-0.56444 0.07761,0 -0.08876,0.254 -0.369704,0.56444 -0.280949,0.31045 -0.574315,0.56445 -0.651927,0.56445 -0.07761,0 0.08876,-0.254 0.369705,-0.56445 z M 165.84011,128.0407 c -0.35104,-0.44762 -0.34106,-0.45761 0.10656,-0.10656 0.27164,0.21303 0.49389,0.43528 0.49389,0.49389 0,0.23228 -0.23176,0.0828 -0.60045,-0.38733 z M 45.931665,127.01692 c 0,-0.0586 0.22225,-0.28086 0.493889,-0.49389 0.44762,-0.35105 0.457602,-0.34107 0.106554,0.10655 -0.368686,0.47012 -0.600443,0.61962 -0.600443,0.38734 z m 116.954295,-0.52845 -0.53763,-0.635 0.635,0.53763 c 0.34925,0.2957 0.635,0.58145 0.635,0.635 0,0.22585 -0.22713,0.0591 -0.73237,-0.53763 z M 49.17722,122.60792 c 0.280949,-0.31045 0.574316,-0.56445 0.651927,-0.56445 0.07761,0 -0.08876,0.254 -0.369704,0.56445 -0.280949,0.31044 -0.574316,0.56444 -0.651927,0.56444 -0.07761,0 0.08876,-0.254 0.369704,-0.56444 z m 110.73623,-0.21167 c -0.35105,-0.44762 -0.34107,-0.4576 0.10655,-0.10655 0.47011,0.36868 0.61961,0.60044 0.38734,0.60044 -0.0586,0 -0.28086,-0.22225 -0.49389,-0.49389 z M 51.858332,121.37247 c 0,-0.0586 0.22225,-0.28085 0.493888,-0.49388 0.447621,-0.35105 0.457603,-0.34107 0.106555,0.10655 -0.368687,0.47011 -0.600443,0.61961 -0.600443,0.38733 z m 105.100968,-0.52844 -0.53763,-0.635 0.635,0.53763 c 0.34925,0.29569 0.635,0.58144 0.635,0.635 0,0.22585 -0.22713,0.0591 -0.73237,-0.53763 z M 55.103887,116.96347 c 0.280949,-0.31044 0.574315,-0.56444 0.651927,-0.56444 0.07761,0 -0.08876,0.254 -0.369705,0.56444 -0.280948,0.31045 -0.574315,0.56445 -0.651926,0.56445 -0.07761,0 0.08876,-0.254 0.369704,-0.56445 z m 98.882893,-0.21166 c -0.35105,-0.44762 -0.34107,-0.45761 0.10655,-0.10656 0.27164,0.21304 0.49389,0.43529 0.49389,0.49389 0,0.23228 -0.23175,0.0828 -0.60044,-0.38733 z m -96.201782,-1.02378 c 0,-0.0586 0.22225,-0.28086 0.493889,-0.49389 0.44762,-0.35105 0.457603,-0.34107 0.106555,0.10656 -0.368687,0.47011 -0.600444,0.61961 -0.600444,0.38733 z m 93.247632,-0.52845 -0.53763,-0.635 0.635,0.53763 c 0.34925,0.2957 0.635,0.58145 0.635,0.635 0,0.22585 -0.22713,0.0591 -0.73237,-0.53763 z m -90.002076,-3.88055 c 0.280948,-0.31045 0.574315,-0.56445 0.651926,-0.56445 0.07761,0 -0.08875,0.254 -0.369704,0.56445 -0.280948,0.31044 -0.574315,0.56444 -0.651926,0.56444 -0.07761,0 0.08876,-0.254 0.369704,-0.56444 z m 87.029556,-0.21167 c -0.35105,-0.44762 -0.34106,-0.4576 0.10656,-0.10655 0.47011,0.36868 0.61961,0.60044 0.38733,0.60044 -0.0586,0 -0.28085,-0.22225 -0.49389,-0.49389 z m -84.348445,-1.02378 c 0,-0.0586 0.22225,-0.28085 0.493889,-0.49388 0.44762,-0.35105 0.457603,-0.34107 0.106555,0.10655 -0.368687,0.47011 -0.600444,0.61961 -0.600444,0.38733 z m 81.394295,-0.52844 -0.53763,-0.635 0.635,0.53763 c 0.59675,0.50524 0.76348,0.73237 0.53763,0.73237 -0.0536,0 -0.3393,-0.28575 -0.635,-0.635 z m -78.148739,-3.88056 c 0.280948,-0.31044 0.574315,-0.56444 0.651926,-0.56444 0.07761,0 -0.08876,0.254 -0.369704,0.56444 -0.280948,0.31045 -0.574315,0.56445 -0.651926,0.56445 -0.07761,0 0.08875,-0.254 0.369704,-0.56445 z m 75.176229,-0.21166 c -0.35105,-0.44762 -0.34107,-0.45761 0.10655,-0.10656 0.27164,0.21304 0.49389,0.43529 0.49389,0.49389 0,0.23228 -0.23176,0.0828 -0.60044,-0.38733 z m -72.495118,-1.02378 c 0,-0.0586 0.22225,-0.28085 0.493889,-0.49389 0.44762,-0.35105 0.457602,-0.34106 0.106554,0.10656 -0.368686,0.47011 -0.600443,0.61961 -0.600443,0.38733 z m 69.540968,-0.52845 -0.53763,-0.635 0.635,0.53763 c 0.59674,0.50524 0.76348,0.73237 0.53763,0.73237 -0.0536,0 -0.33931,-0.28575 -0.635,-0.635 z m -66.295412,-3.88055 c 0.280948,-0.310445 0.574315,-0.564445 0.651926,-0.564445 0.07761,0 -0.08876,0.254 -0.369704,0.564445 -0.280948,0.31044 -0.574315,0.56444 -0.651926,0.56444 -0.07761,0 0.08876,-0.254 0.369704,-0.56444 z m 63.322892,-0.211668 c -0.35105,-0.44762 -0.34107,-0.457602 0.10655,-0.106554 0.47011,0.368682 0.61962,0.600442 0.38734,0.600442 -0.0586,0 -0.28086,-0.22225 -0.49389,-0.493888 z M 75.564999,98.794696 c 0,-0.05861 0.22225,-0.280855 0.493889,-0.493889 0.44762,-0.351048 0.457602,-0.341066 0.106554,0.106554 -0.368686,0.470111 -0.600443,0.619613 -0.600443,0.387335 z m 57.687631,-0.528446 -0.53763,-0.635 0.635,0.53763 c 0.59674,0.505239 0.76348,0.73237 0.53763,0.73237 -0.0536,0 -0.3393,-0.28575 -0.635,-0.635 z M 78.810554,94.385694 c 0.280949,-0.310444 0.574316,-0.564444 0.651927,-0.564444 0.07761,0 -0.08876,0.254 -0.369704,0.564444 -0.280949,0.310445 -0.574316,0.564445 -0.651927,0.564445 -0.07761,0 0.08876,-0.254 0.369704,-0.564445 z m 51.469556,-0.211666 c -0.35105,-0.44762 -0.34106,-0.457603 0.10656,-0.106555 0.47011,0.368687 0.61961,0.600444 0.38733,0.600444 -0.0586,0 -0.28085,-0.22225 -0.49389,-0.493889 z M 81.491666,93.150251 c 0,-0.05861 0.22225,-0.280855 0.493889,-0.493889 0.44762,-0.351048 0.457602,-0.341066 0.106554,0.106555 -0.368687,0.470111 -0.600443,0.619613 -0.600443,0.387334 z m 45.834294,-0.528446 -0.53763,-0.635 0.635,0.53763 c 0.59675,0.50524 0.76348,0.73237 0.53763,0.73237 -0.0536,0 -0.3393,-0.28575 -0.635,-0.635 z M 84.737221,88.74125 c 0.280949,-0.310445 0.574316,-0.564445 0.651927,-0.564445 0.07761,0 -0.08876,0.254 -0.369704,0.564445 -0.280949,0.310444 -0.574316,0.564444 -0.651927,0.564444 -0.07761,0 0.08876,-0.254 0.369704,-0.564444 z m 39.616229,-0.211667 c -0.35105,-0.44762 -0.34107,-0.457602 0.10655,-0.106554 0.47011,0.368686 0.61961,0.600443 0.38733,0.600443 -0.0586,0 -0.28085,-0.22225 -0.49388,-0.493889 z M 87.418332,87.505806 c 0,-0.05861 0.22225,-0.280855 0.493889,-0.493889 0.447621,-0.351047 0.457603,-0.341065 0.106555,0.106555 -0.368687,0.470111 -0.600444,0.619613 -0.600444,0.387334 z m 33.980968,-0.528445 -0.53763,-0.635 0.635,0.53763 c 0.34925,0.295696 0.635,0.581446 0.635,0.635 0,0.225849 -0.22713,0.05911 -0.73237,-0.53763 z M 90.663888,83.096805 c 0.280948,-0.310444 0.574315,-0.564444 0.651926,-0.564444 0.07761,0 -0.08876,0.254 -0.369704,0.564444 -0.280948,0.310445 -0.574315,0.564445 -0.651926,0.564445 -0.07761,0 0.08876,-0.254 0.369704,-0.564445 z m 27.762892,-0.211666 c -0.35105,-0.447621 -0.34107,-0.457603 0.10655,-0.106555 0.47011,0.368687 0.61962,0.600443 0.38734,0.600443 -0.0586,0 -0.28086,-0.22225 -0.49389,-0.493888 z M 93.344999,81.861362 c 0,-0.05861 0.22225,-0.280855 0.493889,-0.493889 0.44762,-0.351048 0.457603,-0.341066 0.106555,0.106554 -0.368687,0.470111 -0.600444,0.619613 -0.600444,0.387335 z m 22.127631,-0.528446 -0.53763,-0.635 0.635,0.53763 c 0.34925,0.295696 0.635,0.581446 0.635,0.635 0,0.225849 -0.22713,0.05911 -0.73237,-0.53763 z M 96.590555,77.452361 c 0.280948,-0.310445 0.574315,-0.564445 0.651926,-0.564445 0.07761,0 -0.08875,0.254 -0.369704,0.564445 -0.280948,0.310444 -0.574315,0.564444 -0.651926,0.564444 -0.07761,0 0.08876,-0.254 0.369704,-0.564444 z m 15.909555,-0.211667 c -0.35105,-0.44762 -0.34106,-0.457603 0.10656,-0.106555 0.47011,0.368687 0.61961,0.600444 0.38733,0.600444 -0.0586,0 -0.28085,-0.22225 -0.49389,-0.493889 z M 99.271666,76.216917 c 0,-0.05861 0.22225,-0.280855 0.493889,-0.493889 0.447625,-0.351048 0.457605,-0.341065 0.106555,0.106555 -0.368687,0.470111 -0.600444,0.619613 -0.600444,0.387334 z m 10.274294,-0.528445 -0.53763,-0.635 0.635,0.537629 c 0.34925,0.295697 0.635,0.581447 0.635,0.635 0,0.22585 -0.22713,0.05911 -0.73237,-0.537629 z m -7.02874,-3.880556 c 0.28095,-0.310444 0.57432,-0.564444 0.65193,-0.564444 0.0776,0 -0.0888,0.254 -0.36971,0.564444 -0.28094,0.310444 -0.57431,0.564444 -0.65192,0.564444 -0.0776,0 0.0888,-0.254 0.3697,-0.564444 z m 4.05623,-0.211667 c -0.35105,-0.44762 -0.34107,-0.457602 0.10655,-0.106554 0.47011,0.368686 0.61961,0.600443 0.38733,0.600443 -0.0586,0 -0.28085,-0.22225 -0.49388,-0.493889 z"
         id="path17" /><path
         style="fill:#303030"
         d="m 25.176779,179.82847 c -0.07422,-0.19402 -0.100933,-7.71877 -0.05936,-16.72166 l 0.07559,-16.36889 0.06822,16.57828 0.06822,16.57828 16.439445,0.0752 16.439445,0.0752 -16.448303,0.0682 c -12.949168,0.0537 -16.47701,-0.007 -16.58325,-0.28455 z m 142.672601,0.14228 16.36667,-0.0763 0.0762,-16.43717 0.0762,-16.43717 -0.003,16.51 -0.003,16.51 -16.43947,0.003 -16.43948,0.003 z M 28.998331,143.12183 c 0,-0.0486 0.41275,-0.46132 0.917222,-0.91722 l 0.917222,-0.82891 -0.828912,0.91722 c -0.772663,0.85498 -1.005532,1.04694 -1.005532,0.82891 z m 150.120869,-1.25225 -0.6842,-0.77611 0.77611,0.6842 c 0.42686,0.37631 0.77611,0.72556 0.77611,0.77611 0,0.22134 -0.22854,0.0412 -0.86802,-0.6842 z M 30.12722,140.81125 c 0.364559,-0.38805 0.726335,-0.70555 0.803946,-0.70555 0.07761,0 -0.157165,0.3175 -0.521724,0.70555 -0.364559,0.38806 -0.726335,0.70556 -0.803946,0.70556 -0.07761,0 0.157165,-0.3175 0.521724,-0.70556 z m 148.70975,-0.35278 -0.68419,-0.77611 0.77611,0.6842 c 0.42686,0.37631 0.77611,0.72556 0.77611,0.77611 0,0.22134 -0.22854,0.0412 -0.86803,-0.6842 z M 34.924998,137.47739 c 0,-0.0486 0.41275,-0.46132 0.917222,-0.91723 l 0.917222,-0.82891 -0.828912,0.91722 c -0.772663,0.85498 -1.005532,1.04695 -1.005532,0.82892 z m 138.267532,-1.25225 -0.6842,-0.77611 0.77612,0.68419 c 0.42686,0.37631 0.77611,0.72556 0.77611,0.77612 0,0.22134 -0.22855,0.0412 -0.86803,-0.6842 z M 36.053887,135.16681 c 0.364559,-0.38806 0.726335,-0.70556 0.803946,-0.70556 0.07761,0 -0.157165,0.3175 -0.521724,0.70556 -0.364559,0.38805 -0.726335,0.70555 -0.803946,0.70555 -0.07761,0 0.157164,-0.3175 0.521724,-0.70555 z m 136.856423,-0.35278 -0.6842,-0.77611 0.77611,0.68419 c 0.42686,0.37631 0.77611,0.72556 0.77611,0.77611 0,0.22134 -0.22854,0.0412 -0.86802,-0.68419 z M 40.851665,131.83294 c 0,-0.0486 0.41275,-0.46132 0.917222,-0.91722 l 0.917222,-0.82891 -0.828912,0.91722 c -0.772663,0.85498 -1.005532,1.04694 -1.005532,0.82891 z m 126.414195,-1.25224 -0.68419,-0.77612 0.77611,0.6842 c 0.72539,0.63948 0.90553,0.86803 0.68419,0.86803 -0.0505,0 -0.3998,-0.34925 -0.77611,-0.77611 z M 41.980553,129.52236 c 0.36456,-0.38805 0.726336,-0.70555 0.803947,-0.70555 0.07761,0 -0.157165,0.3175 -0.521724,0.70555 -0.36456,0.38806 -0.726335,0.70556 -0.803946,0.70556 -0.07761,0 0.157164,-0.3175 0.521723,-0.70556 z m 125.003087,-0.35278 -0.68419,-0.77611 0.77611,0.6842 c 0.72539,0.63948 0.90553,0.86803 0.68419,0.86803 -0.0505,0 -0.3998,-0.34925 -0.77611,-0.77612 z M 46.778331,126.1885 c 0,-0.0486 0.41275,-0.46132 0.917223,-0.91723 l 0.917222,-0.82891 -0.828913,0.91722 c -0.772662,0.85498 -1.005532,1.04695 -1.005532,0.82892 z m 114.705579,-1.11114 -0.82891,-0.91722 0.91722,0.82891 c 0.85498,0.77266 1.04695,1.00553 0.82892,1.00553 -0.0486,0 -0.46132,-0.41275 -0.91723,-0.91722 z M 47.90722,123.87792 c 0.36456,-0.38806 0.726335,-0.70556 0.803946,-0.70556 0.07761,0 -0.157164,0.3175 -0.521723,0.70556 -0.36456,0.38805 -0.726335,0.70555 -0.803947,0.70555 -0.07761,0 0.157165,-0.3175 0.521724,-0.70555 z m 113.14975,-0.35278 -0.68419,-0.77611 0.77611,0.68419 c 0.72539,0.63949 0.90553,0.86803 0.6842,0.86803 -0.0506,0 -0.39981,-0.34925 -0.77612,-0.77611 z M 52.704998,120.54405 c 0,-0.0486 0.41275,-0.46132 0.917222,-0.91722 l 0.917223,-0.82891 -0.828913,0.91722 c -0.772662,0.85498 -1.005532,1.04695 -1.005532,0.82891 z m 102.852252,-1.11113 -0.82892,-0.91722 0.91723,0.82891 c 0.50447,0.4559 0.91722,0.86865 0.91722,0.91722 0,0.21803 -0.23287,0.0261 -1.00553,-0.82891 z M 53.833887,118.23347 c 0.364559,-0.38805 0.726335,-0.70555 0.803946,-0.70555 0.07761,0 -0.157164,0.3175 -0.521724,0.70555 -0.364559,0.38806 -0.726335,0.70556 -0.803946,0.70556 -0.07761,0 0.157165,-0.3175 0.521724,-0.70556 z m 101.296423,-0.35277 -0.6842,-0.77612 0.77611,0.6842 c 0.42686,0.37631 0.77611,0.72556 0.77611,0.77611 0,0.22134 -0.22854,0.0412 -0.86802,-0.68419 z m -96.498645,-2.98109 c 0,-0.0486 0.41275,-0.46132 0.917222,-0.91722 l 0.917223,-0.82892 -0.828913,0.91722 c -0.772662,0.85498 -1.005532,1.04695 -1.005532,0.82892 z m 90.998915,-1.11114 -0.82891,-0.91722 0.91722,0.82891 c 0.85498,0.77267 1.04695,1.00553 0.82891,1.00553 -0.0486,0 -0.46132,-0.41275 -0.91722,-0.91722 z m -89.870026,-1.19944 c 0.364559,-0.38806 0.726335,-0.70556 0.803946,-0.70556 0.07761,0 -0.157165,0.3175 -0.521724,0.70556 -0.364559,0.38805 -0.726335,0.70555 -0.803946,0.70555 -0.07761,0 0.157165,-0.3175 0.521724,-0.70555 z m 89.443086,-0.35278 -0.68419,-0.77611 0.77611,0.68419 c 0.72539,0.63949 0.90553,0.86803 0.68419,0.86803 -0.0505,0 -0.3998,-0.34925 -0.77611,-0.77611 z m -84.645308,-2.98109 c 0,-0.0486 0.41275,-0.46132 0.917222,-0.91722 l 0.917222,-0.82891 -0.828912,0.91722 c -0.772663,0.85498 -1.005532,1.04695 -1.005532,0.82891 z m 79.145578,-1.11113 -0.82891,-0.91722 0.91722,0.82891 c 0.85498,0.77266 1.04695,1.00553 0.82892,1.00553 -0.0486,0 -0.46133,-0.41275 -0.91723,-0.91722 z m -78.016689,-1.19945 c 0.364559,-0.38805 0.726335,-0.70555 0.803946,-0.70555 0.07761,0 -0.157165,0.3175 -0.521724,0.70555 -0.364559,0.38806 -0.726335,0.70556 -0.803946,0.70556 -0.07761,0 0.157165,-0.3175 0.521724,-0.70556 z m 77.589749,-0.35277 -0.68419,-0.77612 0.77611,0.6842 c 0.72539,0.63948 0.90553,0.86803 0.68419,0.86803 -0.0505,0 -0.3998,-0.34925 -0.77611,-0.77611 z m -72.791971,-2.98109 c 0,-0.0486 0.41275,-0.46132 0.917222,-0.91722 l 0.917222,-0.82892 -0.828912,0.91723 c -0.772663,0.85498 -1.005532,1.04694 -1.005532,0.82891 z m 67.292251,-1.11114 -0.82892,-0.91722 0.91723,0.82891 c 0.50447,0.45591 0.91722,0.86866 0.91722,0.91723 0,0.21803 -0.23287,0.0261 -1.00553,-0.82892 z m -66.163362,-1.19944 c 0.364559,-0.38806 0.726335,-0.70556 0.803946,-0.70556 0.07761,0 -0.157165,0.3175 -0.521724,0.70556 -0.364559,0.38805 -0.726335,0.70555 -0.803946,0.70555 -0.07761,0 0.157164,-0.3175 0.521724,-0.70555 z m 65.736422,-0.35278 -0.6842,-0.77611 0.77611,0.6842 c 0.42686,0.3763 0.77611,0.72555 0.77611,0.77611 0,0.22134 -0.22854,0.0412 -0.86802,-0.6842 z M 76.411666,97.966274 c 0,-0.04857 0.41275,-0.461321 0.917222,-0.917223 l 0.917222,-0.828912 -0.828912,0.917222 c -0.772663,0.85498 -1.005532,1.046946 -1.005532,0.828913 z m 55.438914,-1.111135 -0.82891,-0.917222 0.91722,0.828912 c 0.85498,0.772663 1.04695,1.005532 0.82891,1.005532 -0.0486,0 -0.46132,-0.41275 -0.91722,-0.917222 z M 77.540554,95.655694 c 0.36456,-0.388055 0.726335,-0.705555 0.803947,-0.705555 0.07761,0 -0.157165,0.3175 -0.521724,0.705555 -0.36456,0.388056 -0.726335,0.705556 -0.803946,0.705556 -0.07761,0 0.157164,-0.3175 0.521723,-0.705556 z m 53.883086,-0.352777 -0.6842,-0.776111 0.77612,0.684195 c 0.72539,0.639483 0.90553,0.868027 0.68419,0.868027 -0.0505,0 -0.3998,-0.34925 -0.77611,-0.776111 z M 82.338332,92.321829 c 0,-0.04857 0.41275,-0.46132 0.917223,-0.917222 l 0.917222,-0.828913 -0.828913,0.917223 c -0.772662,0.854979 -1.005532,1.046946 -1.005532,0.828912 z m 43.585578,-1.111135 -0.82891,-0.917222 0.91722,0.828912 c 0.85498,0.772663 1.04695,1.005533 0.82891,1.005533 -0.0486,0 -0.46132,-0.41275 -0.91722,-0.917223 z M 83.467221,90.01125 c 0.36456,-0.388056 0.726335,-0.705556 0.803946,-0.705556 0.07761,0 -0.157164,0.3175 -0.521723,0.705556 -0.36456,0.388055 -0.726336,0.705555 -0.803947,0.705555 -0.07761,0 0.157165,-0.3175 0.521724,-0.705555 z m 42.029749,-0.352778 -0.68419,-0.776111 0.77611,0.684195 c 0.42686,0.376308 0.77611,0.725558 0.77611,0.776111 0,0.22134 -0.22854,0.0412 -0.86803,-0.684195 z M 88.264999,86.677384 c 0,-0.04857 0.41275,-0.46132 0.917222,-0.917222 l 0.917223,-0.828912 -0.828913,0.917222 c -0.772662,0.85498 -1.005532,1.046946 -1.005532,0.828912 z m 31.732251,-1.111134 -0.82892,-0.917223 0.91723,0.828913 c 0.50447,0.455902 0.91722,0.868652 0.91722,0.917222 0,0.218034 -0.23287,0.02607 -1.00553,-0.828912 z M 89.393888,84.366805 c 0.364559,-0.388055 0.726335,-0.705555 0.803946,-0.705555 0.07761,0 -0.157164,0.3175 -0.521724,0.705555 -0.364559,0.388056 -0.726335,0.705556 -0.803946,0.705556 -0.07761,0 0.157165,-0.3175 0.521724,-0.705556 z m 30.176422,-0.352778 -0.6842,-0.776111 0.77611,0.684196 c 0.42686,0.376307 0.77611,0.725557 0.77611,0.776111 0,0.221339 -0.22854,0.0412 -0.86802,-0.684196 z M 94.191666,81.03294 c 0,-0.04857 0.41275,-0.461321 0.917222,-0.917223 l 0.917222,-0.828912 -0.828912,0.917222 c -0.772662,0.85498 -1.005532,1.046946 -1.005532,0.828913 z m 19.878914,-1.111135 -0.82891,-0.917222 0.91722,0.828912 c 0.50447,0.455902 0.91722,0.868652 0.91722,0.917223 0,0.218033 -0.23287,0.02607 -1.00553,-0.828913 z M 95.320555,78.722361 c 0.364559,-0.388056 0.726335,-0.705556 0.803946,-0.705556 0.07761,0 -0.157165,0.3175 -0.521724,0.705556 -0.364559,0.388055 -0.726335,0.705555 -0.803946,0.705555 -0.07761,0 0.157165,-0.3175 0.521724,-0.705555 z m 18.323085,-0.352778 -0.6842,-0.776111 0.77612,0.684195 c 0.42686,0.376307 0.77611,0.725557 0.77611,0.776111 0,0.22134 -0.22855,0.0412 -0.86803,-0.684195 z m -13.52531,-2.981088 c 0,-0.04857 0.41275,-0.46132 0.91723,-0.917222 l 0.91722,-0.828913 -0.82892,0.917223 c -0.77266,0.854979 -1.00553,1.046946 -1.00553,0.828912 z m 8.02558,-1.111135 -0.82891,-0.917222 0.91722,0.828913 c 0.50447,0.455901 0.91722,0.868652 0.91722,0.917222 0,0.218034 -0.23287,0.02607 -1.00553,-0.828913 z m -6.89669,-1.199444 c 0.36456,-0.388056 0.72634,-0.705556 0.80395,-0.705556 0.0776,0 -0.15717,0.3175 -0.52173,0.705556 -0.36456,0.388056 -0.72633,0.705556 -0.80394,0.705556 -0.0776,0 0.15716,-0.3175 0.52172,-0.705556 z m 6.46975,-0.352778 -0.68419,-0.776111 0.77611,0.684195 c 0.42686,0.376308 0.77611,0.725558 0.77611,0.776112 0,0.221339 -0.22854,0.0412 -0.86803,-0.684196 z"
         id="path16" /><path
         style="fill:#020202"
         d="m 64.347987,203.66344 -39.580346,-22.77663 -0.0013,-17.40114 -0.0013,-17.40114 39.66467,-37.77331 C 94.879724,79.31314 104.25416,70.537916 104.7823,70.537916 c 0.52814,0 9.90065,8.773593 40.34533,37.767214 l 39.65737,37.76721 v 17.40877 17.40878 l -39.63601,22.7879 c -27.45727,15.78599 -39.87947,22.78397 -40.42834,22.77509 -0.51958,-0.008 -14.417115,-7.85325 -40.372663,-22.78944 z m 40.000843,8.47948 -0.003,-13.47611 -22.786609,-8.86503 c -12.532633,-4.87577 -22.850105,-8.93977 -22.927716,-9.03112 -0.07761,-0.0913 -7.376391,-0.10257 -16.21951,-0.025 l -16.078399,0.14111 38.797289,22.34122 c 21.338508,12.28767 38.892535,22.35242 39.008955,22.36611 0.11642,0.0137 0.21039,-6.03936 0.20883,-13.45122 z m 40.10559,-8.96056 38.76342,-22.29555 -16.0792,-0.14111 c -8.84356,-0.0776 -16.14269,-0.0644 -16.22031,0.0293 -0.0776,0.0937 -10.39466,4.1577 -22.92679,9.03111 l -22.78568,8.86074 -0.004,13.49963 c -0.002,7.57398 0.10436,13.45833 0.24257,13.40555 0.13548,-0.0517 17.68987,-10.12707 39.00975,-22.38963 z M 127.4285,189.19409 c 12.37613,-4.82195 22.60011,-8.86335 22.71995,-8.9809 0.11984,-0.11755 -10.03019,-24.61971 -22.55564,-54.44923 C 115.06737,95.93443 104.78649,71.561238 104.74642,71.601308 104.35776,71.989973 59.243123,180.05774 59.403879,180.21501 c 0.219954,0.21519 44.911101,17.70695 45.305731,17.73231 0.11926,0.008 10.34276,-3.93129 22.71889,-8.75323 z M 58.284964,179.82847 C 58.510339,179.55131 102.20592,75.733331 103.27422,72.936805 l 0.26953,-0.705556 -0.79548,0.732636 c -0.43752,0.40295 -18.099243,17.203651 -39.248271,37.334895 L 25.04722,146.90104 V 163.353 c 0,9.04857 0.08467,16.53662 0.188148,16.6401 0.103481,0.10349 7.517431,0.18815 16.475444,0.18815 12.688698,0 16.350675,-0.0779 16.574152,-0.35278 z m 126.149516,-16.36148 0.0728,-16.57316 -38.47423,-36.62574 C 124.87224,90.123941 107.21002,73.326766 106.78369,72.941039 l -0.77515,-0.701322 0.26926,0.701322 c 1.11095,2.89363 44.76762,106.612831 44.99117,106.889691 0.2256,0.27941 3.78097,0.33953 16.68968,0.28223 l 16.40302,-0.0728 z"
         id="path15" /></g></g></svg>
