<?xml version="1.0" encoding="UTF-8" standalone="no"?>
<!-- Created with Inkscape (http://www.inkscape.org/) -->

<svg
   width="204.32892mm"
   height="209.40889mm"
   viewBox="0 0 204.32892 209.40889"
   version="1.1"
   id="svg1"
   xml:space="preserve"
   xmlns="http://www.w3.org/2000/svg"
   xmlns:svg="http://www.w3.org/2000/svg"><defs
     id="defs1" /><g
     id="layer1"
     transform="translate(-2.8751394,-43.72681)"><g
       id="g14"><path
         style="fill:#fefefe"
         d="m 2.9203055,190.2707 c 0.024841,-34.57575 0.093959,-62.4205 0.1535956,-61.87723 0.059636,0.54328 1.0528348,12.73528 2.2071079,27.09334 1.1542731,14.35805 2.1394485,26.42305 2.1892787,26.81111 0.078285,0.60964 33.0619033,55.16799 33.9001433,56.07437 0.170645,0.18452 13.772264,3.52406 30.225819,7.4212 16.453556,3.89715 30.04256,7.1334 30.19778,7.19168 0.15522,0.0583 -22.03803,0.11599 -49.318335,0.12825 L 2.8751395,253.1357 Z M 108.28514,252.98605 c 0.15522,-0.0578 13.74422,-3.29338 30.19778,-7.19018 16.45355,-3.89681 30.05517,-7.23675 30.22582,-7.42208 0.84359,-0.91623 33.82201,-55.46744 33.90014,-56.07587 0.0498,-0.38806 1.035,-12.45306 2.18928,-26.81111 1.15427,-14.35806 2.14747,-26.55006 2.20711,-27.09334 0.0596,-0.54327 0.12875,27.30148 0.15359,61.87723 l 0.0452,62.865 -49.60056,-0.0223 c -27.2803,-0.0123 -49.47355,-0.0696 -49.31833,-0.12737 z M 2.8751395,80.337301 V 43.726807 H 52.969584 c 27.551944,0 50.094446,0.0412 50.094446,0.09155 0,0.05035 -13.097424,5.543104 -29.105384,12.206111 L 44.853264,68.139029 24.389966,91.986807 C 13.135152,105.10308 3.6900737,116.08506 3.4009035,116.39119 2.8878745,116.93431 2.8751395,116.06102 2.8751395,80.337301 Z M 186.15032,92.48731 165.23773,68.139029 136.1007,56.003473 106.96368,43.867918 156.989,43.79658 c 27.51392,-0.03923 50.06848,-0.02817 50.12124,0.02458 0.0528,0.05276 0.0637,16.502584 0.0243,36.555173 l -0.0716,36.459257 z"
         id="path21" /><path
         style="fill:#f5f4eb"
         d="m 59.49678,209.46181 c -6.485231,-19.7078 -26.430233,-81.46812 -26.366614,-81.64505 0.124543,-0.34635 71.567454,-52.198842 71.920114,-52.198842 0.3614,0 71.77751,51.842782 71.89961,52.193772 0.0652,0.18745 -19.8228,61.78126 -26.22729,81.22678 l -1.13865,3.45723 h -44.54441 -44.5444 z"
         id="path20" /><path
         style="fill:#e3dabb"
         d="m 40.777285,235.1874 c -0.58968,-1.0239 -1.262646,-2.15283 -1.495479,-2.50873 -0.232833,-0.35591 -1.121833,-1.81208 -1.975556,-3.23594 -0.853722,-1.42385 -1.742722,-2.88494 -1.975555,-3.24686 -0.232833,-0.36193 -1.121833,-1.828 -1.975556,-3.25795 -0.853722,-1.42995 -1.742722,-2.88745 -1.975555,-3.23889 -0.232834,-0.35144 -0.931334,-1.4932 -1.552222,-2.53724 -0.620889,-1.04403 -1.319389,-2.18944 -1.552223,-2.54535 -0.232833,-0.3559 -1.121833,-1.81207 -1.975555,-3.23593 -0.853722,-1.42385 -1.742722,-2.88195 -1.975556,-3.2402 -0.232833,-0.35826 -0.931333,-1.50559 -1.552222,-2.54963 -0.620889,-1.04403 -1.345028,-2.23526 -1.609199,-2.64717 -0.553797,-0.86351 -0.80023,-1.26876 -2.341912,-3.85121 -0.620889,-1.04004 -1.319389,-2.18217 -1.552222,-2.53808 -0.232834,-0.35591 -1.121834,-1.81207 -1.975556,-3.23593 -0.853722,-1.42386 -1.742722,-2.88195 -1.975555,-3.2402 -0.232834,-0.35826 -0.931334,-1.50559 -1.552223,-2.54963 -0.620888,-1.04404 -1.342467,-2.23527 -1.603507,-2.64717 -1.4348469,-2.26412 -1.5718121,-2.73544 -1.7756774,-6.11039 -0.1116454,-1.84828 -0.2386843,-3.55706 -0.2823086,-3.7973 -0.043624,-0.24023 -0.1644524,-1.57979 -0.2685068,-2.97679 -0.1040544,-1.397 -0.2392678,-3.1115 -0.3004742,-3.81 -0.061207,-0.6985 -0.1880316,-2.3495 -0.2818337,-3.66889 -0.093802,-1.31939 -0.2223802,-2.71639 -0.2857292,-3.10445 -0.063349,-0.38805 -0.1931979,-2.03905 -0.2885534,-3.66889 -0.095355,-1.62983 -0.2181564,-3.28083 -0.272891,-3.66888 -0.054735,-0.38806 -0.180051,-1.78506 -0.278481,-3.10445 -0.09843,-1.31939 -0.228051,-2.97039 -0.2880466,-3.66889 -0.059996,-0.6985 -0.18583,-2.3495 -0.2796322,-3.66889 -0.093802,-1.31939 -0.2231017,-2.71639 -0.2873324,-3.10444 -0.064231,-0.38806 -0.1996847,-2.10256 -0.3010088,-3.81 -0.101324,-1.70745 -0.2186581,-3.29495 -0.2607424,-3.52778 -0.042084,-0.23283 -0.1640149,-1.62983 -0.2709569,-3.10444 -0.1069419,-1.47461 -0.2395075,-3.12561 -0.2945901,-3.66889 -0.082752,-0.81618 -0.4766648,-6.29616 -0.4868819,-6.77334 -0.015391,-0.71884 0.1578909,-0.74914 1.5454874,-0.27026 0.8149167,0.28123 4.9106662,1.6134 9.1016662,2.96037 4.191,1.34697 9.832926,3.18423 12.537614,4.0828 l 4.917613,1.63378 1.757506,5.32166 c 0.966629,2.92691 2.923803,8.94115 4.349276,13.36499 1.425473,4.42383 3.081668,9.50383 3.680433,11.28889 0.598765,1.78505 2.185918,6.67455 3.527008,10.86555 1.341089,4.191 2.990587,9.271 3.665551,11.28889 0.674965,2.01789 2.326462,7.09789 3.669996,11.28889 1.343533,4.191 2.994781,9.271 3.66944,11.28889 0.674659,2.01789 1.684809,5.15503 2.244778,6.97143 l 1.018125,3.30255 -1.27544,1.77745 c -0.701491,0.9776 -1.803371,2.53151 -2.448621,3.45313 -0.64525,0.92162 -1.28447,1.81062 -1.420488,1.97556 -0.136019,0.16493 -0.625274,0.80788 -1.087235,1.42877 -0.461961,0.62089 -0.937692,1.25589 -1.05718,1.41111 -0.119489,0.15522 -0.433345,0.59972 -0.697459,0.98778 -0.264114,0.38805 -0.991082,1.40405 -1.615485,2.25778 -0.624402,0.85372 -1.588042,2.18722 -2.141422,2.96333 -0.55338,0.77611 -1.57104,2.17311 -2.261467,3.10444 -0.690427,0.93134 -1.712796,2.36009 -2.27193,3.175 -0.559135,0.81492 -1.061544,1.48167 -1.116465,1.48167 -0.05492,0 -0.582322,-0.83773 -1.172002,-1.86163 z m 126.468005,0.66219 c -0.44363,-0.6597 -1.06415,-1.53103 -1.37893,-1.9363 -0.31478,-0.40527 -0.76283,-1.02288 -0.99567,-1.37246 -0.23283,-0.34959 -0.74083,-1.0514 -1.12888,-1.55958 -0.38806,-0.50818 -0.89606,-1.20999 -1.12889,-1.55957 -0.23284,-0.34959 -0.68088,-0.9672 -0.99566,-1.37247 -0.31478,-0.40526 -0.92622,-1.24485 -1.35876,-1.86574 -0.43253,-0.62088 -1.35148,-1.89088 -2.04211,-2.82222 -0.69063,-0.93133 -1.56969,-2.13783 -1.95347,-2.68111 -0.38378,-0.54328 -1.26258,-1.74978 -1.95289,-2.68111 -0.69031,-0.93133 -1.77556,-2.43339 -2.41166,-3.33791 l -1.15654,-1.64457 1.01458,-3.29432 c 0.55802,-1.81187 1.56336,-4.94531 2.23409,-6.9632 0.67072,-2.01789 2.32138,-7.09789 3.66812,-11.28889 1.34674,-4.191 2.99964,-9.271 3.67311,-11.28889 0.67347,-2.01789 2.32753,-7.09789 3.67568,-11.28889 1.34816,-4.191 3.26874,-10.12731 4.26796,-13.19179 0.99921,-3.06449 2.63297,-8.08099 3.63057,-11.14778 0.9976,-3.06679 2.62305,-8.03256 3.6121,-11.03505 l 1.79829,-5.45907 4.07218,-1.36371 c 2.2397,-0.75004 7.69168,-2.5252 12.11552,-3.94481 4.42383,-1.4196 8.89584,-2.88515 9.93779,-3.25677 1.70926,-0.60963 2.49637,-0.57948 2.10586,0.0806 -0.0689,0.11642 -0.21252,1.48167 -0.31922,3.03389 -0.10671,1.55222 -0.23908,3.26672 -0.29416,3.81 -0.0551,0.54328 -0.18765,2.19428 -0.29459,3.66889 -0.10694,1.47461 -0.22887,2.87161 -0.27096,3.10444 -0.0421,0.23283 -0.15942,1.82033 -0.26074,3.52778 -0.10132,1.70744 -0.23678,3.42194 -0.30101,3.81 -0.0642,0.38805 -0.19353,1.78505 -0.28733,3.10444 -0.0938,1.31939 -0.21964,2.97039 -0.27963,3.66889 -0.06,0.6985 -0.18962,2.3495 -0.28805,3.66889 -0.0984,1.31939 -0.22375,2.71639 -0.27848,3.10445 -0.0547,0.38805 -0.17754,2.03905 -0.27289,3.66888 -0.0954,1.62984 -0.22521,3.28084 -0.28856,3.66889 -0.0633,0.38806 -0.19192,1.78506 -0.28572,3.10445 -0.0938,1.31939 -0.22063,2.97039 -0.28184,3.66889 -0.0612,0.6985 -0.19642,2.413 -0.30047,3.81 -0.10406,1.397 -0.22834,2.75448 -0.27618,3.01664 -0.0479,0.26215 -0.17566,1.97665 -0.28403,3.81 -0.22611,3.82534 -0.0342,3.34875 -3.7851,9.40114 -0.91387,1.47461 -2.33728,3.80584 -3.16314,5.18051 -0.82585,1.37466 -1.69205,2.79551 -1.92489,3.15743 -0.23283,0.36192 -1.12183,1.82301 -1.97555,3.24687 -0.85372,1.42386 -1.74272,2.88003 -1.97556,3.23593 -0.23283,0.35591 -0.93133,1.50132 -1.55222,2.54535 -0.62089,1.04404 -1.31939,2.1858 -1.55222,2.53724 -0.23283,0.35144 -1.12183,1.80894 -1.97556,3.23889 -0.85372,1.42995 -1.74272,2.89602 -1.97555,3.25794 -0.23284,0.36193 -1.12184,1.82302 -1.97556,3.24687 -0.85372,1.42386 -1.74272,2.88003 -1.97555,3.23593 -0.23284,0.35591 -0.93134,1.50132 -1.55223,2.54536 -0.62088,1.04403 -1.31938,2.19136 -1.55222,2.54962 -0.23283,0.35826 -1.12183,1.81635 -1.97555,3.2402 -0.85373,1.42386 -1.74273,2.88003 -1.97556,3.23594 -0.23283,0.3559 -0.9058,1.48483 -1.49548,2.50873 -0.58968,1.0239 -1.11216,1.86163 -1.16106,1.86163 -0.0489,0 -0.45189,-0.53975 -0.89553,-1.19944 z"
         id="path19" /><path
         style="fill:#b9ac7c"
         d="M 17.906308,122.24927 C 10.418395,119.80775 4.3021179,117.68314 4.3145802,117.52792 4.3270424,117.3727 13.603929,106.44887 24.929883,93.252754 L 45.522527,69.259812 74.787166,57.055732 c 16.095552,-6.712245 29.359894,-12.203171 29.476304,-12.202059 0.11642,0.0011 0.20915,6.637773 0.20608,14.748134 l -0.006,14.746111 -35.948313,26.105552 c -19.771572,14.35806 -36.183807,26.13467 -36.471633,26.17024 -0.287825,0.0356 -6.649793,-1.93292 -14.137706,-4.37444 z m 123.759262,-21.72684 -36.04624,-26.174512 -0.008,-14.746111 c -0.004,-8.110361 0.0876,-14.747021 0.20401,-14.748134 0.11642,-0.0011 13.38558,5.491638 29.48702,12.206111 l 29.27534,12.208134 20.62996,24.040112 c 11.34648,13.22206 20.62981,24.14303 20.62962,24.26883 -3.5e-4,0.23703 -26.95302,9.10495 -27.70249,9.11462 -0.23283,0.003 -16.64414,-11.77307 -36.46957,-26.16905 z"
         id="path18" /><path
         style="fill:#a0a0a0"
         d="m 7.4129757,181.85107 c 0.013542,-0.32878 0.080417,-0.39565 0.1705093,-0.17051 0.081526,0.20373 0.071499,0.44714 -0.022281,0.54092 -0.09378,0.0938 -0.160483,-0.0729 -0.1482283,-0.37041 z m 195.0155543,0 c 0.0135,-0.32878 0.0804,-0.39565 0.17051,-0.17051 0.0815,0.20373 0.0715,0.44714 -0.0223,0.54092 -0.0938,0.0938 -0.16048,-0.0729 -0.14823,-0.37041 z m -0.84667,-2.82223 c 0.0135,-0.32877 0.0804,-0.39564 0.17051,-0.17051 0.0815,0.20373 0.0715,0.44715 -0.0223,0.54093 -0.0938,0.0938 -0.16048,-0.0729 -0.14823,-0.37042 z M 7.1307535,178.4644 c 0.013542,-0.32877 0.080417,-0.39565 0.1705092,-0.17051 0.081526,0.20373 0.071499,0.44715 -0.022281,0.54093 -0.09378,0.0938 -0.1604829,-0.0729 -0.1482282,-0.37042 z m 195.5799965,0 c 0.0135,-0.32877 0.0804,-0.39565 0.17051,-0.17051 0.0815,0.20373 0.0715,0.44715 -0.0223,0.54093 -0.0938,0.0938 -0.16048,-0.0729 -0.14823,-0.37042 z M 7.9774202,175.64218 c 0.013542,-0.32878 0.080416,-0.39565 0.1705092,-0.17051 0.081526,0.20373 0.071499,0.44714 -0.022281,0.54092 -0.09378,0.0938 -0.1604829,-0.0729 -0.1482282,-0.37041 z m 193.8866698,0 c 0.0135,-0.32878 0.0804,-0.39565 0.17051,-0.17051 0.0815,0.20373 0.0715,0.44714 -0.0223,0.54092 -0.0938,0.0938 -0.16048,-0.0729 -0.14822,-0.37041 z M 6.8485313,175.07773 c 0.013542,-0.32877 0.080417,-0.39564 0.1705092,-0.17051 0.081526,0.20373 0.071499,0.44715 -0.022281,0.54093 -0.09378,0.0938 -0.1604829,-0.0729 -0.1482282,-0.37042 z m 196.1444387,0 c 0.0135,-0.32877 0.0804,-0.39564 0.17051,-0.17051 0.0815,0.20373 0.0715,0.44715 -0.0223,0.54093 -0.0938,0.0938 -0.16048,-0.0729 -0.14823,-0.37042 z M 7.6951979,172.25551 c 0.013542,-0.32877 0.080417,-0.39565 0.1705093,-0.17051 0.081526,0.20373 0.071499,0.44715 -0.022281,0.54093 -0.09378,0.0938 -0.160483,-0.0729 -0.1482283,-0.37042 z m 194.4511121,0 c 0.0135,-0.32877 0.0804,-0.39565 0.17051,-0.17051 0.0815,0.20373 0.0715,0.44715 -0.0223,0.54093 -0.0938,0.0938 -0.16049,-0.0729 -0.14823,-0.37042 z M 6.566309,171.40884 c 0.013542,-0.32877 0.080416,-0.39564 0.1705093,-0.17051 0.081526,0.20373 0.071499,0.44715 -0.022281,0.54093 -0.09378,0.0938 -0.1604829,-0.0729 -0.1482283,-0.37042 z m 196.708891,0 c 0.0135,-0.32877 0.0804,-0.39564 0.17051,-0.17051 0.0815,0.20373 0.0715,0.44715 -0.0223,0.54093 -0.0938,0.0938 -0.16049,-0.0729 -0.14823,-0.37042 z M 6.2840868,168.02218 c 0.013542,-0.32878 0.080417,-0.39565 0.1705093,-0.17051 0.081526,0.20373 0.071499,0.44714 -0.022281,0.54092 -0.09378,0.0938 -0.160483,-0.0729 -0.1482283,-0.37041 z m 197.2733332,0 c 0.0135,-0.32878 0.0804,-0.39565 0.17051,-0.17051 0.0815,0.20373 0.0715,0.44714 -0.0223,0.54092 -0.0938,0.0938 -0.16049,-0.0729 -0.14823,-0.37041 z M 7.1307535,165.19996 c 0.013542,-0.32878 0.080417,-0.39565 0.1705092,-0.17051 0.081526,0.20373 0.071499,0.44714 -0.022281,0.54092 -0.09378,0.0938 -0.1604829,-0.0729 -0.1482282,-0.37041 z m 195.5799965,0 c 0.0135,-0.32878 0.0804,-0.39565 0.17051,-0.17051 0.0815,0.20373 0.0715,0.44714 -0.0223,0.54092 -0.0938,0.0938 -0.16048,-0.0729 -0.14823,-0.37041 z M 6.0018646,164.63551 c 0.013542,-0.32877 0.080417,-0.39565 0.1705093,-0.17051 0.081526,0.20373 0.071499,0.44715 -0.022281,0.54093 -0.09378,0.0938 -0.160483,-0.0729 -0.1482283,-0.37042 z m 197.8377754,0 c 0.0135,-0.32877 0.0804,-0.39565 0.17051,-0.17051 0.0815,0.20373 0.0715,0.44715 -0.0223,0.54093 -0.0938,0.0938 -0.16048,-0.0729 -0.14823,-0.37042 z M 6.8485313,161.81329 c 0.013542,-0.32877 0.080417,-0.39565 0.1705092,-0.17051 0.081526,0.20373 0.071499,0.44715 -0.022281,0.54093 -0.09378,0.0938 -0.1604829,-0.0729 -0.1482282,-0.37042 z m 196.1444387,0 c 0.0135,-0.32877 0.0804,-0.39565 0.17051,-0.17051 0.0815,0.20373 0.0715,0.44715 -0.0223,0.54093 -0.0938,0.0938 -0.16048,-0.0729 -0.14823,-0.37042 z M 5.7196424,160.96662 c 0.013542,-0.32877 0.080417,-0.39565 0.1705092,-0.17051 0.081526,0.20373 0.071499,0.44715 -0.022281,0.54093 -0.09378,0.0938 -0.1604829,-0.0729 -0.1482282,-0.37042 z m 198.4022176,0 c 0.0136,-0.32877 0.0804,-0.39565 0.17051,-0.17051 0.0815,0.20373 0.0715,0.44715 -0.0223,0.54093 -0.0938,0.0938 -0.16048,-0.0729 -0.14823,-0.37042 z m -197.555551,-2.54 c 0.013542,-0.32877 0.080416,-0.39565 0.1705093,-0.17051 0.081526,0.20373 0.071499,0.44715 -0.022281,0.54093 -0.09378,0.0938 -0.1604829,-0.0729 -0.1482283,-0.37042 z m -1.1288888,-0.84666 c 0.013542,-0.32878 0.080416,-0.39565 0.1705092,-0.17051 0.081526,0.20373 0.071499,0.44714 -0.022281,0.54092 -0.09378,0.0938 -0.1604829,-0.0729 -0.1482282,-0.37041 z m 198.9666698,0 c 0.0135,-0.32878 0.0804,-0.39565 0.17051,-0.17051 0.0815,0.20373 0.0715,0.44714 -0.0223,0.54092 -0.0938,0.0938 -0.16048,-0.0729 -0.14822,-0.37041 z M 6.2840868,154.75773 c 0.013542,-0.32877 0.080417,-0.39564 0.1705093,-0.17051 0.081526,0.20373 0.071499,0.44715 -0.022281,0.54093 -0.09378,0.0938 -0.160483,-0.0729 -0.1482283,-0.37042 z m 197.2733332,0 c 0.0135,-0.32877 0.0804,-0.39564 0.17051,-0.17051 0.0815,0.20373 0.0715,0.44715 -0.0223,0.54093 -0.0938,0.0938 -0.16049,-0.0729 -0.14823,-0.37042 z M 5.1551979,154.19329 c 0.013542,-0.32877 0.080417,-0.39565 0.1705093,-0.17051 0.081526,0.20373 0.071499,0.44715 -0.022281,0.54093 -0.09378,0.0938 -0.1604829,-0.0729 -0.1482283,-0.37042 z m 199.5311121,0 c 0.0135,-0.32877 0.0804,-0.39565 0.17051,-0.17051 0.0815,0.20373 0.0715,0.44715 -0.0223,0.54093 -0.0938,0.0938 -0.16049,-0.0729 -0.14823,-0.37042 z M 6.0018646,151.37107 c 0.013542,-0.32878 0.080417,-0.39565 0.1705093,-0.17051 0.081526,0.20373 0.071499,0.44714 -0.022281,0.54092 -0.09378,0.0938 -0.160483,-0.0729 -0.1482283,-0.37041 z m 197.8377754,0 c 0.0135,-0.32878 0.0804,-0.39565 0.17051,-0.17051 0.0815,0.20373 0.0715,0.44714 -0.0223,0.54092 -0.0938,0.0938 -0.16048,-0.0729 -0.14823,-0.37041 z M 4.8729757,150.5244 c 0.013542,-0.32877 0.080417,-0.39565 0.1705093,-0.17051 0.081526,0.20373 0.071499,0.44715 -0.022281,0.54093 -0.09378,0.0938 -0.160483,-0.0729 -0.1482283,-0.37042 z m 200.0955543,0 c 0.0135,-0.32877 0.0804,-0.39565 0.17051,-0.17051 0.0815,0.20373 0.0715,0.44715 -0.0223,0.54093 -0.0938,0.0938 -0.16048,-0.0729 -0.14823,-0.37042 z m -199.2488876,-2.54 c 0.013542,-0.32877 0.080417,-0.39565 0.1705092,-0.17051 0.081526,0.20373 0.071499,0.44715 -0.022281,0.54093 -0.09378,0.0938 -0.1604829,-0.0729 -0.1482282,-0.37042 z m 198.4022176,0 c 0.0136,-0.32877 0.0804,-0.39565 0.17051,-0.17051 0.0815,0.20373 0.0715,0.44715 -0.0223,0.54093 -0.0938,0.0938 -0.16048,-0.0729 -0.14823,-0.37042 z M 4.5907535,147.13773 c 0.013542,-0.32877 0.080417,-0.39564 0.1705093,-0.17051 0.081526,0.20373 0.071499,0.44715 -0.022281,0.54093 -0.09378,0.0938 -0.160483,-0.0729 -0.1482283,-0.37042 z m 200.6599965,0 c 0.0135,-0.32877 0.0804,-0.39564 0.17051,-0.17051 0.0815,0.20373 0.0715,0.44715 -0.0223,0.54093 -0.0938,0.0938 -0.16048,-0.0729 -0.14823,-0.37042 z M 5.4374202,144.31551 c 0.013542,-0.32877 0.080416,-0.39565 0.1705092,-0.17051 0.081526,0.20373 0.071499,0.44715 -0.022281,0.54093 -0.09378,0.0938 -0.1604829,-0.0729 -0.1482282,-0.37042 z m 198.9666698,0 c 0.0135,-0.32877 0.0804,-0.39565 0.17051,-0.17051 0.0815,0.20373 0.0715,0.44715 -0.0223,0.54093 -0.0938,0.0938 -0.16048,-0.0729 -0.14822,-0.37042 z M 4.3085313,143.75107 c 0.013542,-0.32878 0.080417,-0.39565 0.1705092,-0.17051 0.081526,0.20373 0.071499,0.44714 -0.022281,0.54092 -0.09378,0.0938 -0.1604829,-0.0729 -0.1482282,-0.37041 z m 201.2244387,0 c 0.0135,-0.32878 0.0804,-0.39565 0.17051,-0.17051 0.0815,0.20373 0.0715,0.44714 -0.0223,0.54092 -0.0938,0.0938 -0.16048,-0.0729 -0.14823,-0.37041 z M 5.1551979,140.92884 c 0.013542,-0.32877 0.080417,-0.39564 0.1705093,-0.17051 0.081526,0.20373 0.071499,0.44715 -0.022281,0.54093 -0.09378,0.0938 -0.1604829,-0.0729 -0.1482283,-0.37042 z m 199.5311121,0 c 0.0135,-0.32877 0.0804,-0.39564 0.17051,-0.17051 0.0815,0.20373 0.0715,0.44715 -0.0223,0.54093 -0.0938,0.0938 -0.16049,-0.0729 -0.14823,-0.37042 z m 1.12889,-0.84666 c 0.0135,-0.32878 0.0804,-0.39565 0.17051,-0.17051 0.0815,0.20373 0.0715,0.44714 -0.0223,0.54092 -0.0938,0.0938 -0.16049,-0.0729 -0.14823,-0.37041 z m -200.9422243,-2.54 c 0.013542,-0.32878 0.080417,-0.39565 0.1705093,-0.17051 0.081526,0.20373 0.071499,0.44714 -0.022281,0.54092 -0.09378,0.0938 -0.160483,-0.0729 -0.1482283,-0.37041 z m 200.0955543,0 c 0.0135,-0.32878 0.0804,-0.39565 0.17051,-0.17051 0.0815,0.20373 0.0715,0.44714 -0.0223,0.54092 -0.0938,0.0938 -0.16048,-0.0729 -0.14823,-0.37041 z M 3.7440868,136.69551 c 0.013542,-0.32877 0.080417,-0.39565 0.1705093,-0.17051 0.081526,0.20373 0.071499,0.44715 -0.022281,0.54093 -0.09378,0.0938 -0.1604829,-0.0729 -0.1482283,-0.37042 z m 202.3533332,0 c 0.0135,-0.32877 0.0804,-0.39565 0.17051,-0.17051 0.0815,0.20373 0.0715,0.44715 -0.0223,0.54093 -0.0938,0.0938 -0.16049,-0.0729 -0.14823,-0.37042 z M 4.5907535,133.87329 c 0.013542,-0.32877 0.080417,-0.39565 0.1705093,-0.17051 0.081526,0.20373 0.071499,0.44715 -0.022281,0.54093 -0.09378,0.0938 -0.160483,-0.0729 -0.1482283,-0.37042 z m 200.6599965,0 c 0.0135,-0.32877 0.0804,-0.39565 0.17051,-0.17051 0.0815,0.20373 0.0715,0.44715 -0.0223,0.54093 -0.0938,0.0938 -0.16048,-0.0729 -0.14823,-0.37042 z M 3.4618646,133.30884 c 0.013542,-0.32877 0.080416,-0.39564 0.1705093,-0.17051 0.081526,0.20373 0.071499,0.44715 -0.022281,0.54093 -0.09378,0.0938 -0.160483,-0.0729 -0.1482283,-0.37042 z m 202.9177754,0 c 0.0135,-0.32877 0.0804,-0.39564 0.17051,-0.17051 0.0815,0.20373 0.0715,0.44715 -0.0223,0.54093 -0.0938,0.0938 -0.16048,-0.0729 -0.14823,-0.37042 z M 4.3085313,130.48662 c 0.013542,-0.32877 0.080417,-0.39565 0.1705092,-0.17051 0.081526,0.20373 0.071499,0.44715 -0.022281,0.54093 -0.09378,0.0938 -0.1604829,-0.0729 -0.1482282,-0.37042 z m 201.2244387,0 c 0.0135,-0.32877 0.0804,-0.39565 0.17051,-0.17051 0.0815,0.20373 0.0715,0.44715 -0.0223,0.54093 -0.0938,0.0938 -0.16048,-0.0729 -0.14823,-0.37042 z M 4.0263091,127.09996 c 0.013542,-0.32878 0.080416,-0.39565 0.1705092,-0.17051 0.081526,0.20373 0.071499,0.44714 -0.022281,0.54092 -0.09378,0.0938 -0.1604829,-0.0729 -0.1482282,-0.37041 z m 201.7888909,0 c 0.0135,-0.32878 0.0804,-0.39565 0.17051,-0.17051 0.0815,0.20373 0.0715,0.44714 -0.0223,0.54092 -0.0938,0.0938 -0.16049,-0.0729 -0.14823,-0.37041 z M 2.8974202,126.25329 c 0.013542,-0.32877 0.080417,-0.39565 0.1705092,-0.17051 0.081526,0.20373 0.071499,0.44715 -0.022281,0.54093 -0.09378,0.0938 -0.1604829,-0.0729 -0.1482282,-0.37042 z m 204.0466698,0 c 0.0135,-0.32877 0.0804,-0.39565 0.17051,-0.17051 0.0815,0.20373 0.0715,0.44715 -0.0223,0.54093 -0.0938,0.0938 -0.16048,-0.0729 -0.14822,-0.37042 z M 3.7440868,123.43107 c 0.013542,-0.32878 0.080417,-0.39565 0.1705093,-0.17051 0.081526,0.20373 0.071499,0.44714 -0.022281,0.54092 -0.09378,0.0938 -0.1604829,-0.0729 -0.1482283,-0.37041 z m 202.3533332,0 c 0.0135,-0.32878 0.0804,-0.39565 0.17051,-0.17051 0.0815,0.20373 0.0715,0.44714 -0.0223,0.54092 -0.0938,0.0938 -0.16049,-0.0729 -0.14823,-0.37041 z M 3.4618646,120.0444 c 0.013542,-0.32877 0.080416,-0.39565 0.1705093,-0.17051 0.081526,0.20373 0.071499,0.44715 -0.022281,0.54093 -0.09378,0.0938 -0.160483,-0.0729 -0.1482283,-0.37042 z m 202.9177754,0 c 0.0135,-0.32877 0.0804,-0.39565 0.17051,-0.17051 0.0815,0.20373 0.0715,0.44715 -0.0223,0.54093 -0.0938,0.0938 -0.16048,-0.0729 -0.14823,-0.37042 z"
         id="path17" /><path
         style="fill:#606060"
         d="m 60.350967,212.56625 c -0.07195,-0.11641 20.037928,-0.21166 44.688613,-0.21166 24.65069,0 44.76057,0.0952 44.68862,0.21166 -0.0719,0.11642 -20.18183,0.21167 -44.68862,0.21167 -24.506786,0 -44.616663,-0.0952 -44.688613,-0.21167 z M 8.2596424,179.87551 c 0.013542,-0.32877 0.080417,-0.39565 0.1705092,-0.17051 0.081526,0.20373 0.071499,0.44715 -0.022281,0.54093 -0.09378,0.0938 -0.1604829,-0.0729 -0.1482282,-0.37042 z m 193.3222176,0 c 0.0135,-0.32877 0.0804,-0.39565 0.17051,-0.17051 0.0815,0.20373 0.0715,0.44715 -0.0223,0.54093 -0.0938,0.0938 -0.16048,-0.0729 -0.14823,-0.37042 z M 7.9774202,176.48884 c 0.013542,-0.32877 0.080416,-0.39564 0.1705092,-0.17051 0.081526,0.20373 0.071499,0.44715 -0.022281,0.54093 -0.09378,0.0938 -0.1604829,-0.0729 -0.1482282,-0.37042 z m -1.1288889,-2.25777 c 0.013542,-0.32878 0.080417,-0.39565 0.1705092,-0.17051 0.081526,0.20373 0.071499,0.44714 -0.022281,0.54092 -0.09378,0.0938 -0.1604829,-0.0729 -0.1482282,-0.37041 z m 196.1444387,0 c 0.0135,-0.32878 0.0804,-0.39565 0.17051,-0.17051 0.0815,0.20373 0.0715,0.44714 -0.0223,0.54092 -0.0938,0.0938 -0.16048,-0.0729 -0.14823,-0.37041 z M 7.4129757,169.43329 c 0.013542,-0.32877 0.080417,-0.39565 0.1705093,-0.17051 0.081526,0.20373 0.071499,0.44715 -0.022281,0.54093 -0.09378,0.0938 -0.160483,-0.0729 -0.1482283,-0.37042 z m 195.0155543,0 c 0.0135,-0.32877 0.0804,-0.39565 0.17051,-0.17051 0.0815,0.20373 0.0715,0.44715 -0.0223,0.54093 -0.0938,0.0938 -0.16048,-0.0729 -0.14823,-0.37042 z M 7.1307535,166.04662 c 0.013542,-0.32877 0.080417,-0.39565 0.1705092,-0.17051 0.081526,0.20373 0.071499,0.44715 -0.022281,0.54093 -0.09378,0.0938 -0.1604829,-0.0729 -0.1482282,-0.37042 z m 195.5799965,0 c 0.0135,-0.32877 0.0804,-0.39565 0.17051,-0.17051 0.0815,0.20373 0.0715,0.44715 -0.0223,0.54093 -0.0938,0.0938 -0.16048,-0.0729 -0.14823,-0.37042 z M 6.0018646,163.78884 c 0.013542,-0.32877 0.080417,-0.39564 0.1705093,-0.17051 0.081526,0.20373 0.071499,0.44715 -0.022281,0.54093 -0.09378,0.0938 -0.160483,-0.0729 -0.1482283,-0.37042 z m 197.8377754,0 c 0.0135,-0.32877 0.0804,-0.39564 0.17051,-0.17051 0.0815,0.20373 0.0715,0.44715 -0.0223,0.54093 -0.0938,0.0938 -0.16048,-0.0729 -0.14823,-0.37042 z m -0.56444,-4.79777 c 0.0135,-0.32878 0.0804,-0.39565 0.17051,-0.17051 0.0815,0.20373 0.0715,0.44714 -0.0223,0.54092 -0.0938,0.0938 -0.16049,-0.0729 -0.14823,-0.37041 z M 6.2840868,155.6044 c 0.013542,-0.32877 0.080417,-0.39565 0.1705093,-0.17051 0.081526,0.20373 0.071499,0.44715 -0.022281,0.54093 -0.09378,0.0938 -0.160483,-0.0729 -0.1482283,-0.37042 z m 197.2733332,0 c 0.0135,-0.32877 0.0804,-0.39565 0.17051,-0.17051 0.0815,0.20373 0.0715,0.44715 -0.0223,0.54093 -0.0938,0.0938 -0.16049,-0.0729 -0.14823,-0.37042 z M 5.1551979,153.34662 c 0.013542,-0.32877 0.080417,-0.39565 0.1705093,-0.17051 0.081526,0.20373 0.071499,0.44715 -0.022281,0.54093 -0.09378,0.0938 -0.1604829,-0.0729 -0.1482283,-0.37042 z m 199.5311121,0 c 0.0135,-0.32877 0.0804,-0.39565 0.17051,-0.17051 0.0815,0.20373 0.0715,0.44715 -0.0223,0.54093 -0.0938,0.0938 -0.16049,-0.0729 -0.14823,-0.37042 z M 5.4374202,145.16218 c 0.013542,-0.32878 0.080416,-0.39565 0.1705092,-0.17051 0.081526,0.20373 0.071499,0.44714 -0.022281,0.54092 -0.09378,0.0938 -0.1604829,-0.0729 -0.1482282,-0.37041 z m 198.9666698,0 c 0.0135,-0.32878 0.0804,-0.39565 0.17051,-0.17051 0.0815,0.20373 0.0715,0.44714 -0.0223,0.54092 -0.0938,0.0938 -0.16048,-0.0729 -0.14822,-0.37041 z M 4.3085313,142.9044 c 0.013542,-0.32877 0.080417,-0.39565 0.1705092,-0.17051 0.081526,0.20373 0.071499,0.44715 -0.022281,0.54093 -0.09378,0.0938 -0.1604829,-0.0729 -0.1482282,-0.37042 z m 201.2244387,0 c 0.0135,-0.32877 0.0804,-0.39565 0.17051,-0.17051 0.0815,0.20373 0.0715,0.44715 -0.0223,0.54093 -0.0938,0.0938 -0.16048,-0.0729 -0.14823,-0.37042 z M 4.0263091,139.51773 c 0.013542,-0.32877 0.080416,-0.39564 0.1705092,-0.17051 0.081526,0.20373 0.071499,0.44715 -0.022281,0.54093 -0.09378,0.0938 -0.1604829,-0.0729 -0.1482282,-0.37042 z m 0.5644444,-4.79777 c 0.013542,-0.32878 0.080417,-0.39565 0.1705093,-0.17051 0.081526,0.20373 0.071499,0.44714 -0.022281,0.54092 -0.09378,0.0938 -0.160483,-0.0729 -0.1482283,-0.37041 z m 200.6599965,0 c 0.0135,-0.32878 0.0804,-0.39565 0.17051,-0.17051 0.0815,0.20373 0.0715,0.44714 -0.0223,0.54092 -0.0938,0.0938 -0.16048,-0.0729 -0.14823,-0.37041 z M 3.4618646,132.46218 c 0.013542,-0.32878 0.080416,-0.39565 0.1705093,-0.17051 0.081526,0.20373 0.071499,0.44714 -0.022281,0.54092 -0.09378,0.0938 -0.160483,-0.0729 -0.1482283,-0.37041 z m 202.9177754,0 c 0.0135,-0.32878 0.0804,-0.39565 0.17051,-0.17051 0.0815,0.20373 0.0715,0.44714 -0.0223,0.54092 -0.0938,0.0938 -0.16048,-0.0729 -0.14823,-0.37041 z M 3.1796424,129.07551 c 0.013542,-0.32877 0.080417,-0.39565 0.1705093,-0.17051 0.081526,0.20373 0.071499,0.44715 -0.022281,0.54093 -0.09378,0.0938 -0.160483,-0.0729 -0.1482283,-0.37042 z m 203.4822176,0 c 0.0136,-0.32877 0.0804,-0.39565 0.17051,-0.17051 0.0815,0.20373 0.0715,0.44715 -0.0223,0.54093 -0.0938,0.0938 -0.16048,-0.0729 -0.14823,-0.37042 z M 3.7440868,124.27773 c 0.013542,-0.32877 0.080417,-0.39564 0.1705093,-0.17051 0.081526,0.20373 0.071499,0.44715 -0.022281,0.54093 -0.09378,0.0938 -0.1604829,-0.0729 -0.1482283,-0.37042 z m 202.3533332,0 c 0.0135,-0.32877 0.0804,-0.39564 0.17051,-0.17051 0.0815,0.20373 0.0715,0.44715 -0.0223,0.54093 -0.0938,0.0938 -0.16049,-0.0729 -0.14823,-0.37042 z"
         id="path16" /><path
         style="fill:#5e5535"
         d="m 105.86028,252.45314 c -0.0633,-0.0623 -0.75014,-0.16077 -1.52625,-0.21888 -0.77611,-0.0581 -1.56986,-0.20405 -1.76389,-0.32432 -0.19403,-0.12027 -0.471,-0.1456 -0.6155,-0.0563 -0.1445,0.0893 -0.34784,0.0246 -0.45188,-0.14369 -0.10404,-0.16834 -0.36275,-0.23946 -0.57491,-0.15804 -0.21216,0.0814 -0.45175,0.0412 -0.53242,-0.0893 -0.12144,-0.19649 -2.046945,-0.64124 -3.116958,-0.71995 -0.155222,-0.0114 -0.440972,-0.12015 -0.635,-0.24162 -0.194027,-0.12148 -0.471002,-0.1478 -0.615499,-0.0585 -0.144496,0.0893 -0.335662,0.0444 -0.424812,-0.0999 -0.141291,-0.22861 -1.690895,-0.60334 -2.986317,-0.72215 -0.235562,-0.0216 -0.584812,-0.13602 -0.776111,-0.25424 -0.191299,-0.11823 -0.466041,-0.1419 -0.610537,-0.0526 -0.144497,0.0893 -0.347843,0.0246 -0.451881,-0.14369 -0.104037,-0.16834 -0.362745,-0.23946 -0.574907,-0.15804 -0.212161,0.0814 -0.453981,0.0376 -0.537376,-0.0973 -0.132702,-0.21471 -1.714239,-0.58951 -2.975855,-0.70522 -0.235562,-0.0216 -0.584812,-0.13602 -0.776111,-0.25425 -0.191299,-0.11822 -0.46604,-0.14189 -0.610537,-0.0526 -0.144497,0.0893 -0.347843,0.0246 -0.45188,-0.14369 -0.104038,-0.16834 -0.362746,-0.23946 -0.574908,-0.15804 -0.212161,0.0814 -0.45398,0.0376 -0.537376,-0.0973 -0.132702,-0.21471 -1.714239,-0.58951 -2.975854,-0.70522 -0.235563,-0.0216 -0.593262,-0.14124 -0.794888,-0.26585 -0.201626,-0.12461 -0.441708,-0.15145 -0.533516,-0.0596 -0.09181,0.0918 -0.305608,0.0548 -0.475112,-0.0823 -0.278762,-0.22539 -3.066351,-0.90309 -4.123151,-1.00239 -0.235562,-0.0221 -0.584812,-0.13698 -0.776111,-0.25521 -0.191299,-0.11823 -0.466041,-0.14189 -0.610537,-0.0526 -0.144497,0.0893 -0.335662,0.0444 -0.424812,-0.0999 -0.141292,-0.22861 -1.690896,-0.60334 -2.986318,-0.72215 -0.235562,-0.0216 -0.584812,-0.13602 -0.776111,-0.25425 -0.191299,-0.11823 -0.46604,-0.14189 -0.610537,-0.0526 -0.144497,0.0893 -0.347843,0.0246 -0.45188,-0.14369 -0.104038,-0.16834 -0.362746,-0.23946 -0.574908,-0.15804 -0.212161,0.0814 -0.453981,0.0376 -0.537376,-0.0973 -0.132702,-0.21471 -1.714239,-0.58951 -2.975854,-0.70522 -0.235563,-0.0216 -0.584813,-0.13602 -0.776111,-0.25425 -0.191299,-0.11823 -0.466041,-0.14189 -0.610538,-0.0526 -0.144496,0.0893 -0.347842,0.0246 -0.45188,-0.14369 -0.104037,-0.16834 -0.362746,-0.23946 -0.574907,-0.15805 -0.212162,0.0814 -0.453981,0.0376 -0.537377,-0.0973 -0.132701,-0.21472 -1.714238,-0.58951 -2.975854,-0.70522 -0.235562,-0.0216 -0.593262,-0.14124 -0.794888,-0.26585 -0.201626,-0.12462 -0.441708,-0.15145 -0.533515,-0.0597 -0.09181,0.0918 -0.305608,0.0548 -0.475113,-0.0823 -0.278762,-0.22539 -3.066351,-0.90309 -4.123151,-1.00239 -0.235562,-0.0221 -0.584812,-0.13698 -0.776111,-0.25521 -0.191299,-0.11823 -0.46604,-0.1419 -0.610537,-0.0526 -0.144497,0.0893 -0.335662,0.0444 -0.424812,-0.0999 -0.141291,-0.22861 -1.690896,-0.60334 -2.986317,-0.72215 -0.235563,-0.0216 -0.584813,-0.13602 -0.776112,-0.25425 -0.191298,-0.11823 -0.46604,-0.14189 -0.610537,-0.0526 -0.144496,0.0893 -0.347842,0.0246 -0.45188,-0.1437 -0.104037,-0.16833 -0.362746,-0.23945 -0.574907,-0.15804 -0.212162,0.0814 -0.460811,0.0266 -0.552554,-0.12187 -0.09174,-0.14844 -0.399722,-0.26989 -0.684399,-0.26989 -0.748809,0 -0.89896,-0.68669 -0.240118,-1.09815 0.310072,-0.19364 0.501745,-0.4141 0.425941,-0.4899 -0.0758,-0.0758 0.223367,-0.53328 0.664823,-1.01661 0.441457,-0.48333 0.737616,-0.98401 0.658132,-1.11262 -0.07949,-0.12861 -0.006,-0.23383 0.163218,-0.23383 0.169255,0 0.385495,-0.20264 0.480535,-0.45031 0.09504,-0.24767 0.529591,-0.84094 0.96567,-1.31839 0.436079,-0.47745 0.727839,-0.97331 0.648354,-1.10192 -0.07948,-0.1286 -0.006,-0.23383 0.163219,-0.23383 0.169255,0 0.385495,-0.20264 0.480535,-0.45031 0.09504,-0.24766 0.52959,-0.84094 0.96567,-1.31838 0.436079,-0.47745 0.727838,-0.97331 0.648354,-1.10192 -0.07948,-0.12861 -0.03155,-0.23383 0.106519,-0.23383 0.309675,0 2.205815,-2.60006 2.109615,-2.89278 -0.03826,-0.11642 0.03591,-0.21167 0.164819,-0.21167 0.223642,0 2.224153,-2.61341 2.100276,-2.74374 -0.03274,-0.0344 0.314159,-0.47177 0.770891,-0.97183 0.456733,-0.50006 0.77573,-0.96389 0.708884,-1.03074 -0.06685,-0.0668 0.15881,-0.35555 0.501459,-0.64156 0.342649,-0.28601 0.534908,-0.52424 0.427241,-0.52941 -0.107666,-0.005 0.174677,-0.41496 0.62743,-0.91066 0.452752,-0.4957 0.768494,-0.95597 0.701647,-1.02281 -0.06685,-0.0668 0.158811,-0.35555 0.50146,-0.64156 0.342649,-0.28601 0.538586,-0.52425 0.435415,-0.52941 -0.103171,-0.005 0.205947,-0.45389 0.686929,-0.99717 l 0.874512,-0.98777 h 44.48725 44.48726 l 0.87451,0.98777 c 0.48098,0.54328 0.7901,0.99201 0.68693,0.99717 -0.10317,0.005 0.0928,0.2434 0.43541,0.52941 0.34265,0.28601 0.56831,0.57471 0.50146,0.64156 -0.0668,0.0668 0.2489,0.52711 0.70165,1.02281 0.45275,0.4957 0.7351,0.9055 0.62743,0.91066 -0.10767,0.005 0.0846,0.2434 0.42724,0.52941 0.34265,0.28601 0.56831,0.57472 0.50146,0.64156 -0.0668,0.0668 0.2489,0.52711 0.70165,1.02282 0.45275,0.4957 0.73509,0.90549 0.62743,0.91066 -0.10767,0.005 0.0846,0.2434 0.42724,0.52941 0.34265,0.28601 0.5683,0.57471 0.50146,0.64156 -0.0668,0.0668 0.24889,0.52711 0.70165,1.02281 0.45275,0.4957 0.73509,0.9055 0.62743,0.91066 -0.10767,0.005 0.0846,0.2434 0.42724,0.52941 0.34265,0.28601 0.5683,0.57471 0.50146,0.64156 -0.0668,0.0669 0.24889,0.52711 0.70164,1.02281 0.45276,0.49571 0.7351,0.9055 0.62743,0.91067 -0.10766,0.005 0.0846,0.2434 0.42724,0.52941 0.34265,0.28601 0.56831,0.57471 0.50146,0.64156 -0.0668,0.0668 0.2489,0.52711 0.70165,1.02281 0.45275,0.4957 0.7351,0.9055 0.62743,0.91066 -0.10767,0.005 0.0846,0.2434 0.42724,0.52941 0.34265,0.28601 0.56831,0.57471 0.50146,0.64156 -0.0669,0.0669 0.24221,0.51979 0.68679,1.00654 0.44458,0.48676 0.76208,0.93126 0.70556,0.98778 -0.0565,0.0565 0.25657,0.49621 0.69577,0.97708 0.43921,0.48086 0.87631,1.07693 0.97135,1.3246 0.095,0.24767 0.2998,0.45031 0.45502,0.45031 0.15523,0 0.21276,0.18102 0.12786,0.40226 -0.0849,0.22125 -0.65174,0.4863 -1.25966,0.589 -0.60791,0.10271 -1.17353,0.29715 -1.25693,0.43208 -0.0834,0.13494 -0.32521,0.17873 -0.53737,0.0973 -0.21217,-0.0814 -0.46617,-0.0179 -0.56445,0.14111 -0.0983,0.15902 -0.35228,0.22252 -0.56444,0.14111 -0.21217,-0.0814 -0.47087,-0.0103 -0.57491,0.15804 -0.10404,0.16833 -0.30445,0.23481 -0.44537,0.14772 -0.23789,-0.14702 -2.12078,0.23725 -3.09145,0.63092 -0.23284,0.0944 -0.57251,0.14829 -0.75483,0.11969 -0.18233,-0.0286 -0.40864,0.0728 -0.50293,0.22538 -0.0943,0.15256 -0.34502,0.21077 -0.55718,0.12936 -0.21216,-0.0814 -0.47087,-0.0103 -0.57491,0.15804 -0.10404,0.16834 -0.30445,0.23481 -0.44537,0.14772 -0.23788,-0.14702 -2.12078,0.23725 -3.09145,0.63092 -0.23283,0.0944 -0.57251,0.14829 -0.75483,0.11969 -0.18232,-0.0286 -0.4047,0.0665 -0.49417,0.21122 -0.0895,0.14476 -0.41655,0.19682 -0.72684,0.11568 -0.32781,-0.0857 -0.56416,-0.009 -0.56416,0.18426 0,0.18248 -0.12049,0.25733 -0.26775,0.16632 -0.30541,-0.18876 -2.8203,0.37368 -3.286,0.73489 -0.1695,0.13147 -0.38868,0.15854 -0.48706,0.0602 -0.0984,-0.0984 -0.35239,-0.0349 -0.56445,0.14111 -0.21206,0.176 -0.45631,0.24925 -0.54278,0.16278 -0.14803,-0.14803 -2.10919,0.26784 -3.03641,0.64389 -0.23283,0.0944 -0.5725,0.14829 -0.75483,0.11969 -0.18232,-0.0286 -0.40864,0.0728 -0.50292,0.22538 -0.0943,0.15256 -0.34502,0.21077 -0.55718,0.12936 -0.21216,-0.0814 -0.47087,-0.0103 -0.57491,0.15804 -0.10404,0.16834 -0.30445,0.23481 -0.44537,0.14772 -0.23788,-0.14702 -2.12078,0.23725 -3.09145,0.63092 -0.23284,0.0944 -0.57251,0.14829 -0.75483,0.11969 -0.18232,-0.0286 -0.40864,0.0728 -0.50293,0.22539 -0.0943,0.15256 -0.34502,0.21077 -0.55718,0.12935 -0.21216,-0.0814 -0.47087,-0.0103 -0.57491,0.15804 -0.10403,0.16834 -0.30445,0.23481 -0.44536,0.14772 -0.23789,-0.14702 -2.12078,0.23725 -3.09146,0.63092 -0.23283,0.0944 -0.57251,0.14829 -0.75483,0.11969 -0.18232,-0.0286 -0.4047,0.0665 -0.49417,0.21122 -0.0895,0.14476 -0.41655,0.19682 -0.72684,0.11568 -0.32781,-0.0857 -0.56416,-0.009 -0.56416,0.18426 0,0.18249 -0.12048,0.25733 -0.26774,0.16632 -0.30542,-0.18876 -2.8203,0.37368 -3.286,0.73489 -0.16951,0.13147 -0.38869,0.15855 -0.48707,0.0602 -0.0984,-0.0984 -0.35239,-0.0349 -0.56445,0.14111 -0.21206,0.176 -0.45631,0.24925 -0.54277,0.16278 -0.14804,-0.14803 -2.1092,0.26784 -3.03641,0.64389 -0.23284,0.0944 -0.57251,0.14829 -0.75483,0.11969 -0.18233,-0.0286 -0.40864,0.0728 -0.50293,0.22539 -0.0943,0.15256 -0.34502,0.21077 -0.55718,0.12935 -0.21216,-0.0814 -0.47087,-0.0103 -0.57491,0.15804 -0.10403,0.16834 -0.30445,0.23481 -0.44536,0.14772 -0.23789,-0.14702 -2.12079,0.23725 -3.09146,0.63092 -0.23283,0.0944 -0.57251,0.14829 -0.75483,0.11969 -0.18232,-0.0286 -0.40864,0.0728 -0.50293,0.22539 -0.0943,0.15256 -0.34501,0.21077 -0.55718,0.12935 -0.21216,-0.0814 -0.47087,-0.0103 -0.5749,0.15804 -0.10404,0.16834 -0.30087,0.23703 -0.43741,0.15265 -0.29068,-0.17965 -2.81652,0.39793 -3.26649,0.74694 -0.16951,0.13147 -0.38869,0.15855 -0.48707,0.0602 -0.0984,-0.0984 -0.35239,-0.0349 -0.56445,0.14111 -0.21206,0.176 -0.43738,0.26905 -0.50071,0.20678 z M 41.709765,237.09607 c -0.07994,-0.12936 0.03398,-0.23519 0.253152,-0.23519 0.219177,0 0.333096,0.10583 0.253152,0.23519 -0.07994,0.12935 -0.193862,0.23518 -0.253152,0.23518 -0.05929,0 -0.173208,-0.10583 -0.253152,-0.23518 z m 126.153335,0 c -0.0799,-0.12936 0.034,-0.23519 0.25315,-0.23519 0.21918,0 0.3331,0.10583 0.25315,0.23519 -0.0799,0.12935 -0.19386,0.23518 -0.25315,0.23518 -0.0593,0 -0.17321,-0.10583 -0.25315,-0.23518 z M 104.60655,59.39014 c 4e-5,-8.226778 0.0361,-11.551592 0.0801,-7.388476 0.044,4.163116 0.044,10.894116 -8e-5,14.957778 -0.044,4.063662 -0.0801,0.657476 -0.08,-7.569302 z m 0.84667,0 c 4e-5,-8.226778 0.0361,-11.551592 0.0801,-7.388476 0.044,4.163116 0.044,10.894116 -8e-5,14.957778 -0.0441,4.063662 -0.0801,0.657476 -0.08,-7.569302 z"
         id="path15" /><path
         style="fill:#060606"
         d="M 72.584028,245.82759 C 55.897639,241.84425 42.045915,238.46178 41.802418,238.31099 41.180767,237.926 7.8860083,183.20254 8.0812353,182.88666 c 0.087804,-0.14207 0.037452,-0.30091 -0.1118928,-0.35297 -0.3329838,-0.11608 -5.094203,-58.37605 -5.094203,-62.33448 v -2.83047 L 23.813528,92.972457 C 35.329642,79.554503 44.810335,68.634595 44.881734,68.705994 c 0.0714,0.0714 0.269374,-0.04113 0.439944,-0.250054 0.54646,-0.669352 58.647532,-24.729133 59.717462,-24.729133 1.08242,0 59.18259,24.051378 59.71835,24.721244 0.17057,0.213268 0.37067,0.327221 0.44466,0.253228 0.074,-0.07399 9.52293,10.803828 20.99765,24.172935 l 20.86312,24.307466 0.0806,2.79806 c 0.10002,3.47265 -4.64318,62.4179 -5.03359,62.55395 -0.14939,0.0521 -0.19924,0.21177 -0.11078,0.35491 0.19615,0.31737 -33.09251,55.03467 -33.71981,55.426 -0.24491,0.15278 -14.16129,3.54522 -30.92529,7.53875 -25.4841,6.07084 -30.80381,7.25734 -32.45556,7.23882 -1.55518,-0.0174 -8.431297,-1.56326 -32.314442,-7.26458 z m 63.775502,-0.58607 c 16.96581,-4.03136 30.89034,-7.37315 30.9434,-7.42621 0.053,-0.0531 -3.84341,-5.51767 -8.65881,-12.14359 l -8.75528,-12.04713 H 105.04325 60.197649 l -8.762691,12.065 c -5.298333,7.29506 -8.62397,12.11398 -8.411811,12.1889 0.907156,0.32035 61.383783,14.65615 61.900163,14.67325 0.32411,0.0107 14.47041,-3.27887 31.43622,-7.31022 z M 50.949599,224.968 59.598427,213.02808 45.794611,170.54601 c -7.592098,-23.36513 -13.86231,-42.54056 -13.933804,-42.61205 -0.07149,-0.0715 -6.495517,-2.20162 -14.275606,-4.73362 -13.6889524,-4.455 -14.1456171,-4.58238 -14.1456171,-3.94549 0,0.36198 1.1435366,14.74691 2.5411924,31.96652 l 2.5411925,31.30837 16.7015842,27.40554 c 9.185872,15.07304 16.786102,27.30813 16.889402,27.18908 0.103299,-0.11904 4.079789,-5.5894 8.836644,-12.15636 z m 134.055781,-15.24264 16.54708,-27.18255 2.57839,-31.74354 c 1.41812,-17.45895 2.50221,-31.81973 2.40908,-31.91286 -0.1512,-0.1512 -28.04237,8.76834 -28.33575,9.06173 -0.066,0.066 -6.33083,19.23557 -13.9219,42.59912 l -13.80195,42.47919 8.81796,12.13627 c 4.84988,6.67496 8.89492,12.04829 8.98899,11.94074 0.0941,-0.10755 7.61721,-12.42769 16.7181,-27.3781 z M 163.5068,170.30347 c 7.57135,-23.28333 13.73785,-42.42662 13.70333,-42.54063 -0.15175,-0.50117 -72.00706,-52.441971 -72.36083,-52.306216 -0.33566,0.128805 -71.242736,51.521916 -71.866253,52.088326 -0.179401,0.16296 26.858652,84.13635 27.375745,85.02217 0.06824,0.1169 20.20708,0.1804 44.752988,0.14111 l 44.62891,-0.0714 z M 67.927361,101.13449 c 19.558,-14.209511 35.845749,-26.080379 36.194999,-26.379711 l 0.635,-0.544239 V 59.392006 c 0,-9.698913 -0.0976,-14.818533 -0.28245,-14.818533 -0.40256,0 -58.463492,24.236296 -59.030997,24.641227 -0.594101,0.423907 -41.8074659,48.46657 -41.6772021,48.58336 0.1936773,0.17364 27.7672841,9.12642 28.1773171,9.14879 0.232834,0.0127 16.425333,-11.60286 35.983333,-25.81236 z m 124.361679,21.27626 c 7.74289,-2.51439 14.04406,-4.65615 14.0026,-4.75947 -0.25402,-0.63295 -41.30761,-48.188558 -41.9279,-48.568372 -0.90326,-0.553088 -58.32972,-24.509435 -58.75228,-24.509435 -0.19438,0 -0.28965,4.874406 -0.28965,14.819429 0,13.8844 0.0318,14.84669 0.5046,15.251486 1.18653,1.015939 71.90877,52.319202 72.13502,52.328132 0.1373,0.005 6.58472,-2.04739 14.32761,-4.56177 z"
         id="path14" /></g></g></svg>
