<?xml version="1.0" encoding="UTF-8" standalone="no"?>
<!-- Created with Inkscape (http://www.inkscape.org/) -->

<svg
   width="50.901455mm"
   height="58.338081mm"
   viewBox="0 0 50.901455 58.338081"
   version="1.1"
   id="svg1"
   xml:space="preserve"
   xmlns="http://www.w3.org/2000/svg"
   xmlns:svg="http://www.w3.org/2000/svg"><defs
     id="defs1"><linearGradient
       id="swatch19"><stop
         style="stop-color:#000000;stop-opacity:1;"
         offset="0"
         id="stop20" /></linearGradient></defs><g
     id="layer1"
     transform="translate(-59.566025,-55.369942)"><path
       style="fill:#fff8d9;fill-opacity:1;stroke:#000000;stroke-width:0.264088;stroke-dasharray:none;stroke-opacity:1"
       id="path20"
       d="m 68.196445,132.02819 -26.609084,0 -26.609086,0 13.304543,-23.04414 13.304543,-23.044147 13.304542,23.044147 z"
       transform="matrix(0.93150736,0,0,0.93150736,46.261068,-24.386367)" /><path
       style="fill:#665529;fill-opacity:1;stroke:#000000;stroke-width:0.264583;stroke-opacity:1"
       id="path21"
       d="m 45.821543,140.14726 -27.60407,-10e-6 -27.6040718,0 L 4.4154373,116.24143 18.217472,92.335602 32.019506,116.24143 Z"
       transform="matrix(-0.89918877,0,0,-0.31075578,101.38116,142.31962)" /><path
       style="fill:#e5d5a0;fill-opacity:1;stroke:#000000;stroke-width:0.264583;stroke-opacity:1"
       id="path21-7-2"
       d="m 45.821543,140.14726 -27.60407,-10e-6 -27.6040718,0 L 4.4154373,116.24143 18.217472,92.335602 32.019506,116.24143 Z"
       transform="matrix(0.44938786,-0.77883952,0.2691636,0.15530651,26.59715,69.456535)" /><path
       style="fill:#e5d6a2;fill-opacity:1;stroke:#000000;stroke-width:0.264583;stroke-opacity:1"
       id="path21-7-2-4"
       d="m 45.821543,140.14726 -27.60407,-10e-6 -27.6040718,0 L 4.4154373,116.24143 18.217472,92.335602 32.019506,116.24143 Z"
       transform="matrix(-0.44938786,-0.77883952,-0.2691636,0.15530651,143.43636,69.449702)" /></g></svg>
