<?xml version="1.0" encoding="UTF-8" standalone="no"?>
<!-- Created with Inkscape (http://www.inkscape.org/) -->

<svg
   width="67.018135mm"
   height="72.786469mm"
   viewBox="0 0 67.018135 72.786469"
   version="1.1"
   id="svg1"
   xml:space="preserve"
   xmlns="http://www.w3.org/2000/svg"
   xmlns:svg="http://www.w3.org/2000/svg"><defs
     id="defs1" /><g
     id="layer1"
     transform="translate(-117.79953,-113.40618)"><g
       id="g1"
       transform="matrix(0.50295779,0,0,0.50295779,54.084703,43.144229)"><path
         style="fill:#ec5650"
         d="m 212.24209,220.15363 c 0.18409,-8.41103 0.90725,-33.83874 0.99121,-34.85219 0.10928,-1.31917 1.04504,-2.93977 2.19398,-3.79967 0.73273,-0.54837 4.36362,-1.28259 14.91001,-3.0149 1.65382,-0.27165 7.59473,-1.30191 13.20203,-2.28947 5.60728,-0.98755 10.63813,-1.76129 11.17962,-1.71938 1.92862,0.1492 3.74137,1.84204 4.02028,3.75434 0.13383,0.91745 0.45377,9.08497 0.5891,15.03835 0.0256,1.12607 0.10118,3.28466 0.16793,4.79688 0.0668,1.51223 0.0593,2.99066 -0.0165,3.28543 -0.0758,0.29476 -0.066,0.67974 0.0219,0.85548 0.35902,0.71812 0.59922,13.95288 0.27175,14.9734 -0.43924,1.36884 -1.35765,2.42822 -2.67691,3.08779 -0.72433,0.36211 -6.42641,1.30367 -18.61588,3.07395 -9.66445,1.40357 -18.53504,2.6978 -19.71243,2.87604 -2.38804,0.36157 -3.67404,0.16182 -4.84143,-0.75194 -1.37899,-1.07936 -1.75157,-2.25468 -1.68462,-5.31411 z m 3.81513,3.75141 c 0.37452,0.27306 0.84363,0.47916 1.04247,0.45803 0.77621,-0.0825 21.73636,-3.13314 28.97154,-4.21667 4.20486,-0.62973 7.85496,-1.24983 8.11133,-1.37801 0.64366,-0.3218 0.99859,-1.53475 0.65195,-2.22809 -0.47051,-0.9411 -28.90726,-24.80815 -29.8887,-25.08568 -1.20258,-0.34006 -1.98473,0.14632 -2.42654,1.50896 -0.20462,0.63105 -1.5306,5.6896 -2.94662,11.24123 -1.51201,5.92783 -2.71451,10.08125 -2.91358,10.06329 -0.2066,-0.0187 -0.21636,0.0452 -0.0251,0.16348 0.19167,0.11905 -0.01,1.35829 -0.51933,3.18946 -1.40301,5.04338 -1.40537,5.30139 -0.0575,6.284 z m 10.11534,-9.68611 c -0.0642,-0.75687 0.72912,-1.50727 1.56888,-1.48393 1.1827,0.0329 1.52295,-0.36581 1.31766,-1.54396 -0.15287,-0.87736 -0.0536,-1.27165 0.47465,-1.88443 1.86762,-2.16665 7.09272,-1.3375 8.44658,1.34036 0.3454,0.68415 0.34609,1.07508 0.001,1.87308 -0.36756,0.85106 -0.6126,1.07706 -1.5691,1.44691 -0.62346,0.24103 -1.53903,0.46408 -2.03464,0.49558 -0.83975,0.0534 -0.93182,0.12836 -1.352,1.10138 -0.35683,0.82623 -0.61665,1.08929 -1.24531,1.26069 -2.2475,0.61285 -5.46172,-0.88052 -5.60813,-2.60562 z m 3.14552,1.62122 c 1.21209,0.40408 1.76082,0.2156 1.78385,-0.6127 0.0219,-0.78704 -0.72491,-1.6226 -1.56127,-1.74678 -0.86029,-0.12773 -1.19872,0.0481 -1.43044,0.7432 -0.27089,0.81259 0.0384,1.2264 1.2079,1.6163 z m 2.56102,-3.28037 c 1.10385,0.80752 2.0054,0.97465 2.8851,0.53484 1.06956,-0.53472 1.25447,-1.05603 0.73977,-2.08553 -0.29973,-0.59953 -0.70993,-0.90716 -1.60917,-1.20698 -1.39062,-0.4636 -2.31876,-0.14331 -2.67419,0.92283 -0.26866,0.80585 -0.098,1.28145 0.65849,1.83484 z m -17.37035,7.11185 c 0.0968,-0.0484 1.56859,-6.27509 4.77617,-20.20519 2.1212,-9.21214 2.17242,-9.92846 0.84832,-11.86462 -1.04697,-1.53092 -2.94596,-2.93542 -3.73341,-2.76123 -0.36622,0.081 -0.80061,0.34559 -0.96534,0.58793 -0.19934,0.29321 -0.28142,0.6796 -0.34152,1.32133 -0.0673,0.71865 0.0193,2.133 -0.0573,4.53972 -0.0766,2.40671 -0.23059,8.28177 -0.34219,13.05567 -0.11157,4.77391 -0.24975,10.10097 -0.30705,11.83791 -0.0996,3.02067 -0.0797,3.58953 0.12239,3.48851 z m 2.48205,-22.36748 c 0.079,-1.00269 0.0765,-2.63207 -0.006,-3.62087 -0.0821,-0.98879 -0.0541,-1.8454 0.0623,-1.90354 0.83497,-0.41745 1.37767,4.58001 0.69777,6.42539 -0.53395,1.44922 -0.90483,1.00632 -0.75435,-0.90109 z m 1.9757,-12.34448 c 1.53747,0.91466 3.56687,1.47304 5.24912,1.44428 0.90956,-0.0156 4.1685,-1.07613 13.6304,-4.43574 6.83927,-2.4284 12.8395,-4.53818 13.33382,-4.68839 0.49432,-0.15021 0.81158,-0.30658 0.7048,-0.3479 -0.39736,-0.15246 -33.2432,5.47195 -33.91394,5.80727 -0.3223,0.16117 -0.58658,0.90163 -0.43209,1.21066 0.0627,0.12525 0.70509,0.57949 1.42765,1.00936 z m 6.6744,-1.58288 c 0.14138,-0.32126 0.49367,-0.46313 1.41588,-0.57009 0.67524,-0.0783 2.27518,-0.41779 3.55543,-0.7544 1.28023,-0.33659 2.48603,-0.55921 2.67957,-0.49469 0.46369,0.15458 -0.56064,1.04633 -1.24605,1.08476 -0.27732,0.0156 -0.70741,0.15431 -0.95578,0.30836 -0.2484,0.15401 -1.36965,0.5382 -2.49173,0.85368 -2.55158,0.71738 -3.40667,0.59374 -2.95733,-0.42762 z m -2.81063,6.82271 c 0.6718,0.34621 1.36973,-0.28015 1.49378,-1.34053 0.0814,-0.69582 0.0318,-0.79495 -0.57364,-1.14739 -1.4376,-0.83689 -2.49484,0.12288 -1.75826,1.59617 0.17038,0.34069 0.54755,0.74201 0.83816,0.89181 z m 5.5413,1.76252 c 1.16519,1.00288 4.59282,3.98078 7.61694,6.61756 3.02413,2.63679 6.38084,5.55102 7.45936,6.47607 1.07852,0.92504 3.80259,3.2903 6.0535,5.25615 2.2509,1.96585 4.72083,4.08149 5.48877,4.70143 1.51779,1.2253 2.39775,1.34764 2.77039,0.38514 0.11914,-0.30783 0.15636,-3.42975 -0.012,-6.93367 -0.11891,-2.47549 -0.17433,-10.39619 -0.11486,-7.03392 0.002,0.11991 -0.27392,-5.22496 -0.48947,-11.37254 -0.35464,-10.11415 -0.44861,-11.24487 -0.98785,-11.88647 -1.26118,-1.50027 -0.94594,-1.58353 -15.7623,4.15983 -3.74776,1.45277 -8.29818,3.18827 -10.11204,3.85666 -3.56614,1.31408 -4.19878,1.76002 -4.18371,2.94906 0.0114,0.89962 -0.0451,0.82943 2.27315,2.82476 z m 13.35989,2.30418 c 0.11573,-0.26299 0.58039,-0.62081 1.03262,-0.7951 0.88012,-0.3393 0.81343,-0.40893 1.69358,1.77382 0.13868,0.34401 0.56281,1.10338 1.01575,1.48342 1.182,0.99082 1.4304,0.98364 2.2769,1.08513 1.03224,0.1238 1.18527,-1.51051 1.2334,-1.97703 0.0766,-0.74303 -0.82902,-2.08958 -1.97574,-2.9377 -0.64569,-0.47759 -1.19112,-1.03273 -1.21206,-1.2337 -0.0543,-0.5214 1.86306,-2.82531 2.53823,-3.04995 0.46347,-0.15424 0.77497,0.0495 1.7098,1.11791 0.6287,0.71853 1.39222,1.50782 1.69678,1.75391 0.77821,0.62887 1.08525,1.37352 0.80029,1.77539 -0.66923,0.94374 -2.10359,-1.44072 -2.38609,-1.67019 -0.43626,-0.35433 -1.3189,-1.21043 -1.77403,-0.98291 -0.84828,0.42409 -0.60715,1.25967 0.78284,2.71284 1.44139,1.50692 1.78688,2.41809 1.35811,3.5819 -0.31405,0.85239 -0.89778,1.60476 -1.5044,1.86726 -0.46123,0.19962 -1.43882,0.35964 -2.68184,0.10535 -2.22276,-0.45476 -5.08702,-3.51265 -4.60408,-4.61037 z m 3.10469,-14.40246 c 0.15102,-0.16994 0.0669,-0.19796 -0.21444,-0.0715 -0.25463,0.11442 -0.36642,0.24025 -0.24851,0.27956 0.11792,0.0393 0.32628,-0.0543 0.46293,-0.20808 z"
         id="path5" /><path
         d="m 169.33034,216.61575 c -2.20508,0.1196 -4.32292,1.10002 -8.02028,3.47997 -1.91527,1.23284 -3.52983,2.24087 -3.58889,2.24087 -0.0591,0 -1.24001,0.74469 -2.62411,1.6542 -1.38409,0.9095 -3.80158,2.4787 -5.37151,3.48716 -8.49721,5.45825 -9.0147,5.88669 -10.41013,8.61723 -0.84779,1.65893 -0.91579,4.0122 -0.40481,14.02265 0.23398,4.58391 0.4931,9.82303 0.57537,11.64204 0.24112,5.3309 0.6919,7.03198 2.44636,9.22548 0.89491,1.11886 2.44879,2.0194 3.69677,2.70836 l 1.1117,0.64216 1.56172,0.79525 c 1.11211,0.5583 1.80767,0.87343 2.82755,1.37678 0.58341,0.28793 13.65935,7.08239 15.5854,7.62985 0.86478,0.24547 2.01018,0.3302 3.30736,0.2435 2.14788,-0.14348 4.33286,-1.03218 8.26276,-3.3577 1.05778,-0.62594 2.26429,-1.25319 2.65082,-1.45693 2.06708,-1.08957 4.02157,-2.16939 6.01984,-3.28065 2.11005,-1.17388 4.7291,-2.61451 5.8205,-3.20154 3.23738,-1.74127 3.78041,-2.0928 4.98828,-3.22927 2.2699,-2.1357 3.47989,-4.85191 3.47689,-7.80555 -0.001,-0.95949 -0.36341,-5.55516 -0.80449,-10.21183 -0.44108,-4.65666 -0.92774,-9.95455 -1.08191,-11.77356 -0.4253,-5.01766 -1.62122,-7.88226 -4.25467,-10.19436 -0.65794,-0.57765 -4.15907,-2.77124 -7.77986,-4.87423 -3.62079,-2.10299 -7.65482,-4.45892 -8.96451,-5.23486 -3.56353,-2.11125 -4.88841,-2.70155 -6.7298,-2.9981 -0.81629,-0.13146 -1.56133,-0.18679 -2.29635,-0.14692 z m 1.23191,2.84809 c 1.12934,-0.004 2.12409,0.72978 4.03069,2.69089 7.54912,7.76495 10.0502,10.37534 11.02455,11.04921 0.58784,0.6186 1.16821,1.09295 1.59357,1.5648 0.36365,0.40339 0.94607,1.26877 1.6655,1.87921 0.29536,0.33144 0.39596,0.4535 0.50345,0.56099 0.51225,0.51226 0.26932,1.75378 -0.37399,2.16381 -0.40295,0.25683 -3.75821,0.68745 -10.38444,1.33158 -10.64529,1.03481 -13.56393,1.32985 -17.19747,1.73742 -1.30969,0.14691 -2.55995,0.26605 -2.77823,0.26405 -0.69861,-0.006 -1.69244,-0.64437 -2.08162,-1.33774 -0.4174,-0.74365 -0.24742,-2.36594 0.30927,-2.94878 0.1782,-0.18657 1.29145,-1.95192 2.4741,-3.92281 1.18265,-1.9709 3.29507,-5.46568 4.69339,-7.7665 1.39832,-2.30081 2.54192,-4.26873 2.54192,-4.37283 0,-0.50514 1.96701,-2.39848 2.76589,-2.66213 0.44507,-0.14688 0.83698,-0.22992 1.21342,-0.23117 z m -4.6564,0.22707 c 0.69184,0 0.74547,1.01698 0.10891,2.0549 -0.82854,1.35091 -1.76107,2.78573 -2.01894,3.10495 -0.11756,0.14552 -0.87655,1.336 -1.68605,2.64569 -0.8095,1.30968 -2.15739,3.45254 -2.99605,4.76223 -0.83865,1.30968 -1.86469,2.91761 -2.27991,3.57245 -1.93457,3.05102 -2.65333,3.92345 -3.60635,4.38105 -0.54998,0.26408 -1.65422,0.52488 -2.45458,0.57948 -1.24482,0.085 -1.73638,-0.0373 -3.39573,-0.84354 -1.06688,-0.51839 -2.0849,-0.8696 -2.2234,-0.94217 -0.13311,-0.0697 -0.7424,-0.46707 -1.30178,-1.03772 -0.86524,-0.88268 -1.01718,-1.21004 -1.01718,-2.19053 0,-0.63389 0.17075,-1.39573 0.37913,-1.69324 0.36713,-0.52415 5.08042,-3.76846 7.61444,-5.24102 1.39573,-0.81108 0.5957,-0.4387 2.53267,-1.74359 0.346,-0.2331 3.02161,-1.98447 3.32894,-2.2532 0.24741,-0.21634 0.61999,-0.27741 0.91135,-0.4418 0.25375,-0.14317 0.80852,-0.29363 1.43123,-0.71202 2.84698,-1.91282 6.3308,-4.00192 6.6733,-4.00192 z m 8.36858,0.24247 c 0.47394,0.007 2.2023,0.97361 10.2591,5.62016 2.18475,1.26 4.66528,2.49178 5.51227,2.73713 0.84699,0.24534 1.71006,0.58394 1.91722,0.75209 0.8602,0.6982 2.61398,3.38566 2.7772,4.2557 0.21165,1.12824 -0.19132,2.69808 -0.9134,3.55806 -0.67377,0.80246 -2.13763,0.5751 -3.12551,0.20241 -0.27587,-0.10408 -0.48721,-0.29774 -0.86819,-0.62469 -0.61949,-0.56717 -1.19102,-1.18957 -1.64803,-1.61412 -0.32113,-0.29832 -1.08141,-1.02621 -1.59358,-1.47029 -0.85641,-0.74255 -1.29866,-1.56698 -2.05901,-2.42272 -0.0497,-0.0555 -2.46676,-2.4852 -5.37151,-5.40029 -3.3163,-3.32812 -5.18698,-5.39207 -5.02732,-5.54617 0.0313,-0.0302 0.073,-0.0483 0.14076,-0.0473 z m 1.03156,8.2381 c -0.34286,-0.0183 -0.7006,0.0642 -1.06444,0.25892 -1.42743,0.76394 -1.85595,4.10337 -0.82504,6.4339 0.62628,1.41583 1.07115,1.93127 1.94702,2.25731 0.85887,0.31971 1.5695,-0.007 2.29122,-1.05314 0.549,-0.79572 0.60746,-1.12774 0.50756,-2.88303 -0.1684,-2.9598 -1.37056,-4.9346 -2.85632,-5.01396 z m -6.51301,0.5312 c -0.57326,-0.0208 -1.12523,0.11745 -1.46206,0.42228 -0.63603,0.57563 -0.6502,1.27671 -0.0205,1.01204 1.4911,-0.62676 2.53732,-0.32932 2.82138,0.80244 0.22563,0.89902 -0.34861,2.05786 -1.97065,3.97623 -1.35596,1.60367 -1.66302,2.63319 -0.85073,2.85426 0.25466,0.0693 0.76125,0.058 1.12506,-0.0257 0.3638,-0.0837 1.31453,-0.22115 2.11346,-0.30515 1.11512,-0.1173 1.47364,-0.2636 1.54324,-0.6288 0.17844,-0.93697 -0.45258,-1.28621 -1.98093,-1.09526 -1.73598,0.2169 -1.85957,-0.17596 -0.524,-1.66961 1.20628,-1.34906 1.49391,-1.96462 1.49391,-3.20462 0,-0.82625 -0.15244,-1.17706 -0.69763,-1.60591 -0.42247,-0.33231 -1.01724,-0.51146 -1.5905,-0.53221 z m 6.1719,0.53632 c 0.5609,-0.0457 1.18132,0.5381 1.70865,1.69735 0.55008,1.20926 0.65696,3.83094 0.17569,4.31221 -0.35333,0.35333 -1.24476,0.41383 -1.69632,0.11508 -1.01349,-0.67055 -1.73121,-4.16051 -1.1004,-5.35097 0.26078,-0.49214 0.57584,-0.74625 0.91238,-0.77367 z m -18.39034,0.34523 c -0.47654,0.0559 -0.14458,-0.0334 -1.10107,0.20444 -0.61278,0.15237 -0.83659,0.35459 -0.86503,0.69682 -0.0319,0.38357 0.22983,0.43039 0.74704,-0.0405 0.53562,-0.25359 1.34114,-0.55319 1.34114,0.39517 0,0.78486 -0.81832,1.69435 -1.86825,1.69435 -0.4239,0 -0.39288,-0.0329 -0.99268,-0.0355 -0.82923,-0.004 -1.12323,-0.23364 -1.82364,-0.61271 -0.28049,-0.15181 -0.42919,-0.27766 -0.74635,-0.28928 -0.3064,-0.0112 -0.37192,0.0382 -0.49978,0.28834 -0.0662,0.12957 -0.29404,0.93308 -0.37426,1.0545 -0.23808,0.36035 -0.51477,1.29694 -0.51477,1.58798 0,0.29398 -0.12065,1.05088 0.42873,0.73837 1.35478,-0.77069 1.09945,-2.68801 1.32358,-2.55158 0.4837,0.29443 0.70538,0.33861 1.16075,0.46057 0.59091,0.15825 1.04078,0.18653 1.9021,0.13755 1.17208,-0.0666 2.44376,-0.99261 3.03221,-2.09383 0.52355,-0.97986 0.30043,-1.17812 -0.005,-1.37164 -0.38692,-0.24508 -0.66285,-0.31956 -1.14462,-0.26302 z m 39.34211,6.77603 c 0.79595,0 1.28131,0.83503 1.46001,2.51315 0.2882,2.70643 1.42936,14.88565 1.76722,18.85886 0.17667,2.07753 0.24792,3.85057 0.15822,3.94027 -0.22184,0.22184 -0.2306,0.19066 -1.89051,-6.26231 -0.8048,-3.1287 -1.96599,-7.62593 -2.57992,-9.99401 l -1.11684,-4.30605 0.46543,-1.77235 c 0.54563,-2.08034 1.06876,-2.97756 1.73639,-2.97756 z m -53.39661,1.63057 c 0.0878,0.007 0.35434,0.0478 0.4192,0.0267 0.29279,0.21062 0.2734,-0.0133 0.89902,0.49523 0.50406,0.42722 1.58862,1.24426 2.40937,1.81551 2.86009,1.99064 3.93103,3.79198 3.93103,6.60856 0,1.31762 -1.33405,4.87679 -4.61531,12.30989 -0.32119,0.7276 -0.91739,2.15617 -1.32438,3.17482 -0.40699,1.01864 -0.93062,2.23849 -1.16411,2.71144 -0.41008,0.83063 -0.91911,1.09991 -1.2052,0.63702 -0.19331,-0.3128 -1.23395,-16.74989 -1.53912,-24.30948 -0.0611,-1.51393 0.41395,-3.23965 1.35624,-3.406 0.27562,-0.0487 0.61273,-0.0816 0.83326,-0.0637 z m 49.16249,1.07677 c 0.32525,-0.034 0.67803,0.12844 0.96683,0.56921 0.37542,0.57294 0.3863,0.76515 0.0801,1.40555 -0.48464,1.01427 -1.43594,1.12733 -1.84941,0.21987 -0.49893,-1.09506 0.0869,-2.11979 0.80244,-2.19463 z m -4.01631,2.11449 c 0.20853,0.006 0.36158,0.0194 0.44797,0.0411 0.75755,0.19013 1.74878,1.54521 1.75078,2.3919 5.4e-4,0.27951 -0.90688,2.30384 -2.01689,4.49818 -10.22806,20.21972 -12.40577,24.44075 -12.87704,24.95781 -0.65014,0.7133 -1.5236,0.76517 -2.23778,0.13254 -0.28749,-0.25466 -2.53318,-3.59003 -4.99033,-7.411 -2.45715,-3.82097 -5.26625,-8.16647 -6.24279,-9.65701 -1.96729,-3.00277 -3.73515,-5.78012 -4.63586,-7.28154 -1.13697,-1.89523 -0.45158,-4.30786 1.32644,-4.66977 0.94679,-0.19272 4.66727,-0.65109 6.67226,-0.82196 2.67409,-0.22788 11.30225,-1.1382 13.62605,-1.4374 3.51119,-0.45209 7.7175,-0.78328 9.17719,-0.74285 z m 8.50216,0.50448 c -0.0587,0.012 -0.12264,0.0396 -0.19316,0.0832 -0.38076,0.23535 -0.3647,1.28719 0.0411,2.62925 l 0.32981,1.0891 0.19008,-1.71585 c 0.16436,-1.47928 0.043,-2.16973 -0.36783,-2.08572 z m -42.2385,0.46235 c 1.37681,0.0972 1.73305,2.02862 0.50756,2.75254 -0.98461,0.58161 -2.55784,0.60209 -2.77514,0.036 -0.58522,-1.52505 0.54089,-2.91038 2.26758,-2.7885 z m 38.25507,2.17512 c 0.34955,0.0225 0.68418,0.16948 0.92163,0.43666 0.22632,0.25466 0.66706,1.35598 0.98018,2.44739 0.31312,1.0914 0.67282,2.28188 0.79936,2.64568 0.12654,0.3638 0.60913,1.97069 1.07163,3.57142 0.4625,1.60073 1.2575,4.22081 1.76722,5.82154 1.14397,3.59267 1.12742,5.57118 -0.0606,7.28565 -0.91198,1.31599 -1.77853,1.85305 -4.69032,2.90666 -1.0709,0.3875 -1.49329,0.60647 -2.24703,0.93498 -0.60203,0.17108 -1.56898,0.60287 -2.19669,0.79525 -0.72602,0.18313 -4.0609,1.20091 -6.5315,2.04873 -3.63936,1.2489 -5.1195,1.64701 -5.44446,1.46515 -0.24547,-0.13737 -0.44592,-0.37449 -0.44592,-0.52708 0,-0.31514 1.13659,-2.5977 9.02616,-18.12732 3.09303,-6.08825 5.80958,-11.21509 6.0373,-11.39237 0.29907,-0.23282 0.66352,-0.33483 1.01306,-0.31234 z m -47.90591,0.15617 c -0.15571,0.0459 -0.36604,0.32411 -0.58668,0.78908 -0.36502,0.76922 -0.47169,1.62049 -0.45721,3.65361 0.0104,1.45784 0.0528,2.94871 0.0945,3.31251 0.0417,0.3638 -0.0358,0.30162 0.0771,0.64626 0.15556,0.47493 0.25229,0.3026 0.37502,0.41098 0.15554,0.13735 0.31678,-0.30546 0.50653,-0.87641 0.60627,-1.82428 0.76494,-2.43806 0.92779,-0.23221 0.0493,0.66803 0.21128,0.48941 0.69969,0.62572 0.55068,-1.33976 0.33589,-0.59631 0.66784,-2.43609 0.2332,-1.29244 -0.11856,-2.60618 -0.61955,-2.00352 -0.26343,0.31689 -0.14118,0.20988 -0.29077,0.59386 -0.14959,0.38399 -0.34389,0.62606 -0.43255,0.53736 -0.0887,-0.0887 -0.25508,-1.19193 -0.36989,-2.4515 -0.1148,-1.25957 -0.32053,-2.40111 -0.45618,-2.53677 -0.0381,-0.0381 -0.0837,-0.0482 -0.13563,-0.0329 z m -0.46852,2.52342 c 0.0257,-0.007 0.0539,-0.005 0.0842,0.005 0.20605,0.068 0.36127,0.73894 0.41098,1.78058 0.0751,1.57307 -0.15157,2.36054 -0.56099,1.95112 -0.0994,-0.0994 -0.18083,-1.00522 -0.18083,-2.01174 0,-1.17765 0.0669,-1.67335 0.24659,-1.72509 z m 33.80313,0.7336 c -0.65487,0 -0.7725,0.73988 -0.91238,5.75475 -0.14986,5.3728 -0.17413,5.30473 1.60282,4.3944 1.51488,-0.77607 1.74677,-1.76537 0.38324,-1.63364 l -0.85997,0.0832 0.0884,-4.29988 c 0.0749,-3.65425 0.0299,-4.29885 -0.30207,-4.29885 z m -24.50778,0.54352 c 0.68632,-0.0335 1.40797,0.12324 1.78468,0.44797 0.53982,0.46533 1.87655,2.45428 10.89919,16.22344 6.48775,9.90073 6.05916,9.12143 5.38076,9.79983 -0.53989,0.53989 -0.58222,0.54246 -2.76589,0.11302 -1.21993,-0.23991 -3.05212,-0.59547 -4.07076,-0.79011 -1.01865,-0.19465 -3.44714,-0.67205 -5.3972,-1.06033 -2.38398,-0.47468 -3.3651,-0.72299 -4.82594,-1.17746 -2.10296,-0.46759 -3.91628,-0.76157 -5.04889,-0.89286 -1.13261,-0.13129 -1.43692,-0.0427 -1.73125,-0.074 -0.0661,-0.007 -0.82439,0.0355 -1.28535,0.0627 -0.42929,-0.33938 -0.93491,-0.74207 -1.13019,-0.89491 -1.15556,-0.90435 -1.69251,-2.03126 -1.46515,-3.07207 0.10099,-0.46232 0.89102,-2.38859 1.75592,-4.28036 1.97598,-4.32204 2.07743,-4.5467 3.25907,-7.27538 2.00449,-4.62884 3.00749,-6.58062 3.52621,-6.85824 0.30358,-0.16247 0.70299,-0.25115 1.11479,-0.27124 z m 16.10528,0.51475 c -0.49884,0 -0.52566,0.111 -0.36269,1.55145 0.15906,1.40596 0.12082,1.58933 -0.40892,1.96038 -0.66576,0.46632 -0.54681,1.32219 0.28152,2.02921 0.33116,0.28265 0.56886,1.06016 0.75929,2.4813 0.15253,1.13831 0.27741,2.18088 0.27741,2.31587 0,0.5356 1.04863,0.20069 1.66447,-0.53119 0.63909,-0.75952 2.07816,-3.96254 2.40115,-5.3448 0.22841,-0.97748 -0.30557,-1.37084 -1.36137,-1.00279 -0.44784,0.15613 -1.15025,0.24529 -1.5607,0.19829 -0.68298,-0.0783 -0.75189,-0.18748 -0.81579,-1.27712 -0.11221,-1.91484 -0.28342,-2.3806 -0.87437,-2.3806 z m 2.67035,4.79922 c 0.40336,0.0151 0.71088,0.1047 0.7973,0.24454 0.25533,0.41312 -0.0957,1.61587 -0.80963,2.77103 -0.95096,1.53868 -1.37146,1.11869 -1.42096,-1.42096 l -0.0288,-1.49905 1.03156,-0.0843 c 0.15102,-0.0124 0.29604,-0.0163 0.4305,-0.0113 z m 20.10721,4.99033 c -0.13466,0 -0.67695,0.77228 -1.2052,1.71687 -0.52824,0.94459 -1.07546,1.78893 -1.2165,1.87613 -0.14104,0.0872 -0.6687,-0.0364 -1.17232,-0.27536 -1.06833,-0.50695 -1.43843,-0.36656 -1.43843,0.54763 0,0.49501 0.1975,0.72938 0.79319,0.93704 0.47075,0.1641 0.79422,0.46333 0.79422,0.73565 0,0.25256 0.0787,0.53899 0.17569,0.63599 0.29496,0.29496 0.578,0.19988 0.8497,-0.28563 0.23104,-0.41284 0.3531,-0.42444 1.13842,-0.10583 1.62987,0.66121 1.99879,0.66357 2.34464,0.0175 0.64521,-1.2056 -0.19721,-5.79996 -1.06341,-5.79996 z m -36.22072,0.80347 c -0.4077,0.002 -0.83577,0.10422 -1.03875,0.3072 -0.41451,0.41451 -0.40685,1.1908 0.0134,1.36035 v -10e-4 c 0.56515,0.22805 0.67769,0.19297 1.41685,-0.44283 0.4142,-0.35628 0.17238,-0.70202 0.0627,-0.8795 -0.12446,-0.20118 -0.0464,-0.34624 -0.45413,-0.34419 z m 36.22277,1.31308 c 0.3332,0 0.89027,1.99162 0.69764,2.49362 -0.26927,0.7017 -2.02818,0.24549 -2.02818,-0.52605 0,-0.5061 0.98836,-1.96757 1.33054,-1.96757 z m -35.17888,2.11347 c -1.5733,-0.0696 -3.2633,0.47744 -3.75636,1.36959 -0.42442,0.76793 -0.33814,1.24611 0.36166,2.00044 l 0.54661,0.58976 -0.636,0.24453 -0.58359,-0.1243 c -0.42215,-0.16375 -0.68031,-0.29451 -0.92984,-0.50448 -0.48288,-0.40632 -0.85993,-0.62851 -1.06752,-0.65654 -0.20759,-0.028 -0.24507,0.13783 -0.0483,0.50551 0.15032,0.28088 0.64012,0.66126 0.96786,0.72436 0.56716,0.29915 1.21449,0.44834 1.96654,0.62362 1.83653,0.54682 5.34146,-0.0985 6.26128,-1.30384 0.81716,-1.0708 0.0752,-2.54957 -1.59666,-3.18304 -0.44965,-0.17037 -0.96125,-0.26243 -1.48569,-0.28563 z m -0.74285,0.7901 c 1.30492,0.0278 2.33976,1.26038 1.45076,2.47616 -0.48253,0.6599 -2.04785,0.83477 -2.7772,0.31029 -0.79429,-0.57117 -0.79796,-1.81335 -0.007,-2.36725 0.4337,-0.30377 0.89866,-0.42845 1.33364,-0.4192 z m 38.08452,6.16779 c 0.69622,-0.0829 -0.71019,0.87626 -3.85808,2.56452 -1.43732,0.77085 -2.26045,1.40978 -2.90357,1.77954 -0.88908,0.51117 -2.03768,1.10186 -2.70631,1.50933 -1.73407,1.05081 -3.64554,1.76024 -5.40234,2.75973 -3.70564,2.15306 -5.91726,3.22308 -6.36711,3.0803 -1.16578,-0.37 -0.76875,-1.52694 1.15999,-3.38237 1.35298,-1.30156 2.53242,-1.87382 7.98535,-3.87657 2.26009,-0.75969 3.50795,-1.529 5.71879,-2.37855 1.49049,-0.57274 1.56369,-0.58463 1.95524,-0.72538 0.72354,-0.23051 0.69866,-0.24773 1.19184,-0.3668 1.0683,-0.3691 0.86023,-0.15886 1.81551,-0.52195 0.71259,-0.27084 1.17861,-0.41416 1.41069,-0.4418 z m -47.40863,2.01689 c 0,-0.0214 0.90019,-0.044 2.21518,0.0904 1.79494,0.33947 2.88306,0.55208 5.08588,0.98636 2.20283,0.43428 6.05506,1.38609 9.09705,2.00044 7.53849,1.51308 8.30418,1.76673 8.72511,2.89433 0.24301,0.65096 -0.16509,2.22348 -0.74695,2.87789 -0.74057,0.83291 -2.34066,1.49391 -3.61766,1.49391 -0.55508,0 -1.21664,-0.18581 -2.5676,-0.79011 0.12561,-0.0685 0.1683,-0.75731 0.22399,-1.81858 0.0442,-0.84309 -1.80561,-3.04126 -3.00427,-2.94776 -1.8681,0.14573 -3.44658,0.90225 -3.99164,1.39733 -5.4435,-2.81208 -8.12929,-4.04191 -9.26453,-4.67695 -1.10329,-0.66984 -1.56085,-0.99239 -2.15456,-1.50727 z m 26.72913,3.2077 c 0.60213,-0.0123 0.92919,0.25465 0.99354,0.80552 0.0599,0.51307 -0.0877,0.75227 -0.60825,0.98943 v 10e-4 c -0.85742,0.39024 -1.00772,0.38905 -1.40247,-0.005 -0.56265,-0.56265 -0.38176,-1.50822 0.32262,-1.68501 0.26246,-0.0659 0.49385,-0.10171 0.69456,-0.10583 z m 5.73523,1.57919 c -0.4223,0 -1.49908,0.63779 -1.62337,0.96169 -0.22864,0.59584 0.50291,0.40817 1.16821,-0.30001 0.34177,-0.3638 0.54646,-0.66168 0.45516,-0.66168 z m -17.72044,1.0295 c 1.01392,0.0471 2.34634,0.51138 2.53163,1.1528 l 0.42742,1.47953 c 0.18126,0.62744 0.30608,0.94718 0.39968,1.06342 -1.18229,-0.53253 -2.84896,-1.35907 -5.60577,-2.76693 -0.16018,-0.0818 -0.26203,-0.1377 -0.41817,-0.21782 0.42763,-0.10029 1.01055,-0.28605 1.81242,-0.6103 0.21289,-0.0861 0.51481,-0.11641 0.85279,-0.1007 z"
         style="baseline-shift:baseline;display:inline;overflow:visible;vector-effect:none;fill:#f76424;enable-background:accumulate;stop-color:#000000;stop-opacity:1"
         id="path14" /><path
         style="fill:#1e99a0"
         d="m 180.16171,196.66137 c -1.79852,-0.48358 -4.76592,-2.60009 -6.10743,-4.35616 -1.24858,-1.63443 -5.05993,-6.88306 -10.26856,-14.14093 -3.78963,-5.28057 -4.62139,-7.13516 -4.38842,-9.78488 0.14285,-1.62471 5.79429,-14.93871 7.38727,-17.40335 1.09112,-1.68818 6.17406,-6.76461 8.11698,-8.10659 2.07382,-1.43239 3.90255,-1.83693 11.74201,-2.59753 8.40531,-0.81549 10.59415,-0.77842 12.51552,0.21198 1.63481,0.84269 2.34091,1.58485 6.78132,7.12763 3.70433,4.62396 11.05121,15.71799 11.91567,17.99305 0.67477,1.77585 0.86452,3.85186 0.50522,5.52733 -0.16899,0.78801 -1.20538,3.39728 -2.30308,5.79838 -1.09771,2.40109 -2.54132,5.55625 -3.20804,7.01146 -2.12469,4.63749 -2.7638,5.31826 -8.00255,8.52413 -5.49761,3.36428 -5.47711,3.35883 -15.19386,4.03789 -8.76775,0.61274 -7.85557,0.5976 -9.49205,0.15759 z m 7.75258,-2.27743 c 11.05664,-0.7474 10.73185,-0.67143 15.46405,-3.61739 2.9009,-1.80591 3.40574,-2.21604 3.10184,-2.51995 -0.40159,-0.40158 -10.27321,-0.5812 -12.6713,-0.23055 -1.19073,0.17411 -4.46265,0.96317 -7.27093,1.75348 -2.80827,0.7903 -5.86446,1.64783 -6.79152,1.90561 -1.88582,0.52438 -2.24408,0.95145 -1.35066,1.61005 1.89349,1.39582 3.08651,1.53353 9.51852,1.09875 z m 1.90028,-1.32637 c 0.0658,-0.19749 0.69492,-0.50581 1.39797,-0.68516 0.70306,-0.17935 1.46895,-0.52399 1.70199,-0.76587 0.39393,-0.40886 0.30747,-0.42685 -1.22993,-0.25599 -1.95356,0.21712 -2.20425,-0.14865 -0.52917,-0.77207 1.13687,-0.42312 2.11234,-0.55567 3.43959,-0.46741 1.01313,0.0674 0.93032,0.74038 -0.17106,1.39021 -0.66481,0.39225 -0.86333,0.66533 -0.76289,1.04941 0.10655,0.40748 0.001,0.51969 -0.4904,0.52149 -0.3444,0.001 -1.26734,0.0793 -2.05098,0.17338 -1.13569,0.13636 -1.40052,0.0982 -1.30512,-0.18799 z m -9.59225,-2.78067 c 11.10434,-3.41243 11.46859,-3.58004 12.58665,-5.79178 0.66134,-1.30827 0.66157,-1.31145 0.66157,-9.14232 v -7.8336 l -0.6744,-1.35333 c -0.37091,-0.74433 -1.08025,-1.66289 -1.5763,-2.04125 -0.53029,-0.40447 -3.60472,-1.62304 -7.46154,-2.95744 -7.69061,-2.66081 -9.00822,-2.857 -10.878,-1.61973 -1.06072,0.70191 -8.33201,9.52371 -9.3881,11.39001 -0.92867,1.64112 -0.9396,1.62036 5.66888,10.76534 1.5248,2.11005 3.41194,4.72942 4.19364,5.82083 2.06934,2.88919 2.72521,3.54413 3.6926,3.6874 0.0623,0.009 1.49104,-0.40664 3.175,-0.92413 z m -1.28024,-11.06918 c -0.34984,-0.42152 -1.25158,-0.80415 -2.8679,-1.21691 -1.46954,-0.37528 -1.46212,-0.84347 0.0519,-3.27348 1.33386,-2.14093 2.52784,-4.7081 2.52784,-5.4351 0,-0.69578 0.63885,-1.13551 1.50535,-1.03616 0.66452,0.0762 0.75205,0.20054 0.82298,1.16901 0.0691,0.94351 -0.078,1.28587 -1.1367,2.64583 -3.07696,3.95252 -3.21002,4.21178 -2.31611,4.5127 1.28852,0.43376 2.68272,1.22172 2.82701,1.59773 0.15317,0.39915 -0.50356,1.40479 -0.91739,1.40479 -0.10515,0 -0.32877,-0.16578 -0.49693,-0.36841 z m 29.52918,7.25922 c 1.13942,-0.69474 1.19075,-0.78773 4.60764,-8.34602 2.66151,-5.88737 3.00195,-6.80827 3.09653,-8.37636 0.1693,-2.80701 0.038,-3.09145 -4.80386,-10.40906 -1.44431,-2.18281 -2.75892,-4.05622 -2.92134,-4.16313 -0.88796,-0.58448 -1.73634,-0.11917 -5.9066,3.23963 -7.28422,5.86685 -7.09073,5.44535 -7.30391,15.91082 -0.0967,4.74997 -0.0553,7.93771 0.11099,8.54004 0.31566,1.14323 1.65306,2.74416 2.60137,3.11395 0.82541,0.32187 5.90287,0.93455 8.08616,0.97573 1.14806,0.0217 1.82156,-0.11277 2.43302,-0.4856 z m -3.44725,-9.97762 c -0.097,-0.097 -0.17714,-0.78162 -0.17806,-1.52135 -10e-4,-1.20216 -0.082,-1.39065 -0.75817,-1.77526 -1.59017,-0.90449 -1.20179,-4.28641 0.72485,-6.31173 1.95612,-2.0563 3.41917,-1.1179 3.08738,1.98025 -0.14972,1.39812 -0.11049,1.74776 0.20994,1.87072 1.08595,0.41672 0.63089,3.19187 -0.79692,4.85995 -0.85684,1.00103 -1.81124,1.37521 -2.28902,0.89742 z m 2.00027,-1.87413 c 0.66699,-0.75957 0.83262,-1.63231 0.34527,-1.81933 -0.5595,-0.2147 -1.4636,0.62122 -1.4636,1.35322 0,1.00189 0.47427,1.19956 1.11833,0.46611 z m -1.26247,-3.67008 c 0.64289,-0.2467 1.23894,-1.58263 1.04712,-2.34691 -0.36577,-1.45733 -2.49048,-0.16414 -2.49048,1.51582 0,0.9663 0.43632,1.21753 1.44336,0.83109 z m -39.61112,-5.72263 c 6.29327,-8.28332 6.64445,-8.91281 8.30084,-14.87917 1.10948,-3.99641 1.20523,-4.63385 0.69602,-4.63385 -0.18222,0 -1.64111,1.27992 -3.24198,2.84427 -2.21648,2.16592 -3.14097,3.28599 -3.87628,4.69636 -1.13536,2.17765 -5.98827,13.35636 -6.35946,14.64905 -0.30582,1.06499 -0.0853,2.15199 0.43654,2.15199 0.20666,0 2.02661,-2.17289 4.04432,-4.82865 z m 1.21077,-5.91564 c -0.10915,-0.28446 0.12351,-0.65 0.70173,-1.10253 0.78034,-0.61071 1.78657,-2.33715 1.51844,-2.60528 -0.0591,-0.0591 -0.41224,0.1324 -0.78483,0.42548 -0.89009,0.70014 -1.0427,0.67284 -0.94228,-0.16857 0.0461,-0.38579 0.39628,-0.93372 0.77829,-1.21762 1.48277,-1.10195 2.35898,0.56221 1.44613,2.74664 -0.82636,1.97751 -2.29701,3.01759 -2.71748,1.92188 z m 28.59313,1.78876 c 1.17986,-0.52191 7.81258,-5.32364 9.46694,-6.85355 0.94828,-0.87695 1.15082,-1.79821 0.58779,-2.67362 -0.95775,-1.48916 -5.94877,-7.68468 -6.69963,-8.31649 -0.43515,-0.36615 -1.34581,-0.87755 -2.0237,-1.13644 -1.18179,-0.45133 -1.44087,-0.45122 -6.2943,0.002 -11.82328,1.10527 -12.47431,1.25547 -13.61831,3.14179 -0.59734,0.98495 -2.15909,7.15772 -2.15909,8.53373 0,1.14705 0.55386,2.27218 1.47531,2.997 0.53483,0.42069 11.13276,4.11922 14.00281,4.88677 1.10967,0.29677 3.99809,-0.0225 5.26218,-0.58168 z m -7.07776,-7.26827 c -1.03872,-1.06497 -2.21042,-2.14656 -2.60377,-2.40354 -0.67969,-0.44406 -0.75374,-0.44448 -1.49186,-0.008 -1.59442,0.94184 -2.2553,-0.36969 -0.80236,-1.59226 0.45489,-0.38276 0.93071,-0.66123 1.05739,-0.61883 0.29002,0.0971 5.31024,4.03254 6.54117,5.12777 1.0025,0.89199 0.95105,1.43161 -0.13649,1.43161 -0.49068,0 -1.19218,-0.52975 -2.56408,-1.9363 z m 4.86974,-0.82803 c -0.17487,-0.2107 -0.4053,-1.01437 -0.51209,-1.78594 -0.2252,-1.62725 -0.59331,-2.4031 -1.41236,-2.97679 -0.81322,-0.5696 -1.7807,-0.51252 -2.48213,0.14645 -0.69007,0.64828 -1.16112,0.47347 -1.16112,-0.4309 0,-0.83002 0.70443,-1.18432 2.35465,-1.18432 1.10579,0 1.48626,0.13623 2.24776,0.80484 0.53055,0.46582 0.98854,1.16237 1.0873,1.65364 0.41161,2.04759 0.55566,2.13095 2.10382,1.21751 0.89142,-0.52594 0.98215,-0.53274 1.61106,-0.12066 0.80776,0.52926 0.73264,0.66907 -1.07816,2.00678 -1.51061,1.11596 -2.24103,1.29319 -2.75873,0.66939 z"
         id="path3" /><path
         style="fill:#2473ba"
         d="m 236.76278,283.14995 c -0.9278,-0.20978 -18.63673,-4.8678 -22.60134,-5.94489 -2.09876,-0.57018 -4.21007,-1.28028 -4.69181,-1.57801 -1.28721,-0.79554 -2.66367,-2.52432 -3.11673,-3.91447 -0.35254,-1.08174 -1.53725,-7.51904 -3.08341,-16.75426 -0.62062,-3.707 -0.41576,-5.77269 0.82094,-8.27778 0.88563,-1.79396 10.65625,-15.6173 12.09753,-17.11542 1.05925,-1.10103 2.94324,-2.00478 4.62584,-2.21902 0.69207,-0.0881 2.4696,0.11222 4.57189,0.51528 7.10539,1.36227 11.76524,2.27257 15.74271,3.07531 2.25557,0.45523 4.65308,0.93006 5.3278,1.05519 1.72145,0.31923 3.14352,1.10765 4.2932,2.38021 1.94008,2.14743 2.08593,3.20213 1.46192,10.57137 -1.10896,13.09617 -1.15304,13.38089 -2.86564,18.50971 -0.85557,2.56224 -1.98467,5.84925 -2.50911,7.30446 -0.52444,1.4552 -1.37161,3.91698 -1.88259,5.4706 -1.14903,3.49358 -2.19383,5.09198 -3.95787,6.05498 -1.30451,0.71213 -3.20036,1.10029 -4.23333,0.86674 z m 2.19873,-2.74181 c 1.59475,-0.9723 1.66773,-1.46437 1.5822,-10.66751 l -0.0768,-8.25921 -0.67594,-1.31266 c -0.99866,-1.93935 -2.20696,-2.55446 -7.26156,-3.69662 -6.46796,-1.46153 -12.9148,-2.94285 -19.13403,-4.39652 -3.32949,-0.77823 -5.87685,-1.24671 -6.21771,-1.14349 -1.07003,0.32402 -1.76835,1.19924 -1.76386,2.21068 0.002,0.52034 0.41783,3.44638 0.92339,6.50232 0.50557,3.05593 0.9204,5.97375 0.92185,6.48403 0.001,0.51029 0.12628,1.34373 0.27738,1.85209 0.15111,0.50836 0.38981,1.50912 0.53045,2.22391 0.29377,1.4931 1.17601,2.7756 2.45172,3.56403 0.48784,0.3015 3.37765,1.20622 6.42181,2.01048 3.04416,0.80426 8.63046,2.28109 12.414,3.28184 3.78354,1.00075 7.29589,1.83328 7.80521,1.85007 0.51227,0.0169 1.31738,-0.20806 1.80186,-0.50344 z m -7.5014,-3.79454 c -1.44426,-0.67254 -2.23796,-1.61675 -2.23796,-2.66236 0,-2.07032 4.80069,-1.32113 5.96528,0.93094 0.50558,0.97768 0.32213,1.6516 -0.55886,2.053 -0.97712,0.44521 -1.67359,0.37452 -3.16846,-0.32158 z m 2.10803,-1.13772 c 0.26281,-0.68485 -0.18974,-0.92104 -1.59347,-0.83165 l -1.29006,0.0821 0.64158,0.59531 c 0.75951,0.70474 1.998,0.78992 2.24195,0.15419 z m -18.54175,-3.01365 c -1.03787,-0.51375 -2.47299,-2.15983 -2.47299,-2.83651 0,-0.17034 0.37165,-0.5019 0.82589,-0.7368 2.36442,-1.22269 6.70669,1.87675 5.00847,3.57496 -0.69879,0.6988 -1.94755,0.69818 -3.36137,-0.002 z m 2.02492,-0.64627 c 0.42965,-0.5177 -0.0604,-1.15833 -0.87754,-1.14723 -1.87031,0.0254 -2.4014,0.73529 -0.9084,1.21424 1.21259,0.38898 1.41377,0.38143 1.78594,-0.067 z m 13.87969,-6.96504 c -2.11014,-0.98728 -3.14325,-3.08879 -2.01875,-4.10645 1.15317,-1.04361 4.42976,-0.23145 5.57929,1.38291 0.64511,0.90597 0.72019,2.20769 0.15442,2.67724 -0.68766,0.57071 -2.54466,0.59385 -3.71496,0.0463 z m 1.94313,-1.15667 c 0.0583,-0.30602 -0.26793,-0.61956 -1.02547,-0.98557 -1.65352,-0.79889 -2.14465,-0.26526 -0.85547,0.92952 0.78503,0.72754 1.74753,0.75622 1.88094,0.056 z m -19.45496,-3.02701 c -1.43723,-0.7086 -2.71786,-2.258 -2.71786,-3.2883 0,-0.13604 0.23812,-0.48548 0.52917,-0.77652 1.5614,-1.56141 6.08542,0.60619 6.08542,2.91571 0,1.45242 -2.05335,2.05793 -3.89673,1.14911 z m 1.65214,-0.99259 c 0.47751,-0.34917 0.4571,-0.39496 -0.41245,-0.92505 -1.15692,-0.70528 -1.84088,-0.72219 -1.84088,-0.0455 0,0.50839 0.90739,1.33791 1.46351,1.33791 0.15809,0 0.51351,-0.1653 0.78982,-0.36735 z m 27.37226,17.24022 c 0.17915,-0.47607 0.42494,-1.1037 0.54619,-1.39474 0.27422,-0.65823 3.13437,-8.98204 4.52881,-13.18005 1.49363,-4.49661 1.47385,-4.36344 2.48194,-16.71183 0.44732,-5.47931 0.46811,-6.22375 0.17386,-6.22375 -0.20029,0 -0.82765,1.41626 -4.68816,10.58333 -3.04087,7.22078 -3.25048,8.20168 -3.56205,16.66875 -0.23049,6.26387 -0.34796,10.75061 -0.29307,11.19426 0.0521,0.42148 0.49258,-0.0859 0.81248,-0.93597 z m 3.04515,-16.64285 c 0.42071,-2.64094 0.9916,-4.71301 1.38874,-5.04043 0.38247,-0.31533 0.40731,-0.19595 0.25775,1.23854 -0.21292,2.04211 -1.01972,4.68763 -1.47595,4.83971 -0.27824,0.0927 -0.315,-0.13101 -0.17054,-1.03782 z m -5.47426,-4.96829 c 0.53991,-0.27771 1.30023,-0.84326 1.68961,-1.25677 0.72091,-0.7656 6.97556,-14.05666 7.36364,-15.64768 0.52095,-2.13572 -0.97958,-4.0197 -3.57368,-4.48692 -0.87313,-0.15726 -6.57351,-1.25595 -12.66751,-2.44154 -7.97341,-1.55124 -11.36153,-2.10807 -12.08407,-1.98599 -2.16205,0.36527 -3.03953,1.26446 -7.50775,7.69356 -2.31742,3.33441 -4.72844,6.76953 -5.35781,7.6336 -1.40119,1.92366 -1.51139,3.0029 -0.41673,4.08118 0.65578,0.64598 1.61559,0.90662 9.72344,2.64047 4.94771,1.05805 11.31756,2.44414 14.15522,3.0802 5.83364,1.30759 7.25503,1.42062 8.67564,0.68989 z m -6.41792,-4.05116 c -2.21148,-0.46771 -2.95028,-2.22245 -1.46272,-3.47415 2.82866,-2.38016 8.08189,0.36422 5.36761,2.80413 -0.68466,0.61545 -2.60496,0.94495 -3.90489,0.67002 z m 2.37249,-1.51739 c 0,-0.4739 -0.17793,-0.69153 -0.65803,-0.80487 -0.94059,-0.22204 -2.13812,0.003 -2.303,0.43255 -0.27487,0.71628 0.46742,1.18391 1.74723,1.10074 1.09096,-0.0709 1.2138,-0.14462 1.2138,-0.72842 z m -20.27422,-2.30076 c -1.00424,-0.17524 -1.87743,-1.2044 -1.77259,-2.08922 0.23998,-2.02528 4.64524,-2.83705 6.31805,-1.16424 1.71699,1.71699 -1.23634,3.83087 -4.54546,3.25346 z m 2.26532,-0.87962 c 0.48422,-0.1841 0.67868,-0.45182 0.67868,-0.93435 0,-0.85458 -0.51784,-1.05638 -1.70519,-0.66452 -1.23167,0.40649 -1.41905,0.77931 -0.68884,1.37059 0.69364,0.56167 0.80091,0.57595 1.71535,0.22828 z m 9.16517,-3.11581 c -1.14342,-0.5837 -1.46873,-1.11524 -1.24007,-2.02628 0.3641,-1.45068 3.47341,-2.2059 5.37222,-1.30485 1.25415,0.59513 1.62181,1.43879 1.02436,2.35061 -0.9029,1.37801 -3.43475,1.85944 -5.15651,0.98052 z m 3.51003,-0.90346 c 0.4318,-0.68989 -0.23783,-1.27895 -1.45388,-1.27895 -1.22588,0 -1.58163,0.55353 -0.8648,1.34561 0.57511,0.6355 1.9031,0.59732 2.31868,-0.0667 z m 8.7883,-2.33511 c -0.98881,-0.18962 -2.26398,-1.25379 -2.26398,-1.88936 0,-0.1486 0.33783,-0.60801 0.75074,-1.02092 1.42485,-1.42485 4.51735,-1.2543 5.68049,0.31328 0.49834,0.67162 0.50358,0.75071 0.0914,1.37975 -0.74615,1.13877 -2.32085,1.58886 -4.25867,1.21725 z m 2.08222,-0.94659 c 0.92797,-0.92797 -0.67679,-2.08622 -1.83711,-1.32595 -0.73322,0.48042 -0.62793,1.13142 0.23969,1.48199 0.82749,0.33436 1.13729,0.30409 1.59742,-0.15604 z m -18.55804,-2.50053 c -2.26063,-0.32434 -2.86949,-1.94739 -1.16102,-3.09494 1.5667,-1.05232 4.33118,-0.7556 5.19137,0.55721 0.98923,1.50975 -1.27192,2.93349 -4.03035,2.53773 z m 2.17329,-1.33968 c 0,-0.56461 -1.26812,-1.14052 -2.06885,-0.93955 -0.5281,0.13254 -0.70927,0.34375 -0.70927,0.82686 0,0.50666 0.18845,0.7012 0.85989,0.88771 0.93787,0.26051 1.91823,-0.13558 1.91823,-0.77502 z"
         id="path2" /><path
         id="text10"
         style="font-size:6.31266px;fill:#0b9548;stroke-width:0.198824"
         d="m 141.79154,199.83058 c 0.039,0.21088 -0.29249,0.93442 -0.29249,0.93442 l -0.45095,-0.46959 -2.81806,-2.28668 c 0,0 0.0132,0.20316 0.10013,0.36552 0.0636,0.11876 0.0513,0.28498 -0.0429,0.36159 -0.1038,0.0844 -0.26724,0.0502 -0.39977,-0.0347 -0.13253,-0.085 -0.15145,-0.31889 -0.21203,-0.50892 -0.0858,-0.24394 -0.11232,-0.3481 -0.13753,-0.44601 -0.0317,-0.12199 -0.10954,-0.26014 -0.15224,-0.39695 -0.0675,-0.11114 -0.1602,-0.29288 -0.19649,-0.48708 0,0 0.0563,-0.48917 0.21729,-0.44839 0.28679,0.0727 2.12977,1.69861 3.53493,2.67655 0.18365,0.12778 0.79378,0.43647 0.85001,0.74018 z m -8.98921,3.86112 c 0,0 -0.51134,0.70323 -1.02619,0.9558 -0.24214,0.11879 -0.52593,-0.4422 -0.34175,-0.63927 0.503,-0.53806 0.89643,-1.22716 0.89643,-1.22716 0,0 -0.38856,-2.65882 -0.24004,-3.06697 0.14852,-0.40812 0.37947,-0.29882 0.56115,-0.29113 0.18167,0.008 1.61018,0.10905 2.49605,0.3862 0.18218,0.057 0.43941,0.36092 0.38261,0.58792 -0.16525,0.66021 -1.86406,2.31327 -1.86406,2.31327 z m 0.20363,-1.54675 c 0,0 1.88186,-1.55023 1.56036,-1.78416 -0.31284,-0.2276 -1.42391,-0.49093 -1.85295,-0.27816 -0.19207,0.0953 0.1611,1.78274 0.1611,1.78274 z m 15.46242,-26.70075 c -1.7905,-0.0104 -4.22994,0.7838 -10.54679,3.14811 -4.36561,1.634 -8.36888,3.25374 -8.8967,3.59916 -1.19447,0.78169 -2.34863,2.99044 -2.34464,4.48585 0.002,0.5899 0.24446,2.97743 0.54044,5.30576 0.29599,2.32833 0.60077,4.76907 0.67607,5.42391 0.0753,0.65484 0.36229,3.03579 0.63805,5.29137 0.27575,2.25558 0.74474,6.12489 1.04285,8.59873 2.39308,19.85866 2.38499,19.80249 3.04126,20.79767 0.34596,0.52461 1.14507,1.20963 1.77543,1.52166 1.22786,0.60777 2.67725,0.72618 3.77383,0.30927 0.373,-0.14182 3.99239,-2.3995 8.04288,-5.01807 5.40191,-3.49226 9.65093,-6.06996 11.92448,-7.61553 1.5647,-1.04503 2.61873,-1.76254 5.07469,-3.35457 1.66223,-1.0775 6.05534,-3.90527 9.76284,-6.28389 7.15683,-4.5916 8.27391,-5.42183 8.88334,-6.60034 0.48117,-0.93055 0.49419,-2.90068 0.0267,-4.01734 -0.45815,-1.09438 -0.88122,-1.4592 -10.63206,-9.18541 -4.49952,-3.56526 -10.83316,-8.59088 -14.07505,-11.16839 -4.26277,-3.3891 -6.20475,-4.77025 -7.0144,-4.98826 -0.57223,-0.15409 -1.09641,-0.2462 -1.69324,-0.24968 z m -0.13666,1.23705 c 1.62544,0 2.55917,1.69982 1.21445,2.21107 -0.37326,0.14193 -0.70054,0.25363 -0.72744,0.24763 -0.57771,-0.1223 -1.72782,-0.82426 -1.84325,-1.12506 -0.24878,-0.64833 0.44814,-1.33364 1.35624,-1.33364 z m -3.6382,2.20491 c 0.85743,0 2.09189,1.31437 2.0919,2.22752 1e-5,0.48346 -8.81538,36.5068 -11.20642,45.7945 -0.51648,2.00606 -0.70312,2.39468 -1.18568,2.46589 -0.31504,0.0465 -0.57229,-0.0547 -0.57229,-0.224 0,-0.29708 -3.31236,-26.73822 -4.09233,-32.66882 -0.87062,-6.61996 -1.18467,-9.82651 -1.02437,-10.45123 0.22372,-0.87191 1.05754,-2.04971 1.69118,-2.38882 1.10879,-0.59341 13.6224,-4.75504 14.29801,-4.75504 z m 6.67637,1.05827 c 1.05118,10e-6 0.6205,-0.30165 9.43817,6.61884 3.27422,2.56971 8.8102,6.90318 12.30269,9.6303 3.49251,2.72709 6.49553,5.21667 6.67227,5.53282 0.5169,0.92459 0.40495,2.19453 -0.25584,2.91078 -0.32742,0.35489 -4.04779,2.87818 -8.26789,5.60678 -4.84436,3.13336 -11.42443,7.42558 -15.7426,10.35715 -2.62689,1.69988 -5.84287,3.61668 -8.62135,5.39059 -5.00424,3.20824 -8.91358,5.54618 -9.27478,5.54619 -0.75385,0 -1.68298,-0.86475 -1.68298,-1.56686 1e-5,-0.68362 0.53084,-3.19781 0.81481,-3.85702 0.12531,-0.29108 0.53122,-1.74726 0.90107,-3.23647 0.36991,-1.48918 2.26519,-8.75267 4.21255,-16.14022 1.94735,-7.38755 4.15845,-15.8726 4.91327,-18.85578 0.75478,-2.98323 1.54315,-5.78648 1.75181,-6.22943 0.47726,-1.01322 1.63229,-1.70763 2.83884,-1.70764 z m -14.29594,3.06695 c -0.19791,-0.0395 -0.46624,0.008 -0.80655,0.1346 -0.6607,0.24558 -0.741,0.79799 -0.30105,2.06003 0.22083,0.63338 0.21195,1.15189 -0.037,2.08983 -0.50896,1.91774 -0.62705,3.97732 -0.25275,4.42833 0.44752,0.53921 0.98334,0.49014 1.30999,-0.12023 0.43329,-0.80961 0.33939,-1.30803 -0.21885,-1.16204 -1.01428,0.26524 -0.95539,-0.80456 0.24967,-4.5218 0.61283,-1.89038 0.6501,-2.79044 0.0565,-2.90872 z m 26.28937,9.12684 c -0.20793,-0.0169 -0.39894,0.007 -0.57022,0.073 -0.68952,0.26458 -0.45713,1.13824 0.39658,1.49186 0.43656,0.18082 0.81148,0.4331 0.83327,0.56097 0.0218,0.1279 0.0513,0.35997 0.0658,0.51579 0.0146,0.15581 -0.6823,0.52237 -1.54838,0.81477 -2.74146,0.9255 -4.32691,2.38097 -4.57009,4.19405 -0.1133,0.8446 -0.0212,1.13366 0.54454,1.6994 0.70069,0.70068 2.04618,0.91431 2.79056,0.44283 0.42689,-0.27039 0.17224,-0.81989 -0.38015,-0.8199 -0.55625,0 -1.44049,-0.97327 -1.44049,-1.58639 0,-0.80533 1.75017,-2.56658 2.99399,-3.01351 0.60922,-0.21891 1.79249,-0.5866 2.62924,-0.81682 1.86948,-0.51439 1.9661,-0.99876 0.46957,-2.35079 -0.818,-0.73902 -1.59037,-1.15455 -2.21415,-1.2052 z m -16.30974,9.282 c -0.9607,0.0852 -1.85559,1.67089 -1.85559,3.49846 1e-5,0.8822 0.17169,1.38404 0.68429,1.99325 0.5569,0.66184 0.88517,0.81377 1.75488,0.81374 0.88686,0 1.22464,-0.16427 1.97476,-0.95963 l 0.90417,-0.95861 0.599,0.56199 c 1.05822,0.99415 2.39227,0.66027 3.28682,-0.82298 0.74503,-1.23535 0.96125,-2.69005 0.46132,-3.10496 -0.5677,-0.47112 -1.18976,-0.16022 -1.01513,0.50756 0.2152,0.8229 -0.44258,2.14154 -1.21444,2.43505 -0.56747,0.21576 -0.76129,0.16198 -1.14869,-0.31644 -0.25646,-0.31671 -0.46646,-0.86843 -0.46646,-1.22678 -1e-5,-0.964 -0.84918,-0.68156 -1.15486,0.38427 -0.49355,1.72096 -2.14781,2.7377 -3.02583,1.85968 -0.48386,-0.48382 -0.36801,-1.29172 0.35138,-2.45971 0.73624,-1.19537 0.83202,-1.93392 0.27844,-2.14636 -0.13748,-0.0527 -0.27682,-0.0707 -0.41406,-0.0586 z m 12.51024,4.49715 c -1.24072,-0.22235 -3.77513,6.93669 -2.88509,8.3768 0.2941,0.47587 0.71735,0.37165 1.98606,-0.48804 0.64036,-0.43391 1.23617,-0.78795 1.32336,-0.78703 0.0872,9.3e-4 0.36481,0.36464 0.61749,0.8086 0.37235,0.65427 0.54859,0.75827 0.92678,0.54662 0.3731,-0.2088 0.85037,-0.1561 0.68529,-1.14459 -0.14063,-0.84207 -0.75431,-2.37323 -0.95244,-3.02275 -0.1287,-0.42199 -0.58274,-1.31177 -0.86511,-2.35493 -0.25833,-0.95432 -0.58273,-1.80448 -0.72025,-1.88948 -0.0373,-0.0229 -0.0761,-0.038 -0.1161,-0.0452 z m -0.76442,2.67342 c 0.0833,0.0174 0.1764,0.13427 0.31747,0.32571 0.92023,1.24506 0.78069,2.77022 -0.29899,3.26215 -0.37413,0.17047 -0.81003,0.30927 -0.96786,0.30927 -0.38263,0 -0.14477,-1.68221 0.42948,-3.04228 0.26882,-0.63669 0.38098,-0.88385 0.51989,-0.85484 z" /></g></g></svg>
